{"glyphs":{"0":{"ha":794,"x_min":50,"x_max":743,"o":"m 743 496 q 724 282 743 376 q 665 122 706 188 q 558 21 624 56 q 396 -14 492 -14 q 200 47 276 -14 q 87 222 124 108 q 50 496 50 336 q 83 771 50 657 q 193 946 117 885 q 396 1007 269 1007 q 592 947 515 1007 q 706 772 668 886 q 743 496 743 657 m 258 496 q 271 308 258 383 q 313 194 283 232 q 396 156 343 156 q 478 193 449 156 q 522 306 508 231 q 535 496 535 382 q 522 685 535 610 q 478 799 508 761 q 396 838 449 838 q 313 799 343 838 q 271 685 283 761 q 258 496 258 610 z "},"1":{"ha":794,"x_min":82,"x_max":574,"o":"m 574 0 l 364 0 l 364 574 q 365 632 364 597 q 367 704 365 667 q 369 771 368 742 q 340 741 363 763 q 297 703 317 719 l 183 611 l 82 738 l 401 992 l 574 992 l 574 0 z "},"2":{"ha":794,"x_min":53,"x_max":749,"o":"m 749 0 l 56 0 l 56 146 l 304 397 q 425 527 379 475 q 492 622 471 579 q 513 713 513 664 q 480 801 513 772 q 392 831 447 831 q 281 804 335 831 q 167 729 226 778 l 53 864 q 144 933 96 901 q 255 985 192 965 q 407 1006 318 1006 q 574 970 504 1006 q 683 874 644 935 q 721 738 721 814 q 688 588 721 656 q 594 453 656 519 q 444 306 532 386 l 317 186 l 317 176 l 749 176 l 749 0 z "},"3":{"ha":794,"x_min":53,"x_max":739,"o":"m 710 769 q 681 651 710 701 q 605 569 653 601 q 496 522 557 538 l 496 518 q 677 446 615 504 q 739 289 739 388 q 697 134 739 203 q 566 26 654 65 q 339 -14 478 -14 q 186 0 257 -14 q 53 40 115 14 l 53 218 q 187 169 117 186 q 317 153 257 153 q 474 192 429 153 q 519 301 519 231 q 499 372 519 343 q 426 415 478 400 q 281 429 374 429 l 206 429 l 206 590 l 282 590 q 422 608 374 590 q 487 655 469 625 q 504 724 504 685 q 472 806 504 776 q 363 836 439 836 q 276 824 315 836 q 206 796 238 813 q 151 764 175 779 l 54 908 q 191 978 113 950 q 378 1006 269 1006 q 620 944 531 1006 q 710 769 710 882 z "},"4":{"ha":794,"x_min":24,"x_max":771,"o":"m 771 206 l 651 206 l 651 0 l 447 0 l 447 206 l 24 206 l 24 351 l 458 992 l 651 992 l 651 368 l 771 368 l 771 206 m 447 536 q 448 592 447 560 q 450 658 449 625 q 453 716 451 690 q 456 751 454 742 l 450 751 q 424 697 438 724 q 390 643 410 671 l 208 368 l 447 368 l 447 536 z "},"5":{"ha":794,"x_min":68,"x_max":731,"o":"m 417 633 q 578 599 507 633 q 690 497 649 564 q 731 332 731 431 q 686 147 731 225 q 553 28 642 69 q 335 -14 465 -14 q 188 0 257 -14 q 68 40 119 14 l 68 221 q 192 176 119 194 q 328 157 264 157 q 433 174 390 157 q 497 225 475 190 q 519 314 519 260 q 471 426 519 388 q 321 464 422 464 q 240 456 282 464 q 171 442 199 449 l 88 486 l 125 992 l 663 992 l 663 814 l 308 814 l 290 619 q 341 628 314 624 q 417 633 368 633 z "},"6":{"ha":794,"x_min":49,"x_max":749,"o":"m 49 421 q 61 590 49 507 q 105 748 74 674 q 192 880 136 822 q 335 970 249 938 q 546 1003 422 1003 q 614 1001 575 1003 q 679 993 653 999 l 679 825 q 622 835 653 832 q 560 839 590 839 q 406 817 467 839 q 311 753 346 794 q 260 655 276 711 q 242 529 244 599 l 250 529 q 298 588 269 563 q 368 629 326 614 q 465 644 410 644 q 616 608 553 644 q 714 501 679 571 q 749 331 749 431 q 708 146 749 224 q 591 27 667 68 q 411 -14 515 -14 q 269 13 335 -14 q 153 92 203 39 q 76 228 104 146 q 49 421 49 310 m 407 154 q 507 197 468 154 q 546 328 546 239 q 513 442 546 400 q 411 483 479 483 q 331 463 365 483 q 276 411 296 443 q 257 346 257 379 q 267 277 257 311 q 295 215 276 243 q 342 171 314 188 q 407 154 369 154 z "},"7":{"ha":794,"x_min":38,"x_max":749,"o":"m 154 0 l 526 815 l 38 815 l 38 992 l 749 992 l 749 860 l 374 0 l 154 0 z "},"8":{"ha":794,"x_min":49,"x_max":744,"o":"m 397 1004 q 555 978 483 1004 q 670 899 626 951 q 714 765 714 846 q 690 660 714 706 q 627 582 667 615 q 536 524 588 549 q 637 459 589 496 q 715 373 685 422 q 744 257 744 324 q 701 114 744 175 q 578 19 657 53 q 397 -14 500 -14 q 208 18 286 -14 q 90 110 131 50 q 49 251 49 169 q 74 369 49 319 q 143 456 100 419 q 239 518 186 493 q 158 581 194 546 q 101 662 122 617 q 79 767 79 707 q 124 899 79 846 q 241 978 168 951 q 397 1004 314 1004 m 243 264 q 281 175 243 210 q 394 140 319 140 q 511 174 472 140 q 550 263 550 207 q 528 328 550 300 q 473 380 506 357 q 406 422 440 403 l 388 432 q 312 388 344 413 q 261 333 279 363 q 243 264 243 303 m 396 851 q 310 825 344 851 q 276 750 276 799 q 293 691 276 717 q 338 647 310 665 q 397 611 365 628 q 456 644 429 626 q 500 688 483 663 q 517 750 517 714 q 483 825 517 799 q 396 851 449 851 z "},"9":{"ha":794,"x_min":44,"x_max":744,"o":"m 744 568 q 732 399 744 483 q 688 241 719 315 q 601 109 657 167 q 458 19 544 51 q 247 -14 371 -14 q 179 -12 218 -14 q 114 -4 140 -10 l 114 164 q 172 154 142 158 q 233 150 203 150 q 387 172 326 150 q 482 236 447 194 q 533 335 517 278 q 551 460 549 392 l 543 460 q 497 401 524 428 q 428 360 469 375 q 324 344 388 344 q 176 381 239 344 q 79 488 114 418 q 44 658 44 558 q 85 844 44 767 q 203 962 126 921 q 382 1003 279 1003 q 524 976 458 1003 q 640 897 590 950 q 717 761 689 843 q 744 568 744 679 m 386 835 q 286 793 325 835 q 247 661 247 751 q 281 547 247 589 q 382 506 314 506 q 463 526 429 506 q 517 578 497 547 q 536 643 536 610 q 526 712 536 678 q 498 774 517 746 q 451 818 479 801 q 386 835 424 835 z "},"\u0000":{"ha":0,"x_min":0,"x_max":0,"o":""},"\r":{"ha":361,"x_min":0,"x_max":0,"o":""}," ":{"ha":361,"x_min":0,"x_max":0,"o":""},"!":{"ha":392,"x_min":75,"x_max":315,"o":"m 279 322 l 113 322 l 78 992 l 314 992 l 279 322 m 75 97 q 110 188 75 163 q 196 214 146 214 q 279 188 243 214 q 315 97 315 163 q 279 9 315 36 q 196 -18 243 -18 q 110 9 146 -18 q 75 97 75 36 z "},"\"":{"ha":665,"x_min":85,"x_max":579,"o":"m 285 992 l 257 633 l 113 633 l 85 992 l 285 992 m 579 992 l 551 633 l 408 633 l 381 992 l 579 992 z "},"#":{"ha":897,"x_min":31,"x_max":867,"o":"m 678 572 l 646 415 l 821 415 l 821 275 l 619 275 l 567 0 l 418 0 l 471 275 l 339 275 l 288 0 l 142 0 l 192 275 l 31 275 l 31 415 l 218 415 l 250 572 l 79 572 l 79 714 l 275 714 l 328 990 l 476 990 l 424 714 l 558 714 l 611 990 l 757 990 l 704 714 l 867 714 l 867 572 l 678 572 m 365 415 l 499 415 l 531 572 l 397 572 l 365 415 z "},"$":{"ha":794,"x_min":60,"x_max":740,"o":"m 351 56 q 190 73 261 58 q 61 114 119 88 l 61 293 q 199 242 118 265 q 351 215 279 219 l 351 425 q 180 506 244 467 q 88 594 115 546 q 60 711 60 643 q 97 831 60 781 q 199 913 133 882 q 351 950 265 943 l 351 1054 l 444 1054 l 444 953 q 591 935 522 950 q 725 890 660 919 l 661 732 q 549 768 606 756 q 444 785 493 781 l 444 585 q 588 524 519 557 q 698 442 656 492 q 740 310 740 392 q 667 140 740 208 q 444 58 593 72 l 444 -81 l 351 -81 l 351 56 m 444 219 q 514 248 492 228 q 536 300 536 268 q 526 334 536 319 q 495 362 515 349 q 444 389 475 375 l 444 219 m 351 782 q 304 769 324 778 q 274 745 285 760 q 264 711 264 731 q 273 677 264 692 q 301 649 282 663 q 351 622 321 636 l 351 782 z "},"%":{"ha":1253,"x_min":42,"x_max":1211,"o":"m 275 1006 q 450 924 386 1006 q 514 696 514 843 q 454 466 514 549 q 275 383 394 383 q 104 466 167 383 q 42 696 42 549 q 101 924 42 843 q 275 1006 160 1006 m 276 871 q 222 825 239 871 q 206 694 206 779 q 222 563 206 610 q 276 517 239 517 q 333 563 315 517 q 350 694 350 608 q 333 825 350 779 q 276 871 315 871 m 982 992 l 432 0 l 267 0 l 817 992 l 982 992 m 972 610 q 1147 528 1082 610 q 1211 300 1211 447 q 1151 70 1211 153 q 972 -12 1090 -12 q 801 70 864 -12 q 739 300 739 153 q 797 528 739 447 q 972 610 856 610 m 974 475 q 919 429 935 475 q 903 299 903 383 q 919 167 903 214 q 974 121 935 121 q 1030 167 1013 121 q 1047 299 1047 213 q 1030 430 1047 385 q 974 475 1013 475 z "},"&":{"ha":1042,"x_min":56,"x_max":1042,"o":"m 431 1006 q 574 981 511 1006 q 672 908 636 956 q 708 790 708 860 q 651 629 708 694 q 510 515 594 564 l 703 328 q 751 427 731 375 q 786 532 772 479 l 1001 532 q 940 365 981 454 q 838 199 900 276 l 1042 0 l 786 0 l 708 76 q 622 28 668 49 q 525 -3 576 8 q 415 -14 474 -14 q 222 22 303 -14 q 99 121 142 57 q 56 268 56 185 q 77 390 56 339 q 140 478 99 440 q 238 549 181 517 q 180 627 201 590 q 149 700 158 664 q 140 776 140 736 q 177 899 140 847 q 280 978 214 950 q 431 1006 346 1006 m 358 425 q 313 385 332 406 q 284 340 294 364 q 274 288 274 317 q 318 194 274 228 q 429 160 363 160 q 513 171 474 160 q 583 201 551 182 l 358 425 m 429 846 q 363 828 394 846 q 332 763 332 811 q 349 696 332 728 q 396 631 367 664 q 485 694 454 663 q 517 768 517 726 q 489 828 517 810 q 429 846 461 846 z "},"'":{"ha":369,"x_min":85,"x_max":285,"o":"m 285 992 l 257 633 l 113 633 l 85 992 l 285 992 z "},"(":{"ha":471,"x_min":56,"x_max":429,"o":"m 56 381 q 77 603 56 494 q 144 810 99 711 q 260 992 190 908 l 429 992 q 285 704 335 861 q 236 382 236 547 q 258 169 236 275 q 323 -35 281 63 q 428 -219 365 -133 l 260 -219 q 144 -41 190 -137 q 77 163 99 56 q 56 381 56 269 z "},")":{"ha":471,"x_min":42,"x_max":415,"o":"m 415 381 q 394 163 415 269 q 327 -41 372 56 q 211 -219 282 -137 l 43 -219 q 148 -35 106 -133 q 213 169 190 63 q 235 382 235 275 q 213 599 235 492 q 148 806 190 706 q 42 992 106 906 l 211 992 q 327 810 282 908 q 394 603 372 711 q 415 381 415 494 z "},"*":{"ha":753,"x_min":40,"x_max":713,"o":"m 465 1056 l 438 806 l 689 876 l 713 704 l 483 688 l 633 488 l 479 406 l 374 617 l 281 406 l 119 488 l 269 688 l 40 707 l 67 876 l 314 806 l 286 1056 l 465 1056 z "},"+":{"ha":794,"x_min":60,"x_max":733,"o":"m 471 564 l 733 564 l 733 415 l 471 415 l 471 154 l 322 154 l 322 415 l 60 415 l 60 564 l 322 564 l 322 828 l 471 828 l 471 564 z "},",":{"ha":396,"x_min":43,"x_max":311,"o":"m 311 146 q 279 41 299 97 q 238 -72 260 -15 q 192 -179 215 -128 l 43 -179 q 69 -63 57 -124 q 93 56 82 -3 q 111 161 104 114 l 301 161 l 311 146 z "},"-":{"ha":444,"x_min":39,"x_max":404,"o":"m 39 286 l 39 458 l 404 458 l 404 286 l 39 286 z "},".":{"ha":390,"x_min":75,"x_max":315,"o":"m 75 97 q 110 188 75 163 q 196 214 146 214 q 280 188 244 214 q 315 97 315 163 q 280 9 315 36 q 196 -18 244 -18 q 110 9 146 -18 q 75 97 75 36 z "},"/":{"ha":576,"x_min":10,"x_max":569,"o":"m 569 1000 l 200 -8 l 10 -8 l 379 1000 l 569 1000 z "},":":{"ha":390,"x_min":75,"x_max":315,"o":"m 75 97 q 110 188 75 163 q 196 214 146 214 q 280 188 244 214 q 315 97 315 163 q 280 9 315 36 q 196 -18 244 -18 q 110 9 146 -18 q 75 97 75 36 m 75 657 q 110 747 75 721 q 196 772 146 772 q 280 747 244 772 q 315 657 315 721 q 280 567 315 594 q 196 540 244 540 q 110 567 146 540 q 75 657 75 594 z "},";":{"ha":396,"x_min":43,"x_max":317,"o":"m 311 146 q 279 41 299 97 q 238 -72 260 -15 q 192 -179 215 -128 l 43 -179 q 63 -93 53 -137 q 81 -3 72 -49 q 98 83 90 42 q 111 161 106 125 l 301 161 l 311 146 m 79 657 q 114 747 79 721 q 199 772 149 772 q 282 747 247 772 q 317 657 317 721 q 282 569 317 596 q 199 542 247 542 q 114 569 149 542 q 79 657 79 596 z "},"<":{"ha":794,"x_min":60,"x_max":733,"o":"m 733 138 l 60 435 l 60 532 l 733 868 l 733 706 l 269 490 l 733 300 l 733 138 z "},"=":{"ha":794,"x_min":60,"x_max":733,"o":"m 60 547 l 60 694 l 733 694 l 733 547 l 60 547 m 60 283 l 60 432 l 733 432 l 733 283 l 60 283 z "},">":{"ha":794,"x_min":60,"x_max":733,"o":"m 60 300 l 524 490 l 60 706 l 60 868 l 733 532 l 733 435 l 60 138 l 60 300 z "},"?":{"ha":663,"x_min":7,"x_max":633,"o":"m 197 372 q 208 454 197 418 q 245 522 218 490 q 318 588 272 554 q 393 649 368 624 q 427 696 418 674 q 436 746 436 718 q 403 813 436 789 q 314 836 371 836 q 199 819 256 836 q 81 769 142 801 l 7 921 q 155 983 75 960 q 328 1006 235 1006 q 553 939 474 1006 q 633 760 633 872 q 616 659 633 703 q 563 578 599 615 q 471 500 526 540 q 405 447 429 469 q 372 403 381 425 q 363 353 363 382 l 363 322 l 197 322 l 197 372 m 168 97 q 203 188 168 163 q 289 214 238 214 q 372 188 336 214 q 407 97 407 163 q 372 10 407 38 q 289 -18 336 -18 q 203 10 238 -18 q 168 97 168 38 z "},"@":{"ha":1247,"x_min":65,"x_max":1182,"o":"m 1182 506 q 1166 379 1182 442 q 1118 267 1150 317 q 1040 186 1086 217 q 931 156 993 156 q 835 183 876 156 q 774 251 793 210 l 765 251 q 690 183 736 211 q 581 156 644 156 q 399 229 461 156 q 338 424 338 303 q 376 588 338 515 q 488 701 414 660 q 665 743 561 743 q 793 731 731 743 q 894 704 856 718 l 881 419 q 880 390 881 406 q 879 361 879 375 q 895 297 879 314 q 933 279 911 279 q 988 310 965 279 q 1022 394 1010 342 q 1035 507 1035 446 q 990 702 1035 621 q 863 827 946 783 q 664 871 779 871 q 471 837 554 871 q 331 740 388 803 q 246 591 275 676 q 217 404 217 506 q 261 198 217 285 q 392 65 306 111 q 607 18 479 18 q 774 36 688 18 q 936 81 861 54 l 936 -50 q 786 -95 868 -79 q 613 -111 704 -111 q 317 -49 440 -111 q 130 128 194 13 q 65 404 65 244 q 107 640 65 531 q 226 828 149 749 q 415 953 304 908 q 663 999 525 999 q 873 965 778 999 q 1038 867 968 931 q 1144 712 1107 803 q 1182 506 1182 621 m 496 424 q 525 313 496 347 q 603 279 554 279 q 694 329 667 279 q 728 478 722 379 l 735 610 q 703 616 719 614 q 667 618 686 618 q 569 590 607 618 q 513 519 531 563 q 496 424 496 475 z "},"A":{"ha":961,"x_min":0,"x_max":961,"o":"m 732 0 l 656 233 l 306 233 l 229 0 l 0 0 l 349 996 l 610 996 l 961 0 l 732 0 m 538 626 q 520 689 532 647 q 497 774 508 731 q 479 846 486 818 q 463 772 474 814 q 443 692 453 731 q 426 626 433 653 l 356 411 l 607 411 l 538 626 z "},"B":{"ha":924,"x_min":118,"x_max":854,"o":"m 439 992 q 736 931 643 992 q 829 744 829 871 q 806 637 829 682 q 745 564 783 592 q 661 526 707 536 l 661 519 q 754 485 710 510 q 826 413 799 460 q 854 288 854 365 q 810 133 854 197 q 684 34 765 68 q 489 0 603 0 l 118 0 l 118 992 l 439 992 m 450 594 q 576 628 542 594 q 611 715 611 661 q 570 799 611 772 q 440 826 529 826 l 331 826 l 331 594 l 450 594 m 331 435 l 331 168 l 465 168 q 597 206 560 168 q 633 304 633 244 q 617 371 633 342 q 563 417 601 400 q 458 435 525 435 l 331 435 z "},"C":{"ha":892,"x_min":76,"x_max":849,"o":"m 553 829 q 445 806 493 829 q 364 740 397 783 q 313 634 331 696 q 296 493 296 572 q 325 315 296 389 q 413 201 354 240 q 561 163 472 163 q 687 178 626 163 q 808 217 747 193 l 808 36 q 681 -2 746 10 q 538 -14 617 -14 q 277 49 379 -14 q 126 228 175 113 q 76 494 76 343 q 108 701 76 607 q 200 863 139 794 q 350 968 261 931 q 556 1006 439 1006 q 705 990 629 1006 q 849 940 781 974 l 779 771 q 673 812 729 794 q 553 829 617 829 z "},"D":{"ha":1017,"x_min":118,"x_max":942,"o":"m 942 513 q 878 228 942 342 q 698 57 814 114 q 421 0 582 0 l 118 0 l 118 992 l 446 992 q 713 937 603 992 q 883 775 824 882 q 942 513 942 668 m 719 504 q 688 681 719 611 q 594 784 657 750 q 440 818 532 818 l 331 818 l 331 175 l 419 175 q 646 257 572 175 q 719 504 719 339 z "},"E":{"ha":778,"x_min":125,"x_max":696,"o":"m 696 0 l 125 0 l 125 992 l 696 992 l 696 819 l 335 819 l 335 601 l 671 601 l 671 429 l 335 429 l 335 174 l 696 174 l 696 0 z "},"F":{"ha":763,"x_min":125,"x_max":693,"o":"m 332 0 l 125 0 l 125 992 l 693 992 l 693 819 l 332 819 l 332 564 l 668 564 l 668 392 l 332 392 l 332 0 z "},"G":{"ha":1006,"x_min":81,"x_max":894,"o":"m 501 557 l 894 557 l 894 43 q 733 1 817 17 q 542 -14 649 -14 q 291 44 394 -14 q 134 217 188 103 q 81 497 81 331 q 141 767 81 653 q 317 943 201 881 q 599 1006 432 1006 q 754 989 678 1006 q 893 944 831 972 l 824 776 q 719 815 778 800 q 597 831 661 831 q 438 789 506 831 q 334 672 371 747 q 297 493 297 596 q 324 321 297 396 q 407 203 350 246 q 556 161 464 161 q 631 165 600 161 q 689 175 663 169 l 689 382 l 501 382 l 501 557 z "},"H":{"ha":1063,"x_min":125,"x_max":938,"o":"m 938 0 l 728 0 l 728 428 l 335 428 l 335 0 l 125 0 l 125 992 l 335 992 l 335 603 l 728 603 l 728 992 l 938 992 l 938 0 z "},"I":{"ha":540,"x_min":44,"x_max":496,"o":"m 496 0 l 44 0 l 44 119 l 165 175 l 165 817 l 44 872 l 44 992 l 496 992 l 496 872 l 375 817 l 375 175 l 496 119 l 496 0 z "},"J":{"ha":460,"x_min":-103,"x_max":335,"o":"m 21 -292 q -50 -287 -19 -292 q -103 -276 -81 -282 l -103 -101 q -56 -111 -81 -107 q -4 -115 -32 -115 q 62 -101 32 -115 q 108 -49 92 -87 q 125 63 125 -10 l 125 992 l 335 992 l 335 64 q 295 -142 335 -64 q 185 -256 256 -221 q 21 -292 114 -292 z "},"K":{"ha":922,"x_min":125,"x_max":922,"o":"m 922 0 l 683 0 l 424 418 l 335 354 l 335 0 l 125 0 l 125 992 l 335 992 l 335 538 q 376 596 356 567 q 418 654 397 625 l 686 992 l 919 992 l 574 553 l 922 0 z "},"L":{"ha":776,"x_min":118,"x_max":732,"o":"m 118 0 l 118 992 l 331 992 l 331 175 l 732 175 l 732 0 l 118 0 z "},"M":{"ha":1310,"x_min":125,"x_max":1185,"o":"m 544 0 l 306 778 l 300 778 q 304 694 301 750 q 310 576 307 639 q 313 461 313 513 l 313 0 l 125 0 l 125 992 l 411 992 l 646 233 l 650 233 l 899 992 l 1185 992 l 1185 0 l 989 0 l 989 469 q 991 578 989 517 q 995 694 993 639 q 999 776 997 749 l 993 776 l 738 0 l 544 0 z "},"N":{"ha":1129,"x_min":125,"x_max":1004,"o":"m 1004 0 l 738 0 l 306 750 l 300 750 q 305 656 303 703 q 309 561 307 608 q 313 467 311 514 l 313 0 l 125 0 l 125 992 l 390 992 l 821 249 l 825 249 q 822 340 824 294 q 819 431 821 386 q 815 522 817 476 l 815 992 l 1004 992 l 1004 0 z "},"O":{"ha":1099,"x_min":76,"x_max":1021,"o":"m 1021 497 q 992 288 1021 382 q 906 126 964 194 q 760 22 849 58 q 549 -14 671 -14 q 338 22 428 -14 q 191 126 249 58 q 105 288 133 194 q 76 499 76 382 q 127 767 76 653 q 283 944 178 881 q 550 1007 388 1007 q 816 944 711 1007 q 971 766 921 881 q 1021 497 1021 651 m 300 497 q 326 319 300 394 q 407 205 351 244 q 549 165 463 165 q 692 205 638 165 q 772 319 747 244 q 797 497 797 394 q 740 742 797 653 q 550 831 683 831 q 407 790 463 831 q 326 676 351 750 q 300 497 300 601 z "},"P":{"ha":863,"x_min":118,"x_max":804,"o":"m 429 992 q 713 912 621 992 q 804 686 804 832 q 785 561 804 621 q 720 453 765 501 q 601 378 675 406 q 421 351 528 351 l 331 351 l 331 0 l 118 0 l 118 992 l 429 992 m 422 818 l 331 818 l 331 526 l 401 526 q 502 541 460 526 q 567 590 544 556 q 590 679 590 624 q 549 782 590 746 q 422 818 508 818 z "},"Q":{"ha":1099,"x_min":76,"x_max":1021,"o":"m 1021 497 q 994 295 1021 388 q 915 135 968 203 q 778 31 863 68 l 1018 -236 l 744 -236 l 568 -14 q 558 -14 564 -14 q 549 -14 553 -14 q 338 22 428 -14 q 191 126 249 58 q 105 288 133 194 q 76 499 76 382 q 127 767 76 653 q 283 944 178 881 q 550 1007 388 1007 q 816 944 711 1007 q 971 766 921 881 q 1021 497 1021 651 m 300 497 q 326 319 300 394 q 407 205 351 244 q 549 165 463 165 q 692 205 638 165 q 772 319 747 244 q 797 497 797 394 q 740 742 797 653 q 550 831 683 831 q 407 790 463 831 q 326 676 351 750 q 300 497 300 601 z "},"R":{"ha":911,"x_min":118,"x_max":913,"o":"m 422 992 q 639 959 553 992 q 767 863 725 926 q 810 703 810 799 q 786 585 810 636 q 722 497 763 533 q 631 438 682 461 l 913 0 l 669 0 l 449 381 l 331 381 l 331 0 l 118 0 l 118 992 l 422 992 m 418 826 l 331 826 l 331 544 l 418 544 q 549 579 503 544 q 594 693 594 614 q 576 767 594 738 q 518 811 557 796 q 418 826 479 826 z "},"S":{"ha":765,"x_min":64,"x_max":710,"o":"m 710 275 q 667 122 710 188 q 542 22 624 57 q 344 -14 461 -14 q 244 -7 293 -14 q 149 13 194 0 q 64 46 104 26 l 64 242 q 210 185 135 211 q 361 160 286 160 q 444 174 413 160 q 490 211 475 188 q 504 265 504 235 q 478 329 504 303 q 410 378 453 356 q 311 428 367 401 q 236 467 276 444 q 159 524 196 490 q 99 607 122 558 q 75 724 75 656 q 116 876 75 813 q 233 972 157 939 q 411 1006 308 1006 q 559 988 489 1006 q 706 936 629 969 l 638 772 q 515 815 569 800 q 404 831 461 831 q 338 818 365 831 q 295 783 310 806 q 281 731 281 761 q 301 672 281 696 q 364 625 322 647 q 468 572 406 603 q 598 497 544 536 q 681 406 651 458 q 710 275 710 353 z "},"T":{"ha":801,"x_min":26,"x_max":775,"o":"m 507 0 l 294 0 l 294 815 l 26 815 l 26 992 l 775 992 l 775 815 l 507 815 l 507 0 z "},"U":{"ha":1050,"x_min":118,"x_max":932,"o":"m 932 350 q 887 165 932 247 q 751 34 842 82 q 521 -14 660 -14 q 221 87 324 -14 q 118 353 118 188 l 118 992 l 328 992 l 328 385 q 378 213 328 263 q 526 163 428 163 q 639 186 596 163 q 702 260 682 210 q 722 386 722 310 l 722 992 l 932 992 l 932 350 z "},"V":{"ha":903,"x_min":0,"x_max":903,"o":"m 903 992 l 565 0 l 336 0 l 0 992 l 213 992 l 399 401 q 415 345 404 386 q 436 259 425 304 q 451 183 447 214 q 466 259 456 214 q 488 345 476 304 q 503 401 499 386 l 690 992 l 903 992 z "},"W":{"ha":1343,"x_min":0,"x_max":1343,"o":"m 1343 992 l 1090 0 l 851 0 l 717 521 q 706 567 713 536 q 692 633 700 597 q 679 702 685 669 q 671 753 674 735 q 663 702 669 735 q 650 634 657 669 q 636 567 643 599 q 625 519 629 536 l 492 0 l 253 0 l 0 992 l 207 992 l 333 450 q 346 392 339 426 q 360 322 353 358 q 373 250 367 285 q 382 190 379 215 q 390 251 385 217 q 403 320 396 285 q 416 387 410 356 q 428 436 422 418 l 572 992 l 771 992 l 915 436 q 926 387 919 418 q 940 319 933 356 q 953 249 947 283 q 961 190 958 215 q 974 273 965 225 q 992 369 982 321 q 1010 450 1003 418 l 1136 992 l 1343 992 z "},"X":{"ha":931,"x_min":4,"x_max":925,"o":"m 925 0 l 681 0 l 461 357 l 240 0 l 4 0 l 333 511 l 24 992 l 260 992 l 464 653 l 664 992 l 901 992 l 590 499 l 925 0 z "},"Y":{"ha":869,"x_min":0,"x_max":869,"o":"m 435 576 l 639 992 l 869 992 l 542 386 l 542 0 l 328 0 l 328 379 l 0 992 l 231 992 l 435 576 z "},"Z":{"ha":804,"x_min":33,"x_max":771,"o":"m 771 0 l 33 0 l 33 136 l 508 818 l 46 818 l 46 992 l 758 992 l 758 856 l 283 174 l 771 174 l 771 0 z "},"[":{"ha":460,"x_min":97,"x_max":425,"o":"m 425 -219 l 97 -219 l 97 992 l 425 992 l 425 849 l 274 849 l 274 -76 l 425 -76 l 425 -219 z "},"\\":{"ha":576,"x_min":8,"x_max":568,"o":"m 197 1000 l 568 -8 l 378 -8 l 8 1000 l 197 1000 z "},"]":{"ha":460,"x_min":35,"x_max":363,"o":"m 35 -76 l 186 -76 l 186 849 l 35 849 l 35 992 l 363 992 l 363 -219 l 35 -219 l 35 -76 z "},"^":{"ha":794,"x_min":32,"x_max":763,"o":"m 32 353 l 329 997 l 426 997 l 763 353 l 600 353 l 382 789 l 192 353 l 32 353 z "},"_":{"ha":571,"x_min":-3,"x_max":574,"o":"m 574 -219 l -3 -219 l -3 -125 l 574 -125 l 574 -219 z "},"`":{"ha":507,"x_min":56,"x_max":451,"o":"m 290 1064 q 340 996 311 1033 q 399 922 368 958 q 451 860 429 886 l 451 842 l 311 842 q 249 887 285 860 q 177 944 214 914 q 108 1002 140 974 q 56 1050 75 1031 l 56 1064 l 290 1064 z "},"a":{"ha":832,"x_min":56,"x_max":733,"o":"m 440 772 q 658 705 583 772 q 733 506 733 638 l 733 0 l 588 0 l 547 103 l 542 103 q 476 36 510 63 q 397 -2 442 10 q 289 -14 353 -14 q 169 12 222 -14 q 86 90 117 38 q 56 224 56 143 q 142 403 56 343 q 399 469 228 463 l 525 474 l 525 497 q 494 592 525 565 q 408 619 464 619 q 303 603 357 619 q 196 563 249 586 l 135 706 q 272 754 194 736 q 440 772 349 772 m 446 347 q 308 315 347 344 q 269 233 269 286 q 297 162 269 185 q 369 139 324 139 q 480 178 435 139 q 525 289 525 217 l 525 351 l 446 347 z "},"b":{"ha":878,"x_min":101,"x_max":811,"o":"m 311 810 q 309 728 311 767 q 303 660 307 689 l 311 660 q 393 740 342 707 q 526 772 444 772 q 732 673 653 772 q 811 381 811 574 q 775 163 811 251 q 673 31 739 75 q 521 -14 607 -14 q 390 16 438 -14 q 311 82 342 46 l 297 82 l 263 0 l 101 0 l 101 1056 l 311 1056 l 311 810 m 458 606 q 373 583 406 606 q 326 516 340 561 q 311 399 311 471 l 311 374 q 344 211 311 267 q 461 156 376 156 q 564 214 529 156 q 599 383 599 272 q 565 549 599 493 q 458 606 531 606 z "},"c":{"ha":717,"x_min":65,"x_max":678,"o":"m 432 -14 q 240 27 322 -14 q 111 155 157 68 q 65 375 65 242 q 115 603 65 515 q 251 731 165 690 q 447 772 338 772 q 573 758 514 772 q 678 721 632 744 l 615 563 q 531 592 574 581 q 447 604 489 604 q 356 579 393 604 q 299 503 318 554 q 279 376 279 453 q 299 253 279 301 q 356 180 318 204 q 444 156 393 156 q 557 172 504 156 q 657 214 610 188 l 657 43 q 560 1 614 17 q 432 -14 506 -14 z "},"d":{"ha":878,"x_min":65,"x_max":776,"o":"m 350 -14 q 145 85 225 -14 q 65 378 65 185 q 146 673 65 574 q 357 772 226 772 q 451 758 411 772 q 519 718 490 743 q 569 661 549 693 l 576 661 q 569 731 572 686 q 565 814 565 776 l 565 1056 l 776 1056 l 776 0 l 615 0 l 574 99 l 565 99 q 517 42 546 67 q 447 1 488 17 q 350 -14 406 -14 m 424 154 q 544 203 510 154 q 579 354 579 253 l 579 376 q 546 544 579 486 q 422 603 513 603 q 316 544 354 603 q 278 375 278 486 q 316 209 278 264 q 424 154 354 154 z "},"e":{"ha":829,"x_min":65,"x_max":765,"o":"m 425 772 q 607 733 531 772 q 724 616 683 693 q 765 428 765 539 l 765 326 l 278 326 q 331 191 281 240 q 474 142 381 142 q 603 156 544 142 q 722 197 661 169 l 722 40 q 605 -1 667 13 q 451 -14 543 -14 q 252 28 339 -14 q 115 156 165 69 q 65 374 65 243 q 110 595 65 507 q 237 728 156 683 q 425 772 318 772 m 431 624 q 329 584 368 624 q 283 467 290 544 l 569 467 q 554 547 569 513 q 508 603 539 582 q 431 624 476 624 z "},"f":{"ha":538,"x_min":28,"x_max":600,"o":"m 528 603 l 349 603 l 349 0 l 142 0 l 142 603 l 28 603 l 28 703 l 142 758 l 142 814 q 174 965 142 911 q 267 1040 207 1018 q 410 1063 328 1063 q 520 1053 471 1063 q 600 1031 569 1043 l 547 879 q 496 892 524 886 q 432 899 468 899 q 369 872 389 899 q 349 806 349 846 l 349 758 l 528 758 l 528 603 z "},"g":{"ha":878,"x_min":65,"x_max":776,"o":"m 354 772 q 486 742 433 772 q 574 663 539 713 l 579 663 l 599 758 l 776 758 l 776 -6 q 735 -185 776 -112 q 609 -296 693 -258 q 396 -333 525 -333 q 239 -323 308 -333 q 108 -287 169 -312 l 108 -110 q 237 -153 171 -137 q 389 -168 303 -168 q 522 -128 476 -168 q 567 -17 567 -87 l 567 4 q 569 49 567 21 q 574 97 571 76 l 567 97 q 483 17 535 47 q 353 -14 431 -14 q 144 88 222 -14 q 65 378 65 189 q 144 669 65 567 q 354 772 224 772 m 422 607 q 344 581 376 607 q 295 503 311 554 q 279 375 279 451 q 316 206 279 261 q 426 150 353 150 q 497 163 468 150 q 544 199 526 175 q 572 261 563 224 q 581 350 581 299 l 581 381 q 565 507 581 457 q 515 582 550 557 q 422 607 481 607 z "},"h":{"ha":903,"x_min":101,"x_max":804,"o":"m 311 843 q 308 735 311 782 q 301 661 304 689 l 313 661 q 371 725 338 701 q 445 760 404 749 q 532 772 486 772 q 675 743 614 772 q 770 653 736 714 q 804 494 804 593 l 804 0 l 594 0 l 594 442 q 565 565 594 524 q 474 606 536 606 q 377 576 413 606 q 326 492 342 547 q 311 356 311 436 l 311 0 l 101 0 l 101 1056 l 311 1056 l 311 843 z "},"i":{"ha":415,"x_min":94,"x_max":322,"o":"m 313 758 l 313 0 l 103 0 l 103 758 l 313 758 m 208 1057 q 288 1035 254 1057 q 322 954 322 1014 q 288 875 322 897 q 208 853 254 853 q 128 875 161 853 q 94 954 94 897 q 128 1035 94 1014 q 208 1057 161 1057 z "},"j":{"ha":414,"x_min":-74,"x_max":322,"o":"m 56 -333 q -12 -328 24 -333 q -74 -317 -49 -324 l -74 -151 q -31 -161 -51 -157 q 13 -165 -11 -165 q 76 -142 50 -165 q 101 -49 101 -118 l 101 758 l 311 758 l 311 -82 q 286 -208 311 -151 q 205 -299 261 -265 q 56 -333 149 -333 m 94 954 q 127 1035 94 1014 q 208 1057 160 1057 q 288 1035 253 1057 q 322 954 322 1014 q 288 875 322 897 q 208 853 253 853 q 127 875 160 853 q 94 954 94 897 z "},"k":{"ha":861,"x_min":108,"x_max":861,"o":"m 315 583 q 312 498 315 540 q 304 413 308 456 l 307 413 q 335 451 321 432 q 365 490 350 471 q 397 528 381 510 l 610 758 l 843 758 l 542 429 l 861 0 l 622 0 l 404 307 l 315 236 l 315 0 l 108 0 l 108 1056 l 315 1056 l 315 583 z "},"l":{"ha":414,"x_min":101,"x_max":311,"o":"m 311 0 l 101 0 l 101 1056 l 311 1056 l 311 0 z "},"m":{"ha":1354,"x_min":101,"x_max":1256,"o":"m 992 772 q 1189 707 1122 772 q 1256 494 1256 642 l 1256 0 l 1047 0 l 1047 442 q 1018 567 1047 529 q 931 606 989 606 q 817 547 850 606 q 783 379 783 488 l 783 0 l 574 0 l 574 442 q 561 535 574 499 q 524 588 549 571 q 460 606 499 606 q 370 576 403 606 q 324 492 338 547 q 311 356 311 436 l 311 0 l 101 0 l 101 758 l 263 758 l 293 661 l 300 661 q 355 721 322 696 q 431 759 388 746 q 526 772 474 772 q 667 743 611 772 q 756 658 724 714 l 763 658 q 860 744 800 715 q 992 772 919 772 z "},"n":{"ha":903,"x_min":101,"x_max":804,"o":"m 535 772 q 732 707 660 772 q 804 494 804 642 l 804 0 l 596 0 l 596 442 q 566 565 596 524 q 474 606 536 606 q 345 541 379 606 q 311 356 311 476 l 311 0 l 101 0 l 101 758 l 263 758 l 292 657 l 300 657 q 360 720 325 694 q 440 759 396 746 q 535 772 483 772 z "},"o":{"ha":868,"x_min":65,"x_max":801,"o":"m 801 381 q 776 213 801 286 q 702 89 750 139 q 586 13 654 39 q 432 -14 518 -14 q 285 13 351 -14 q 169 89 218 39 q 93 213 121 139 q 65 381 65 286 q 110 594 65 507 q 238 727 154 682 q 436 772 321 772 q 625 727 543 772 q 754 594 707 682 q 801 381 801 507 m 279 381 q 295 254 279 307 q 345 174 311 201 q 435 146 379 146 q 523 174 489 146 q 572 254 557 201 q 588 381 588 307 q 572 507 588 456 q 522 585 556 558 q 433 613 489 613 q 316 553 353 613 q 279 381 279 493 z "},"p":{"ha":878,"x_min":101,"x_max":811,"o":"m 526 772 q 735 673 658 772 q 811 381 811 574 q 774 164 811 253 q 672 31 738 75 q 521 -14 607 -14 q 425 1 465 -14 q 358 37 385 15 q 311 82 331 58 l 303 82 q 308 24 306 57 q 311 -43 311 -8 l 311 -333 l 101 -333 l 101 758 l 272 758 l 301 660 l 311 660 q 360 717 332 692 q 430 757 389 742 q 526 772 471 772 m 457 606 q 372 583 404 606 q 326 517 340 561 q 311 404 313 472 l 311 382 q 324 259 311 310 q 370 182 338 208 q 458 156 403 156 q 537 182 506 156 q 583 259 568 208 q 599 383 599 310 q 563 551 599 496 q 457 606 528 606 z "},"q":{"ha":878,"x_min":65,"x_max":776,"o":"m 567 -15 q 568 42 567 11 q 574 99 569 72 l 565 99 q 486 19 538 51 q 351 -14 435 -14 q 144 85 224 -14 q 65 378 65 185 q 102 596 65 508 q 205 728 139 683 q 356 772 271 772 q 490 740 439 772 q 574 661 542 708 l 579 661 l 599 758 l 776 758 l 776 -333 l 567 -333 l 567 -15 m 426 151 q 516 173 482 151 q 565 240 550 194 q 579 351 579 285 l 579 381 q 547 549 579 490 q 422 608 514 608 q 315 547 350 608 q 279 375 279 486 q 315 207 279 263 q 426 151 351 151 z "},"r":{"ha":621,"x_min":101,"x_max":604,"o":"m 521 772 q 566 770 542 772 q 604 764 590 768 l 583 568 q 547 574 568 571 q 497 576 526 576 q 433 567 465 576 q 372 535 400 557 q 328 476 344 513 q 311 385 311 440 l 311 0 l 101 0 l 101 758 l 261 758 l 292 631 l 301 631 q 357 703 324 671 q 432 753 390 735 q 521 772 474 772 z "},"s":{"ha":697,"x_min":64,"x_max":639,"o":"m 639 224 q 605 98 639 151 q 501 15 571 44 q 325 -14 432 -14 q 183 -3 244 -14 q 65 31 122 7 l 65 204 q 197 158 126 175 q 319 142 268 142 q 412 160 383 142 q 440 208 440 178 q 426 246 440 229 q 374 281 411 263 q 269 325 338 299 q 156 383 201 353 q 87 454 110 413 q 64 558 64 496 q 147 717 64 663 q 365 772 229 772 q 502 757 439 772 q 631 714 565 742 l 569 571 q 461 610 517 594 q 363 625 406 625 q 289 610 315 625 q 263 569 263 596 q 277 535 263 550 q 328 503 292 519 q 432 460 365 486 q 547 403 500 433 q 616 331 593 374 q 639 224 639 289 z "},"t":{"ha":603,"x_min":32,"x_max":558,"o":"m 428 151 q 494 158 463 151 q 558 175 526 165 l 558 21 q 476 -3 525 7 q 368 -14 426 -14 q 247 8 300 -14 q 162 85 193 31 q 131 238 131 140 l 131 603 l 32 603 l 32 690 l 146 760 l 206 919 l 338 919 l 338 758 l 550 758 l 550 603 l 338 603 l 338 238 q 363 173 338 194 q 428 151 388 151 z "},"u":{"ha":903,"x_min":97,"x_max":800,"o":"m 800 758 l 800 0 l 639 0 l 613 97 l 600 97 q 540 33 576 58 q 459 -3 503 8 q 367 -14 415 -14 q 226 15 286 -14 q 131 106 165 44 q 97 264 97 167 l 97 758 l 308 758 l 308 317 q 337 195 308 236 q 428 154 365 154 q 527 183 492 154 q 576 267 563 211 q 590 403 590 322 l 590 758 l 800 758 z "},"v":{"ha":793,"x_min":0,"x_max":793,"o":"m 289 0 l 0 758 l 219 758 l 361 311 q 373 274 367 296 q 385 228 379 251 q 392 186 390 204 l 397 186 q 404 227 399 204 q 417 272 410 250 q 429 310 424 294 l 574 758 l 793 758 l 504 0 l 289 0 z "},"w":{"ha":1189,"x_min":14,"x_max":1175,"o":"m 674 265 q 658 335 668 289 q 635 435 647 382 q 611 534 622 489 q 596 600 600 579 l 590 600 q 576 534 586 579 q 553 435 565 489 q 529 335 540 382 q 513 263 518 288 l 451 0 l 229 0 l 14 758 l 219 758 l 307 422 q 324 339 317 388 q 339 245 332 290 q 349 174 346 200 l 354 174 q 360 226 356 193 q 370 293 364 258 q 381 356 376 328 q 389 394 386 385 l 482 758 l 710 758 l 799 394 q 812 332 804 375 q 826 244 819 289 q 832 174 832 200 l 838 174 q 847 242 840 197 q 863 338 854 288 q 882 422 872 388 l 972 758 l 1175 758 l 957 0 l 732 0 l 674 265 z "},"x":{"ha":803,"x_min":7,"x_max":796,"o":"m 264 388 l 19 758 l 254 758 l 401 517 l 550 758 l 785 758 l 538 388 l 796 0 l 561 0 l 401 260 l 242 0 l 7 0 l 264 388 z "},"y":{"ha":793,"x_min":0,"x_max":793,"o":"m 0 758 l 221 758 l 364 325 q 377 283 371 304 q 388 239 383 261 q 396 196 393 217 l 401 196 q 416 260 406 225 q 436 325 426 294 l 576 758 l 793 758 l 482 -69 q 409 -213 451 -154 q 306 -303 367 -272 q 154 -333 244 -333 q 93 -330 119 -333 q 49 -322 67 -326 l 49 -157 q 85 -162 64 -160 q 131 -165 107 -165 q 203 -148 174 -165 q 251 -102 232 -131 q 285 -37 271 -74 l 301 6 l 0 758 z "},"z":{"ha":685,"x_min":42,"x_max":642,"o":"m 642 0 l 42 0 l 42 124 l 392 599 l 61 599 l 61 758 l 629 758 l 629 624 l 289 161 l 642 161 l 642 0 z "},"{":{"ha":547,"x_min":21,"x_max":492,"o":"m 492 -219 q 309 -200 374 -219 q 219 -139 244 -181 q 194 -31 194 -97 l 194 183 q 174 254 194 228 q 116 292 154 281 q 21 304 78 304 l 21 467 q 116 478 78 467 q 174 517 154 490 q 194 588 194 544 l 194 803 q 219 911 194 869 q 309 972 244 953 q 492 992 374 992 l 492 839 q 429 831 456 839 q 388 802 403 822 q 374 743 374 782 l 374 540 q 333 439 374 476 q 215 390 293 401 l 215 382 q 333 333 293 371 q 374 232 374 296 l 374 29 q 388 -30 374 -10 q 429 -58 403 -50 q 492 -67 456 -65 l 492 -219 z "},"|":{"ha":765,"x_min":308,"x_max":457,"o":"m 308 1051 l 457 1051 l 457 -315 l 308 -315 l 308 1051 z "},"}":{"ha":547,"x_min":56,"x_max":526,"o":"m 56 -67 q 118 -58 92 -65 q 159 -30 144 -50 q 174 29 174 -10 l 174 232 q 215 333 174 296 q 332 382 256 371 l 332 390 q 215 439 256 401 q 174 540 174 476 l 174 743 q 159 802 174 782 q 118 831 144 822 q 56 839 92 839 l 56 992 q 239 972 175 992 q 328 911 303 953 q 353 803 353 869 l 353 588 q 373 517 353 544 q 432 478 393 490 q 526 467 471 467 l 526 304 q 432 292 471 304 q 373 254 393 281 q 353 183 353 228 l 353 -31 q 328 -139 353 -97 q 239 -200 303 -181 q 56 -219 175 -219 l 56 -67 z "},"~":{"ha":794,"x_min":60,"x_max":733,"o":"m 372 418 q 285 448 321 440 q 218 456 250 456 q 137 432 179 456 q 60 374 94 408 l 60 531 q 138 585 94 567 q 233 604 182 604 q 315 597 274 604 q 421 561 356 589 q 508 531 472 539 q 575 524 544 524 q 657 547 615 524 q 733 606 699 571 l 733 449 q 656 394 699 413 q 560 375 613 375 q 478 383 519 375 q 372 418 438 392 z "}," ":{"ha":361,"x_min":0,"x_max":0,"o":""},"¡":{"ha":397,"x_min":79,"x_max":317,"o":"m 114 411 l 279 411 l 314 -250 l 79 -250 l 114 411 m 317 643 q 282 553 317 579 q 197 528 247 528 q 115 553 150 528 q 79 643 79 579 q 115 731 79 704 q 197 758 150 758 q 282 731 247 758 q 317 643 317 704 z "},"¢":{"ha":794,"x_min":97,"x_max":706,"o":"m 503 899 q 617 882 568 896 q 706 849 667 868 l 644 689 q 553 721 596 708 q 469 733 511 733 q 380 708 415 733 q 326 631 344 682 q 308 504 308 581 q 327 380 308 429 q 382 306 346 331 q 469 282 418 282 q 581 296 535 282 q 682 333 628 310 l 682 161 q 595 128 639 140 q 503 114 551 117 l 503 -14 l 382 -14 l 382 119 q 229 176 293 132 q 131 302 165 221 q 97 503 97 383 q 133 715 97 633 q 233 838 168 796 q 382 893 297 881 l 382 1006 l 503 1006 l 503 899 z "},"£":{"ha":794,"x_min":56,"x_max":767,"o":"m 475 1006 q 617 990 550 1006 q 739 950 685 974 l 676 794 q 582 826 629 814 q 492 838 535 838 q 415 812 447 838 q 382 721 382 786 l 382 590 l 636 590 l 636 442 l 382 442 l 382 344 q 367 263 382 296 q 328 209 351 229 q 279 176 304 189 l 767 176 l 767 0 l 56 0 l 56 168 q 122 205 94 185 q 163 258 149 225 q 178 343 178 290 l 178 442 l 57 442 l 57 590 l 178 590 l 178 722 q 218 887 178 825 q 326 977 258 949 q 475 1006 393 1006 z "},"¤":{"ha":789,"x_min":72,"x_max":713,"o":"m 124 490 q 133 560 124 526 q 160 622 143 594 l 72 708 l 172 810 l 260 724 q 323 750 288 740 q 392 760 358 760 q 460 750 428 760 q 524 722 493 740 l 610 810 l 713 713 l 625 624 q 651 561 642 596 q 661 490 661 526 q 652 419 661 453 q 625 357 643 386 l 710 272 l 610 172 l 524 257 q 462 232 496 242 q 392 222 428 222 q 322 231 356 222 q 258 256 288 239 l 172 174 l 74 274 l 160 358 q 133 421 142 388 q 124 490 124 454 m 265 490 q 282 427 265 456 q 328 381 299 399 q 392 364 357 364 q 456 381 428 364 q 503 427 485 399 q 521 490 521 456 q 503 555 521 526 q 456 601 485 583 q 392 618 428 618 q 328 601 357 618 q 282 555 299 583 q 265 490 265 526 z "},"¥":{"ha":794,"x_min":4,"x_max":788,"o":"m 396 583 l 575 992 l 788 992 l 528 485 l 660 485 l 660 364 l 493 364 l 493 271 l 660 271 l 660 150 l 493 150 l 493 0 l 299 0 l 299 150 l 131 150 l 131 271 l 299 271 l 299 364 l 131 364 l 131 485 l 260 485 l 4 992 l 218 992 l 396 583 z "},"¦":{"ha":765,"x_min":308,"x_max":457,"o":"m 308 1051 l 457 1051 l 457 499 l 308 499 l 308 1051 m 308 238 l 457 238 l 457 -315 l 308 -315 l 308 238 z "},"§":{"ha":675,"x_min":72,"x_max":607,"o":"m 82 543 q 109 644 82 603 q 172 711 136 686 q 106 778 129 739 q 82 868 82 817 q 158 1009 82 956 q 357 1063 233 1063 q 486 1047 426 1063 q 603 1006 546 1031 l 547 876 q 453 916 501 899 q 353 933 406 933 q 272 918 297 933 q 247 871 247 903 q 263 831 247 849 q 310 796 278 813 q 392 758 342 779 q 505 701 457 733 q 580 626 553 668 q 607 529 607 585 q 583 420 607 461 q 522 354 560 379 q 585 292 564 328 q 607 206 607 256 q 526 46 607 106 q 308 -14 446 -14 q 177 0 235 -14 q 72 40 119 14 l 72 181 q 149 147 108 163 q 232 123 190 132 q 308 114 274 114 q 413 137 385 114 q 440 193 440 160 q 430 233 440 217 q 390 267 419 250 q 300 310 360 285 q 182 369 231 339 q 108 440 133 399 q 82 543 82 482 m 233 558 q 250 507 233 531 q 302 462 267 483 q 390 418 338 440 l 400 414 q 436 453 419 429 q 453 511 453 476 q 440 563 453 539 q 392 608 426 586 q 294 651 358 629 q 252 617 271 642 q 233 558 233 593 z "},"¨":{"ha":824,"x_min":174,"x_max":665,"o":"m 174 953 q 201 1024 174 1001 q 269 1046 229 1046 q 337 1024 308 1046 q 365 953 365 1001 q 337 885 365 907 q 269 863 308 863 q 201 885 229 863 q 174 953 174 907 m 474 953 q 501 1024 474 1001 q 569 1046 528 1046 q 637 1024 608 1046 q 665 953 665 1001 q 637 885 665 907 q 569 863 608 863 q 501 885 528 863 q 474 953 474 907 z "},"©":{"ha":1156,"x_min":68,"x_max":1088,"o":"m 599 178 q 387 265 457 178 q 317 496 317 353 q 350 660 317 589 q 447 773 383 732 q 604 814 511 814 q 692 803 647 814 q 775 772 736 792 l 735 679 q 667 706 700 697 q 606 715 635 715 q 478 657 524 715 q 433 496 433 599 q 473 333 433 390 q 604 275 513 275 q 676 284 636 275 q 750 307 715 293 l 750 211 q 682 188 717 197 q 599 178 647 178 m 578 -14 q 374 24 467 -14 q 212 130 281 61 q 106 292 143 199 q 68 496 68 385 q 106 694 68 601 q 214 856 144 786 q 376 966 283 926 q 578 1006 469 1006 q 776 968 683 1006 q 938 862 868 931 q 1048 700 1008 793 q 1088 496 1088 607 q 1050 292 1088 385 q 944 130 1013 199 q 782 24 875 61 q 578 -14 689 -14 m 578 75 q 738 106 664 75 q 869 194 813 138 q 958 327 926 250 q 990 496 990 404 q 959 660 990 583 q 872 794 928 736 q 741 885 817 853 q 578 918 665 918 q 413 887 489 918 q 281 799 338 856 q 194 665 225 743 q 163 496 163 588 q 193 327 163 404 q 279 194 224 250 q 410 106 335 138 q 578 75 486 75 z "},"ª":{"ha":529,"x_min":38,"x_max":471,"o":"m 276 1003 q 419 958 367 1003 q 471 822 471 914 l 471 518 l 378 518 l 353 593 q 285 531 324 553 q 190 510 247 510 q 111 526 146 510 q 57 576 76 542 q 38 661 38 610 q 63 748 38 715 q 140 797 89 781 q 265 815 192 813 l 332 818 l 332 832 q 310 881 332 867 q 251 896 289 896 q 181 886 214 896 q 110 858 149 876 l 67 954 q 160 990 111 976 q 276 1003 208 1003 m 272 733 q 195 712 214 731 q 176 667 176 693 q 192 626 176 639 q 235 613 207 613 q 308 642 285 613 q 332 715 332 672 l 332 738 l 272 733 z "},"«":{"ha":853,"x_min":53,"x_max":800,"o":"m 53 389 l 304 699 l 454 617 l 265 381 l 454 144 l 304 64 l 53 371 l 53 389 m 397 389 l 650 699 l 800 617 l 611 381 l 800 144 l 650 64 l 397 371 l 397 389 z "},"¬":{"ha":794,"x_min":60,"x_max":733,"o":"m 733 564 l 733 168 l 585 168 l 585 415 l 60 415 l 60 564 l 733 564 z "},"­":{"ha":444,"x_min":39,"x_max":404,"o":"m 39 286 l 39 458 l 404 458 l 404 286 l 39 286 z "},"®":{"ha":1156,"x_min":68,"x_max":1088,"o":"m 381 192 l 381 806 l 565 806 q 732 758 679 806 q 785 619 785 710 q 751 516 785 554 q 676 461 718 478 l 838 192 l 711 192 l 579 425 l 493 425 l 493 192 l 381 192 m 563 518 q 644 546 617 518 q 671 617 671 574 q 647 688 671 665 q 561 710 622 710 l 493 710 l 493 518 l 563 518 m 578 -14 q 374 24 467 -14 q 212 130 281 61 q 106 292 143 199 q 68 496 68 385 q 106 694 68 601 q 214 856 144 786 q 376 966 283 926 q 578 1006 469 1006 q 776 968 683 1006 q 938 862 868 931 q 1048 700 1008 793 q 1088 496 1088 607 q 1050 292 1088 385 q 944 130 1013 199 q 782 24 875 61 q 578 -14 689 -14 m 578 75 q 738 106 664 75 q 869 194 813 138 q 958 327 926 250 q 990 496 990 404 q 959 660 990 583 q 872 794 928 736 q 741 885 817 853 q 578 918 665 918 q 413 887 489 918 q 281 799 338 856 q 194 665 225 743 q 163 496 163 588 q 193 327 163 404 q 279 194 224 250 q 410 106 335 138 q 578 75 486 75 z "},"¯":{"ha":694,"x_min":-4,"x_max":699,"o":"m 699 1056 l -4 1056 l -4 1193 l 699 1193 l 699 1056 z "},"°":{"ha":589,"x_min":56,"x_max":533,"o":"m 294 536 q 171 566 225 536 q 86 649 117 596 q 56 769 56 701 q 86 892 56 839 q 170 975 117 944 q 294 1006 224 1006 q 419 975 365 1006 q 503 892 472 944 q 533 769 533 839 q 503 649 533 701 q 419 566 472 596 q 294 536 365 536 m 296 667 q 373 695 346 667 q 400 769 400 724 q 372 847 400 818 q 296 876 344 876 q 217 847 244 876 q 189 769 189 818 q 217 695 189 724 q 296 667 244 667 z "},"±":{"ha":794,"x_min":60,"x_max":733,"o":"m 60 0 l 60 149 l 733 149 l 733 0 l 60 0 m 471 606 l 733 606 l 733 457 l 471 457 l 471 196 l 322 196 l 322 457 l 60 457 l 60 606 l 322 606 l 322 869 l 471 869 l 471 606 z "},"²":{"ha":526,"x_min":32,"x_max":476,"o":"m 476 578 l 38 578 l 38 692 l 189 840 q 254 908 231 881 q 288 957 278 935 q 297 1003 297 979 q 281 1042 297 1028 q 238 1056 265 1056 q 181 1042 211 1056 q 115 996 151 1028 l 32 1099 q 131 1162 76 1138 q 260 1186 186 1186 q 405 1142 350 1186 q 460 1017 460 1099 q 444 940 460 975 q 396 866 429 904 q 308 778 363 828 l 238 714 l 476 714 l 476 578 z "},"³":{"ha":528,"x_min":36,"x_max":486,"o":"m 257 1185 q 413 1143 358 1185 q 467 1036 467 1101 q 440 947 467 983 q 360 890 413 910 l 360 885 q 453 835 421 871 q 486 743 486 800 q 422 614 486 661 q 238 567 358 567 q 130 577 181 567 q 38 611 79 588 l 38 742 q 133 701 83 714 q 232 689 183 689 q 308 706 282 689 q 335 758 335 724 q 310 807 335 789 q 219 825 285 825 l 146 825 l 146 936 l 210 936 q 295 956 271 936 q 319 1006 319 975 q 300 1050 319 1033 q 243 1067 281 1067 q 174 1054 206 1067 q 104 1015 142 1042 l 36 1111 q 133 1164 79 1143 q 257 1185 188 1185 z "},"´":{"ha":507,"x_min":56,"x_max":451,"o":"m 451 1050 q 399 1002 431 1031 q 329 944 367 974 q 256 887 292 914 q 194 842 221 860 l 56 842 l 56 860 q 108 922 78 886 q 167 996 138 958 q 217 1064 197 1033 l 451 1064 l 451 1050 z "},"µ":{"ha":907,"x_min":101,"x_max":804,"o":"m 804 758 l 804 0 l 646 0 l 615 101 l 606 101 q 562 38 588 64 q 503 -1 536 11 q 431 -14 469 -14 q 359 1 388 -14 q 307 46 331 17 l 304 46 q 309 -26 307 18 q 311 -117 311 -71 l 311 -333 l 101 -333 l 101 758 l 311 758 l 311 317 q 342 195 311 236 q 436 154 372 154 q 531 183 497 154 q 580 267 565 211 q 594 403 594 322 l 594 758 l 804 758 z "},"¶":{"ha":900,"x_min":72,"x_max":788,"o":"m 788 -176 l 678 -176 l 678 931 l 557 931 l 557 -176 l 447 -176 l 447 379 q 405 370 426 374 q 357 367 383 367 q 207 399 271 367 q 108 506 143 431 q 72 707 72 581 q 110 916 72 840 q 218 1024 149 992 q 378 1056 288 1056 l 788 1056 l 788 -176 z "},"·":{"ha":390,"x_min":75,"x_max":315,"o":"m 75 490 q 110 581 75 556 q 196 607 146 607 q 280 581 244 607 q 315 490 315 556 q 280 402 315 429 q 196 375 244 375 q 110 402 146 375 q 75 490 75 429 z "},"¸":{"ha":365,"x_min":26,"x_max":339,"o":"m 339 -179 q 288 -292 339 -250 q 144 -333 236 -333 q 77 -328 108 -333 q 26 -317 46 -324 l 26 -207 q 67 -216 46 -212 q 110 -219 89 -219 q 165 -208 146 -219 q 183 -171 183 -196 q 156 -128 183 -143 q 75 -104 128 -112 l 124 0 l 235 0 l 214 -54 q 272 -74 243 -60 q 320 -114 301 -89 q 339 -179 339 -139 z "},"¹":{"ha":528,"x_min":44,"x_max":385,"o":"m 385 1172 l 385 578 l 229 578 l 229 875 q 231 920 229 893 q 233 973 232 947 q 236 1013 235 999 q 213 986 228 1000 q 185 963 199 972 l 122 913 l 44 1008 l 254 1172 l 385 1172 z "},"º":{"ha":536,"x_min":38,"x_max":500,"o":"m 500 756 q 437 574 500 639 q 267 510 374 510 q 102 574 167 510 q 38 756 38 639 q 99 939 38 875 q 269 1003 161 1003 q 388 974 336 1003 q 469 890 439 944 q 500 756 500 835 m 176 756 q 199 656 176 689 q 268 622 221 622 q 337 656 315 622 q 358 756 358 689 q 337 858 358 824 q 268 892 315 892 q 199 858 221 892 q 176 756 176 824 z "},"»":{"ha":853,"x_min":53,"x_max":800,"o":"m 800 371 l 549 64 l 397 144 l 586 381 l 397 617 l 549 699 l 800 389 l 800 371 m 454 371 l 203 64 l 53 144 l 242 381 l 53 617 l 203 699 l 454 389 l 454 371 z "},"¼":{"ha":1153,"x_min":31,"x_max":1140,"o":"m 217 0 l 767 992 l 929 992 l 379 0 l 217 0 m 203 700 q 203 747 203 718 q 206 803 204 776 q 208 840 207 831 q 184 813 200 829 q 157 788 168 797 l 104 746 l 31 832 l 235 992 l 364 992 l 364 397 l 203 397 l 203 700 m 894 0 l 894 103 l 635 103 l 635 207 l 896 599 l 1056 599 l 1056 217 l 1140 217 l 1140 103 l 1056 103 l 1056 0 l 894 0 m 760 217 l 894 217 l 894 328 q 896 388 894 356 q 899 453 897 419 q 875 400 892 435 q 846 346 858 365 l 760 217 z "},"½":{"ha":1214,"x_min":31,"x_max":1164,"o":"m 217 0 l 767 992 l 929 992 l 379 0 l 217 0 m 203 700 q 203 734 203 714 q 205 776 204 754 q 206 815 206 797 q 208 840 207 832 q 184 813 200 829 q 157 788 168 797 l 104 746 l 31 832 l 235 992 l 364 992 l 364 397 l 203 397 l 203 700 m 725 0 l 725 114 l 876 263 q 942 330 918 303 q 975 379 965 357 q 985 425 985 401 q 969 464 985 450 q 925 478 953 478 q 869 464 899 478 q 803 418 839 450 l 719 521 q 819 584 764 560 q 947 608 874 608 q 1092 565 1038 608 q 1147 439 1147 521 q 1132 362 1147 397 q 1083 288 1117 326 q 996 200 1050 250 l 925 136 l 1164 136 l 1164 0 l 725 0 z "},"¾":{"ha":1174,"x_min":61,"x_max":1161,"o":"m 265 0 l 815 992 l 978 992 l 428 0 l 265 0 m 246 386 q 150 398 194 386 q 61 433 106 410 l 61 563 q 151 519 106 536 q 244 501 196 501 q 318 520 294 501 q 342 574 342 539 q 318 624 342 601 q 229 646 294 646 l 153 646 l 153 754 l 215 754 q 306 777 286 754 q 326 828 326 800 q 310 871 326 854 q 258 888 293 888 q 198 875 226 888 q 131 835 169 863 l 63 931 q 156 983 104 963 q 276 1004 207 1004 q 417 962 361 1004 q 472 847 472 919 q 445 766 472 800 q 357 713 418 732 l 357 704 q 459 651 426 690 q 492 563 492 611 q 432 433 492 481 q 246 386 372 386 m 915 0 l 915 103 l 656 103 l 656 207 l 917 599 l 1076 599 l 1076 217 l 1161 217 l 1161 103 l 1076 103 l 1076 0 l 915 0 m 781 217 l 915 217 l 915 328 q 917 388 915 356 q 919 453 918 419 q 896 400 913 435 q 867 346 879 365 l 781 217 z "},"¿":{"ha":663,"x_min":28,"x_max":656,"o":"m 464 382 q 453 301 464 338 q 417 233 443 265 q 343 168 390 201 q 269 107 294 132 q 235 60 243 82 q 226 10 226 38 q 259 -58 226 -33 q 349 -82 292 -82 q 464 -63 407 -82 q 581 -15 521 -44 l 656 -165 q 508 -226 588 -203 q 333 -250 429 -250 q 108 -183 188 -250 q 28 -6 28 -117 q 46 97 28 53 q 100 178 64 140 q 190 254 136 217 q 258 308 235 286 q 290 353 281 331 q 299 403 299 375 l 299 432 l 464 432 l 464 382 m 494 657 q 460 567 494 593 q 374 542 425 542 q 290 567 325 542 q 254 657 254 593 q 290 746 254 719 q 374 772 325 772 q 460 746 425 772 q 494 657 494 719 z "},"À":{"ha":961,"x_min":0,"x_max":961,"o":"m 732 0 l 656 233 l 306 233 l 229 0 l 0 0 l 349 996 l 610 996 l 961 0 l 732 0 m 538 626 q 520 689 532 647 q 497 774 508 731 q 479 846 486 818 q 463 772 474 814 q 443 692 453 731 q 426 626 433 653 l 356 411 l 607 411 l 538 626 m 501 1297 q 551 1229 522 1267 q 610 1156 579 1192 q 663 1093 640 1119 l 663 1075 l 522 1075 q 460 1120 496 1093 q 388 1177 425 1147 q 319 1235 351 1207 q 267 1283 286 1264 l 267 1297 l 501 1297 z "},"Á":{"ha":961,"x_min":0,"x_max":961,"o":"m 732 0 l 656 233 l 306 233 l 229 0 l 0 0 l 349 996 l 610 996 l 961 0 l 732 0 m 538 626 q 520 689 532 647 q 497 774 508 731 q 479 846 486 818 q 463 772 474 814 q 443 692 453 731 q 426 626 433 653 l 356 411 l 607 411 l 538 626 m 763 1283 q 710 1235 742 1264 q 640 1177 678 1207 q 567 1120 603 1147 q 506 1075 532 1093 l 367 1075 l 367 1093 q 419 1156 389 1119 q 478 1229 449 1192 q 528 1297 508 1267 l 763 1297 l 763 1283 z "},"Â":{"ha":961,"x_min":0,"x_max":961,"o":"m 732 0 l 656 233 l 306 233 l 229 0 l 0 0 l 349 996 l 610 996 l 961 0 l 732 0 m 538 626 q 520 689 532 647 q 497 774 508 731 q 479 846 486 818 q 463 772 474 814 q 443 692 453 731 q 426 626 433 653 l 356 411 l 607 411 l 538 626 m 586 1297 q 637 1227 606 1265 q 701 1153 668 1189 q 760 1093 735 1118 l 760 1075 l 621 1075 q 550 1124 585 1096 q 479 1186 515 1153 q 410 1126 443 1153 q 340 1075 376 1099 l 201 1075 l 201 1093 q 260 1155 228 1119 q 324 1228 293 1190 q 375 1297 356 1265 l 586 1297 z "},"Ã":{"ha":961,"x_min":0,"x_max":961,"o":"m 732 0 l 656 233 l 306 233 l 229 0 l 0 0 l 349 996 l 610 996 l 961 0 l 732 0 m 538 626 q 520 689 532 647 q 497 774 508 731 q 479 846 486 818 q 463 772 474 814 q 443 692 453 731 q 426 626 433 653 l 356 411 l 607 411 l 538 626 m 207 1074 q 227 1167 211 1128 q 268 1233 243 1207 q 324 1271 293 1258 q 392 1283 356 1283 q 447 1273 419 1283 q 499 1248 474 1263 q 550 1223 525 1233 q 600 1213 575 1213 q 640 1231 621 1213 q 668 1285 660 1249 l 769 1285 q 708 1126 761 1178 q 585 1075 656 1075 q 531 1085 557 1075 q 478 1110 504 1096 q 426 1135 451 1125 q 376 1146 401 1146 q 336 1128 356 1146 q 308 1074 317 1110 l 207 1074 z "},"Ä":{"ha":961,"x_min":0,"x_max":961,"o":"m 732 0 l 656 233 l 306 233 l 229 0 l 0 0 l 349 996 l 610 996 l 961 0 l 732 0 m 538 626 q 520 689 532 647 q 497 774 508 731 q 479 846 486 818 q 463 772 474 814 q 443 692 453 731 q 426 626 433 653 l 356 411 l 607 411 l 538 626 m 235 1186 q 263 1257 235 1235 q 331 1279 290 1279 q 398 1257 369 1279 q 426 1186 426 1235 q 398 1118 426 1140 q 331 1096 369 1096 q 263 1118 290 1096 q 235 1186 235 1140 m 535 1186 q 562 1257 535 1235 q 631 1279 589 1279 q 698 1257 669 1279 q 726 1186 726 1235 q 698 1118 726 1140 q 631 1096 669 1096 q 562 1118 589 1096 q 535 1186 535 1140 z "},"Å":{"ha":961,"x_min":0,"x_max":961,"o":"m 732 0 l 656 233 l 306 233 l 229 0 l 0 0 l 349 996 l 610 996 l 961 0 l 732 0 m 538 626 q 520 689 532 647 q 497 774 508 731 q 479 846 486 818 q 463 772 474 814 q 443 692 453 731 q 426 626 433 653 l 356 411 l 607 411 l 538 626 m 476 900 q 355 943 401 900 q 308 1061 308 986 q 355 1181 308 1138 q 476 1224 401 1224 q 599 1181 549 1224 q 650 1063 650 1138 q 600 943 650 986 q 476 900 550 900 m 476 996 q 523 1014 504 996 q 542 1061 542 1032 q 523 1109 542 1092 q 476 1126 504 1126 q 430 1109 449 1126 q 411 1061 411 1092 q 428 1014 411 1032 q 476 996 444 996 z "},"Æ":{"ha":1322,"x_min":0,"x_max":1240,"o":"m 1240 0 l 649 0 l 649 236 l 315 236 l 214 0 l 0 0 l 444 992 l 1240 992 l 1240 819 l 858 819 l 858 601 l 1215 601 l 1215 429 l 858 429 l 858 174 l 1240 174 l 1240 0 m 392 413 l 649 413 l 649 813 l 563 813 l 392 413 z "},"Ç":{"ha":892,"x_min":76,"x_max":849,"o":"m 553 829 q 445 806 493 829 q 364 740 397 783 q 313 634 331 696 q 296 493 296 572 q 325 315 296 389 q 413 201 354 240 q 561 163 472 163 q 687 178 626 163 q 808 217 747 193 l 808 36 q 681 -2 746 10 q 538 -14 617 -14 q 277 49 379 -14 q 126 228 175 113 q 76 494 76 343 q 108 701 76 607 q 200 863 139 794 q 350 968 261 931 q 556 1006 439 1006 q 705 990 629 1006 q 849 940 781 974 l 779 771 q 673 812 729 794 q 553 829 617 829 m 675 -179 q 624 -292 675 -250 q 481 -333 572 -333 q 413 -328 444 -333 q 363 -317 382 -324 l 363 -207 q 403 -216 382 -212 q 446 -219 425 -219 q 501 -208 482 -219 q 519 -171 519 -196 q 492 -128 519 -143 q 411 -104 464 -112 l 460 0 l 571 0 l 550 -54 q 608 -74 579 -60 q 656 -114 638 -89 q 675 -179 675 -139 z "},"È":{"ha":778,"x_min":125,"x_max":696,"o":"m 696 0 l 125 0 l 125 992 l 696 992 l 696 819 l 335 819 l 335 601 l 671 601 l 671 429 l 335 429 l 335 174 l 696 174 l 696 0 m 397 1297 q 447 1229 418 1267 q 506 1156 475 1192 q 558 1093 536 1119 l 558 1075 l 418 1075 q 356 1120 392 1093 q 284 1177 321 1147 q 215 1235 247 1207 q 163 1283 182 1264 l 163 1297 l 397 1297 z "},"É":{"ha":778,"x_min":125,"x_max":696,"o":"m 696 0 l 125 0 l 125 992 l 696 992 l 696 819 l 335 819 l 335 601 l 671 601 l 671 429 l 335 429 l 335 174 l 696 174 l 696 0 m 667 1283 q 614 1235 646 1264 q 544 1177 582 1207 q 472 1120 507 1147 q 410 1075 436 1093 l 271 1075 l 271 1093 q 323 1156 293 1119 q 383 1229 353 1192 q 432 1297 413 1267 l 667 1297 l 667 1283 z "},"Ê":{"ha":778,"x_min":125,"x_max":696,"o":"m 696 0 l 125 0 l 125 992 l 696 992 l 696 819 l 335 819 l 335 601 l 671 601 l 671 429 l 335 429 l 335 174 l 696 174 l 696 0 m 518 1297 q 569 1227 538 1265 q 633 1153 600 1189 q 692 1093 667 1118 l 692 1075 l 553 1075 q 482 1124 517 1096 q 411 1186 447 1153 q 342 1126 375 1153 q 272 1075 308 1099 l 133 1075 l 133 1093 q 192 1155 160 1119 q 256 1228 225 1190 q 307 1297 288 1265 l 518 1297 z "},"Ë":{"ha":778,"x_min":125,"x_max":696,"o":"m 696 0 l 125 0 l 125 992 l 696 992 l 696 819 l 335 819 l 335 601 l 671 601 l 671 429 l 335 429 l 335 174 l 696 174 l 696 0 m 169 1186 q 197 1257 169 1235 q 265 1279 225 1279 q 333 1257 304 1279 q 361 1186 361 1235 q 333 1118 361 1140 q 265 1096 304 1096 q 197 1118 225 1096 q 169 1186 169 1140 m 469 1186 q 497 1257 469 1235 q 565 1279 524 1279 q 633 1257 604 1279 q 661 1186 661 1235 q 633 1118 661 1140 q 565 1096 604 1096 q 497 1118 524 1096 q 469 1186 469 1140 z "},"Ì":{"ha":540,"x_min":15,"x_max":496,"o":"m 496 0 l 44 0 l 44 119 l 165 175 l 165 817 l 44 872 l 44 992 l 496 992 l 496 872 l 375 817 l 375 175 l 496 119 l 496 0 m 250 1297 q 299 1229 271 1267 q 358 1156 328 1192 q 411 1093 389 1119 l 411 1075 l 271 1075 q 209 1120 244 1093 q 137 1177 174 1147 q 67 1235 100 1207 q 15 1283 35 1264 l 15 1297 l 250 1297 z "},"Í":{"ha":540,"x_min":44,"x_max":519,"o":"m 496 0 l 44 0 l 44 119 l 165 175 l 165 817 l 44 872 l 44 992 l 496 992 l 496 872 l 375 817 l 375 175 l 496 119 l 496 0 m 519 1283 q 467 1235 499 1264 q 397 1177 435 1207 q 324 1120 360 1147 q 263 1075 289 1093 l 124 1075 l 124 1093 q 176 1156 146 1119 q 235 1229 206 1192 q 285 1297 265 1267 l 519 1297 l 519 1283 z "},"Î":{"ha":540,"x_min":-14,"x_max":544,"o":"m 496 0 l 44 0 l 44 119 l 165 175 l 165 817 l 44 872 l 44 992 l 496 992 l 496 872 l 375 817 l 375 175 l 496 119 l 496 0 m 371 1297 q 422 1227 390 1265 q 486 1153 453 1189 q 544 1093 519 1118 l 544 1075 l 406 1075 q 335 1124 369 1096 q 264 1186 300 1153 q 194 1126 228 1153 q 125 1075 161 1099 l -14 1075 l -14 1093 q 45 1155 13 1119 q 109 1228 78 1190 q 160 1297 140 1265 l 371 1297 z "},"Ï":{"ha":540,"x_min":22,"x_max":514,"o":"m 496 0 l 44 0 l 44 119 l 165 175 l 165 817 l 44 872 l 44 992 l 496 992 l 496 872 l 375 817 l 375 175 l 496 119 l 496 0 m 22 1186 q 50 1257 22 1235 q 118 1279 78 1279 q 185 1257 157 1279 q 214 1186 214 1235 q 185 1118 214 1140 q 118 1096 157 1096 q 50 1118 78 1096 q 22 1186 22 1140 m 322 1186 q 349 1257 322 1235 q 418 1279 376 1279 q 485 1257 457 1279 q 514 1186 514 1235 q 485 1118 514 1140 q 418 1096 457 1096 q 349 1118 376 1096 q 322 1186 322 1140 z "},"Ð":{"ha":1017,"x_min":29,"x_max":942,"o":"m 446 992 q 712 937 601 992 q 882 775 822 882 q 942 513 942 668 q 878 228 942 342 q 697 57 814 114 q 421 0 581 0 l 122 0 l 122 403 l 29 403 l 29 578 l 122 578 l 122 992 l 446 992 m 440 818 l 333 818 l 333 578 l 518 578 l 518 403 l 333 403 l 333 175 l 419 175 q 646 257 572 175 q 719 504 719 339 q 688 681 719 611 q 594 784 656 750 q 440 818 532 818 z "},"Ñ":{"ha":1118,"x_min":125,"x_max":1004,"o":"m 1004 0 l 738 0 l 306 750 l 300 750 q 305 656 303 703 q 309 561 307 608 q 313 467 311 514 l 313 0 l 125 0 l 125 992 l 390 992 l 821 249 l 825 249 q 822 340 824 294 q 819 431 821 386 q 815 522 817 476 l 815 992 l 1004 992 l 1004 0 m 286 1074 q 306 1167 290 1128 q 347 1233 322 1207 q 403 1271 372 1258 q 471 1283 435 1283 q 526 1273 499 1283 q 578 1248 553 1263 q 629 1223 604 1233 q 679 1213 654 1213 q 719 1231 700 1213 q 747 1285 739 1249 l 849 1285 q 788 1126 840 1178 q 664 1075 735 1075 q 610 1085 636 1075 q 557 1110 583 1096 q 506 1135 531 1125 q 456 1146 481 1146 q 415 1128 435 1146 q 388 1074 396 1110 l 286 1074 z "},"Ò":{"ha":1099,"x_min":76,"x_max":1021,"o":"m 1021 497 q 992 288 1021 382 q 906 126 964 194 q 760 22 849 58 q 549 -14 671 -14 q 338 22 428 -14 q 191 126 249 58 q 105 288 133 194 q 76 499 76 382 q 127 767 76 653 q 283 944 178 881 q 550 1007 388 1007 q 816 944 711 1007 q 971 766 921 881 q 1021 497 1021 651 m 300 497 q 326 319 300 394 q 407 205 351 244 q 549 165 463 165 q 692 205 638 165 q 772 319 747 244 q 797 497 797 394 q 740 742 797 653 q 550 831 683 831 q 407 790 463 831 q 326 676 351 750 q 300 497 300 601 m 571 1297 q 620 1229 592 1267 q 679 1156 649 1192 q 732 1093 710 1119 l 732 1075 l 592 1075 q 530 1120 565 1093 q 458 1177 494 1147 q 388 1235 421 1207 q 336 1283 356 1264 l 336 1297 l 571 1297 z "},"Ó":{"ha":1099,"x_min":76,"x_max":1021,"o":"m 1021 497 q 992 288 1021 382 q 906 126 964 194 q 760 22 849 58 q 549 -14 671 -14 q 338 22 428 -14 q 191 126 249 58 q 105 288 133 194 q 76 499 76 382 q 127 767 76 653 q 283 944 178 881 q 550 1007 388 1007 q 816 944 711 1007 q 971 766 921 881 q 1021 497 1021 651 m 300 497 q 326 319 300 394 q 407 205 351 244 q 549 165 463 165 q 692 205 638 165 q 772 319 747 244 q 797 497 797 394 q 740 742 797 653 q 550 831 683 831 q 407 790 463 831 q 326 676 351 750 q 300 497 300 601 m 833 1283 q 781 1235 813 1264 q 711 1177 749 1207 q 638 1120 674 1147 q 576 1075 603 1093 l 438 1075 l 438 1093 q 490 1156 460 1119 q 549 1229 519 1192 q 599 1297 579 1267 l 833 1297 l 833 1283 z "},"Ô":{"ha":1099,"x_min":76,"x_max":1021,"o":"m 1021 497 q 992 288 1021 382 q 906 126 964 194 q 760 22 849 58 q 549 -14 671 -14 q 338 22 428 -14 q 191 126 249 58 q 105 288 133 194 q 76 499 76 382 q 127 767 76 653 q 283 944 178 881 q 550 1007 388 1007 q 816 944 711 1007 q 971 766 921 881 q 1021 497 1021 651 m 300 497 q 326 319 300 394 q 407 205 351 244 q 549 165 463 165 q 692 205 638 165 q 772 319 747 244 q 797 497 797 394 q 740 742 797 653 q 550 831 683 831 q 407 790 463 831 q 326 676 351 750 q 300 497 300 601 m 656 1297 q 706 1227 675 1265 q 771 1153 738 1189 q 829 1093 804 1118 l 829 1075 l 690 1075 q 619 1124 654 1096 q 549 1186 585 1153 q 479 1126 513 1153 q 410 1075 446 1099 l 271 1075 l 271 1093 q 330 1155 297 1119 q 394 1228 363 1190 q 444 1297 425 1265 l 656 1297 z "},"Õ":{"ha":1099,"x_min":76,"x_max":1021,"o":"m 1021 497 q 992 288 1021 382 q 906 126 964 194 q 760 22 849 58 q 549 -14 671 -14 q 338 22 428 -14 q 191 126 249 58 q 105 288 133 194 q 76 499 76 382 q 127 767 76 653 q 283 944 178 881 q 550 1007 388 1007 q 816 944 711 1007 q 971 766 921 881 q 1021 497 1021 651 m 300 497 q 326 319 300 394 q 407 205 351 244 q 549 165 463 165 q 692 205 638 165 q 772 319 747 244 q 797 497 797 394 q 740 742 797 653 q 550 831 683 831 q 407 790 463 831 q 326 676 351 750 q 300 497 300 601 m 276 1074 q 297 1167 281 1128 q 338 1233 313 1207 q 394 1271 363 1258 q 461 1283 425 1283 q 516 1273 489 1283 q 569 1248 543 1263 q 619 1223 594 1233 q 669 1213 644 1213 q 710 1231 690 1213 q 738 1285 729 1249 l 839 1285 q 778 1126 831 1178 q 654 1075 725 1075 q 600 1085 626 1075 q 547 1110 574 1096 q 496 1135 521 1125 q 446 1146 471 1146 q 406 1128 425 1146 q 378 1074 386 1110 l 276 1074 z "},"Ö":{"ha":1099,"x_min":76,"x_max":1021,"o":"m 1021 497 q 992 288 1021 382 q 906 126 964 194 q 760 22 849 58 q 549 -14 671 -14 q 338 22 428 -14 q 191 126 249 58 q 105 288 133 194 q 76 499 76 382 q 127 767 76 653 q 283 944 178 881 q 550 1007 388 1007 q 816 944 711 1007 q 971 766 921 881 q 1021 497 1021 651 m 300 497 q 326 319 300 394 q 407 205 351 244 q 549 165 463 165 q 692 205 638 165 q 772 319 747 244 q 797 497 797 394 q 740 742 797 653 q 550 831 683 831 q 407 790 463 831 q 326 676 351 750 q 300 497 300 601 m 304 1186 q 332 1257 304 1235 q 400 1279 360 1279 q 467 1257 439 1279 q 496 1186 496 1235 q 467 1118 496 1140 q 400 1096 439 1096 q 332 1118 360 1096 q 304 1186 304 1140 m 604 1186 q 631 1257 604 1235 q 700 1279 658 1279 q 767 1257 739 1279 q 796 1186 796 1235 q 767 1118 796 1140 q 700 1096 739 1096 q 631 1118 658 1096 q 604 1186 604 1140 z "},"×":{"ha":794,"x_min":88,"x_max":706,"o":"m 601 799 l 706 697 l 499 490 l 703 285 l 601 182 l 394 386 l 190 183 l 89 286 l 290 490 l 88 694 l 190 799 l 394 596 l 601 799 z "},"Ø":{"ha":1099,"x_min":76,"x_max":1021,"o":"m 1021 497 q 992 288 1021 382 q 906 126 964 194 q 760 22 849 58 q 549 -14 671 -14 q 425 -3 482 -14 q 322 29 368 8 l 261 -61 l 149 11 l 211 103 q 110 272 143 171 q 76 499 76 372 q 127 767 76 653 q 283 944 178 881 q 550 1007 388 1007 q 676 995 618 1007 q 783 960 735 983 l 839 1044 l 951 975 l 890 885 q 989 719 957 818 q 1021 497 1021 621 m 797 497 q 763 694 797 619 l 426 192 q 482 172 451 179 q 549 165 513 165 q 692 205 638 165 q 772 319 747 244 q 797 497 797 394 m 300 497 q 308 383 300 435 q 338 290 317 331 l 676 800 q 619 822 651 814 q 550 831 588 831 q 407 790 463 831 q 326 676 351 750 q 300 497 300 601 z "},"Ù":{"ha":1050,"x_min":118,"x_max":932,"o":"m 932 350 q 887 165 932 247 q 751 34 842 82 q 521 -14 660 -14 q 221 87 324 -14 q 118 353 118 188 l 118 992 l 328 992 l 328 385 q 378 213 328 263 q 526 163 428 163 q 639 186 596 163 q 702 260 682 210 q 722 386 722 310 l 722 992 l 932 992 l 932 350 m 504 1297 q 553 1229 525 1267 q 613 1156 582 1192 q 665 1093 643 1119 l 665 1075 l 525 1075 q 463 1120 499 1093 q 391 1177 428 1147 q 322 1235 354 1207 q 269 1283 289 1264 l 269 1297 l 504 1297 z "},"Ú":{"ha":1050,"x_min":118,"x_max":932,"o":"m 932 350 q 887 165 932 247 q 751 34 842 82 q 521 -14 660 -14 q 221 87 324 -14 q 118 353 118 188 l 118 992 l 328 992 l 328 385 q 378 213 328 263 q 526 163 428 163 q 639 186 596 163 q 702 260 682 210 q 722 386 722 310 l 722 992 l 932 992 l 932 350 m 774 1283 q 721 1235 753 1264 q 651 1177 689 1207 q 578 1120 614 1147 q 517 1075 543 1093 l 378 1075 l 378 1093 q 430 1156 400 1119 q 490 1229 460 1192 q 539 1297 519 1267 l 774 1297 l 774 1283 z "},"Û":{"ha":1050,"x_min":118,"x_max":932,"o":"m 932 350 q 887 165 932 247 q 751 34 842 82 q 521 -14 660 -14 q 221 87 324 -14 q 118 353 118 188 l 118 992 l 328 992 l 328 385 q 378 213 328 263 q 526 163 428 163 q 639 186 596 163 q 702 260 682 210 q 722 386 722 310 l 722 992 l 932 992 l 932 350 m 625 1297 q 676 1227 644 1265 q 740 1153 707 1189 q 799 1093 774 1118 l 799 1075 l 660 1075 q 589 1124 624 1096 q 518 1186 554 1153 q 449 1126 482 1153 q 379 1075 415 1099 l 240 1075 l 240 1093 q 299 1155 267 1119 q 363 1228 332 1190 q 414 1297 394 1265 l 625 1297 z "},"Ü":{"ha":1050,"x_min":118,"x_max":932,"o":"m 932 350 q 887 165 932 247 q 751 34 842 82 q 521 -14 660 -14 q 221 87 324 -14 q 118 353 118 188 l 118 992 l 328 992 l 328 385 q 378 213 328 263 q 526 163 428 163 q 639 186 596 163 q 702 260 682 210 q 722 386 722 310 l 722 992 l 932 992 l 932 350 m 276 1186 q 304 1257 276 1235 q 372 1279 332 1279 q 440 1257 411 1279 q 468 1186 468 1235 q 440 1118 468 1140 q 372 1096 411 1096 q 304 1118 332 1096 q 276 1186 276 1140 m 576 1186 q 603 1257 576 1235 q 672 1279 631 1279 q 740 1257 711 1279 q 768 1186 768 1235 q 740 1118 768 1140 q 672 1096 711 1096 q 603 1118 631 1096 q 576 1186 576 1140 z "},"Ý":{"ha":869,"x_min":0,"x_max":869,"o":"m 435 576 l 639 992 l 869 992 l 542 386 l 542 0 l 328 0 l 328 379 l 0 992 l 231 992 l 435 576 m 718 1283 q 665 1235 697 1264 q 596 1177 633 1207 q 523 1120 558 1147 q 461 1075 488 1093 l 322 1075 l 322 1093 q 374 1156 344 1119 q 434 1229 404 1192 q 483 1297 464 1267 l 718 1297 l 718 1283 z "},"Þ":{"ha":872,"x_min":125,"x_max":810,"o":"m 810 522 q 790 401 810 458 q 728 297 771 343 q 615 225 686 251 q 439 199 543 199 l 335 199 l 335 0 l 125 0 l 125 992 l 335 992 l 335 836 l 456 836 q 724 751 639 836 q 810 522 810 665 m 403 368 q 511 384 468 368 q 576 434 554 400 q 597 522 597 468 q 554 631 597 596 q 419 665 511 665 l 335 665 l 335 368 l 403 368 z "},"ß":{"ha":978,"x_min":101,"x_max":928,"o":"m 838 826 q 819 743 838 779 q 772 680 800 707 q 716 632 744 653 q 669 593 688 611 q 650 558 650 575 q 663 528 650 542 q 706 496 676 514 q 783 446 735 478 q 863 384 831 415 q 912 314 896 353 q 928 221 928 275 q 894 91 928 143 q 796 13 861 39 q 640 -14 731 -14 q 504 -3 558 -14 q 408 29 450 7 l 408 192 q 465 165 432 178 q 533 144 497 153 q 600 136 569 136 q 683 158 654 136 q 713 218 713 181 q 703 258 713 240 q 667 297 694 276 q 585 349 639 318 q 495 410 528 382 q 448 467 463 438 q 433 533 433 497 q 452 606 433 576 q 499 659 471 636 q 556 703 528 682 q 603 748 585 724 q 622 807 622 772 q 583 875 622 851 q 475 899 543 899 q 388 883 425 899 q 331 837 351 868 q 311 754 311 806 l 311 0 l 101 0 l 101 771 q 151 935 101 871 q 284 1031 200 999 q 475 1063 368 1063 q 663 1036 582 1063 q 791 958 744 1010 q 838 826 838 906 z "},"à":{"ha":832,"x_min":56,"x_max":733,"o":"m 440 772 q 658 705 583 772 q 733 506 733 638 l 733 0 l 588 0 l 547 103 l 542 103 q 476 36 510 63 q 397 -2 442 10 q 289 -14 353 -14 q 169 12 222 -14 q 86 90 117 38 q 56 224 56 143 q 142 403 56 343 q 399 469 228 463 l 525 474 l 525 497 q 494 592 525 565 q 408 619 464 619 q 303 603 357 619 q 196 563 249 586 l 135 706 q 272 754 194 736 q 440 772 349 772 m 446 347 q 308 315 347 344 q 269 233 269 286 q 297 162 269 185 q 369 139 324 139 q 480 178 435 139 q 525 289 525 217 l 525 351 l 446 347 m 438 1064 q 487 996 458 1033 q 546 922 515 958 q 599 860 576 886 l 599 842 l 458 842 q 397 887 432 860 q 324 944 361 914 q 255 1002 288 974 q 203 1050 222 1031 l 203 1064 l 438 1064 z "},"á":{"ha":832,"x_min":56,"x_max":733,"o":"m 440 772 q 658 705 583 772 q 733 506 733 638 l 733 0 l 588 0 l 547 103 l 542 103 q 476 36 510 63 q 397 -2 442 10 q 289 -14 353 -14 q 169 12 222 -14 q 86 90 117 38 q 56 224 56 143 q 142 403 56 343 q 399 469 228 463 l 525 474 l 525 497 q 494 592 525 565 q 408 619 464 619 q 303 603 357 619 q 196 563 249 586 l 135 706 q 272 754 194 736 q 440 772 349 772 m 446 347 q 308 315 347 344 q 269 233 269 286 q 297 162 269 185 q 369 139 324 139 q 480 178 435 139 q 525 289 525 217 l 525 351 l 446 347 m 700 1050 q 647 1002 679 1031 q 578 944 615 974 q 505 887 540 914 q 443 842 469 860 l 304 842 l 304 860 q 356 922 326 886 q 416 996 386 958 q 465 1064 446 1033 l 700 1064 l 700 1050 z "},"â":{"ha":832,"x_min":56,"x_max":733,"o":"m 440 772 q 658 705 583 772 q 733 506 733 638 l 733 0 l 588 0 l 547 103 l 542 103 q 476 36 510 63 q 397 -2 442 10 q 289 -14 353 -14 q 169 12 222 -14 q 86 90 117 38 q 56 224 56 143 q 142 403 56 343 q 399 469 228 463 l 525 474 l 525 497 q 494 592 525 565 q 408 619 464 619 q 303 603 357 619 q 196 563 249 586 l 135 706 q 272 754 194 736 q 440 772 349 772 m 446 347 q 308 315 347 344 q 269 233 269 286 q 297 162 269 185 q 369 139 324 139 q 480 178 435 139 q 525 289 525 217 l 525 351 l 446 347 m 522 1064 q 573 994 542 1032 q 638 920 604 956 q 696 860 671 885 l 696 842 l 557 842 q 486 891 521 863 q 415 953 451 919 q 346 892 379 919 q 276 842 313 865 l 138 842 l 138 860 q 197 922 164 886 q 260 994 229 957 q 311 1064 292 1032 l 522 1064 z "},"ã":{"ha":832,"x_min":56,"x_max":733,"o":"m 440 772 q 658 705 583 772 q 733 506 733 638 l 733 0 l 588 0 l 547 103 l 542 103 q 476 36 510 63 q 397 -2 442 10 q 289 -14 353 -14 q 169 12 222 -14 q 86 90 117 38 q 56 224 56 143 q 142 403 56 343 q 399 469 228 463 l 525 474 l 525 497 q 494 592 525 565 q 408 619 464 619 q 303 603 357 619 q 196 563 249 586 l 135 706 q 272 754 194 736 q 440 772 349 772 m 446 347 q 308 315 347 344 q 269 233 269 286 q 297 162 269 185 q 369 139 324 139 q 480 178 435 139 q 525 289 525 217 l 525 351 l 446 347 m 143 840 q 163 934 147 894 q 204 999 179 974 q 260 1038 229 1025 q 328 1050 292 1050 q 383 1040 356 1050 q 435 1015 410 1029 q 486 990 461 1000 q 536 979 511 979 q 576 997 557 979 q 604 1051 596 1015 l 706 1051 q 644 893 697 944 q 521 842 592 842 q 467 852 493 842 q 414 877 440 863 q 363 902 388 892 q 313 913 338 913 q 272 894 292 913 q 244 840 253 876 l 143 840 z "},"ä":{"ha":832,"x_min":56,"x_max":733,"o":"m 440 772 q 658 705 583 772 q 733 506 733 638 l 733 0 l 588 0 l 547 103 l 542 103 q 476 36 510 63 q 397 -2 442 10 q 289 -14 353 -14 q 169 12 222 -14 q 86 90 117 38 q 56 224 56 143 q 142 403 56 343 q 399 469 228 463 l 525 474 l 525 497 q 494 592 525 565 q 408 619 464 619 q 303 603 357 619 q 196 563 249 586 l 135 706 q 272 754 194 736 q 440 772 349 772 m 446 347 q 308 315 347 344 q 269 233 269 286 q 297 162 269 185 q 369 139 324 139 q 480 178 435 139 q 525 289 525 217 l 525 351 l 446 347 m 171 953 q 199 1024 171 1001 q 267 1046 226 1046 q 334 1024 306 1046 q 363 953 363 1001 q 334 885 363 907 q 267 863 306 863 q 199 885 226 863 q 171 953 171 907 m 471 953 q 498 1024 471 1001 q 567 1046 525 1046 q 634 1024 606 1046 q 663 953 663 1001 q 634 885 663 907 q 567 863 606 863 q 498 885 525 863 q 471 953 471 907 z "},"å":{"ha":832,"x_min":56,"x_max":733,"o":"m 440 772 q 658 705 583 772 q 733 506 733 638 l 733 0 l 588 0 l 547 103 l 542 103 q 476 36 510 63 q 397 -2 442 10 q 289 -14 353 -14 q 169 12 222 -14 q 86 90 117 38 q 56 224 56 143 q 142 403 56 343 q 399 469 228 463 l 525 474 l 525 497 q 494 592 525 565 q 408 619 464 619 q 303 603 357 619 q 196 563 249 586 l 135 706 q 272 754 194 736 q 440 772 349 772 m 446 347 q 308 315 347 344 q 269 233 269 286 q 297 162 269 185 q 369 139 324 139 q 480 178 435 139 q 525 289 525 217 l 525 351 l 446 347 m 414 840 q 292 883 339 840 q 246 1001 246 926 q 292 1121 246 1078 q 414 1164 339 1164 q 537 1121 486 1164 q 588 1003 588 1078 q 538 883 588 926 q 414 840 488 840 m 414 936 q 460 954 442 936 q 479 1001 479 972 q 460 1049 479 1032 q 414 1067 442 1067 q 367 1049 386 1067 q 349 1001 349 1032 q 365 954 349 972 q 414 936 382 936 z "},"æ":{"ha":1274,"x_min":58,"x_max":1214,"o":"m 890 772 q 1059 732 986 772 q 1173 615 1132 692 q 1214 428 1214 539 l 1214 328 l 724 328 q 776 190 726 240 q 913 140 825 140 q 1044 155 982 140 q 1171 200 1107 169 l 1171 40 q 1053 -1 1114 13 q 901 -14 992 -14 q 785 1 840 -14 q 685 48 729 17 q 607 126 640 79 q 526 47 567 78 q 432 1 485 15 q 300 -14 379 -14 q 180 12 235 -14 q 92 91 125 38 q 58 226 58 144 q 95 359 58 307 q 205 438 132 411 q 386 468 278 464 l 515 472 l 515 529 q 485 599 515 576 q 403 621 456 621 q 298 606 349 621 q 196 568 247 592 l 129 706 q 263 756 189 738 q 415 774 336 774 q 550 751 492 774 q 647 685 608 729 q 751 751 692 729 q 890 772 810 772 m 439 349 q 308 313 344 346 q 271 225 271 279 q 297 158 271 178 q 365 138 322 138 q 442 155 408 138 q 495 206 475 172 q 515 289 515 240 l 515 351 l 439 349 m 886 625 q 776 586 818 625 q 728 465 735 547 l 1019 465 q 1003 547 1019 511 q 958 604 988 583 q 886 625 929 625 z "},"ç":{"ha":717,"x_min":65,"x_max":678,"o":"m 432 -14 q 240 27 322 -14 q 111 155 157 68 q 65 375 65 242 q 115 603 65 515 q 251 731 165 690 q 447 772 338 772 q 573 758 514 772 q 678 721 632 744 l 615 563 q 531 592 574 581 q 447 604 489 604 q 356 579 393 604 q 299 503 318 554 q 279 376 279 453 q 299 253 279 301 q 356 180 318 204 q 444 156 393 156 q 557 172 504 156 q 657 214 610 188 l 657 43 q 560 1 614 17 q 432 -14 506 -14 m 572 -179 q 521 -292 572 -250 q 378 -333 469 -333 q 310 -328 342 -333 q 260 -317 279 -324 l 260 -207 q 301 -216 279 -212 q 343 -219 322 -219 q 398 -208 379 -219 q 417 -171 417 -196 q 389 -128 417 -143 q 308 -104 361 -112 l 357 0 l 468 0 l 447 -54 q 506 -74 476 -60 q 553 -114 535 -89 q 572 -179 572 -139 z "},"è":{"ha":829,"x_min":65,"x_max":765,"o":"m 425 772 q 607 733 531 772 q 724 616 683 693 q 765 428 765 539 l 765 326 l 278 326 q 331 191 281 240 q 474 142 381 142 q 603 156 544 142 q 722 197 661 169 l 722 40 q 605 -1 667 13 q 451 -14 543 -14 q 252 28 339 -14 q 115 156 165 69 q 65 374 65 243 q 110 595 65 507 q 237 728 156 683 q 425 772 318 772 m 431 624 q 329 584 368 624 q 283 467 290 544 l 569 467 q 554 547 569 513 q 508 603 539 582 q 431 624 476 624 m 438 1064 q 487 996 458 1033 q 546 922 515 958 q 599 860 576 886 l 599 842 l 458 842 q 397 887 432 860 q 324 944 361 914 q 255 1002 288 974 q 203 1050 222 1031 l 203 1064 l 438 1064 z "},"é":{"ha":829,"x_min":65,"x_max":765,"o":"m 425 772 q 607 733 531 772 q 724 616 683 693 q 765 428 765 539 l 765 326 l 278 326 q 331 191 281 240 q 474 142 381 142 q 603 156 544 142 q 722 197 661 169 l 722 40 q 605 -1 667 13 q 451 -14 543 -14 q 252 28 339 -14 q 115 156 165 69 q 65 374 65 243 q 110 595 65 507 q 237 728 156 683 q 425 772 318 772 m 431 624 q 329 584 368 624 q 283 467 290 544 l 569 467 q 554 547 569 513 q 508 603 539 582 q 431 624 476 624 m 700 1050 q 647 1002 679 1031 q 578 944 615 974 q 505 887 540 914 q 443 842 469 860 l 304 842 l 304 860 q 356 922 326 886 q 416 996 386 958 q 465 1064 446 1033 l 700 1064 l 700 1050 z "},"ê":{"ha":829,"x_min":65,"x_max":765,"o":"m 425 772 q 607 733 531 772 q 724 616 683 693 q 765 428 765 539 l 765 326 l 278 326 q 331 191 281 240 q 474 142 381 142 q 603 156 544 142 q 722 197 661 169 l 722 40 q 605 -1 667 13 q 451 -14 543 -14 q 252 28 339 -14 q 115 156 165 69 q 65 374 65 243 q 110 595 65 507 q 237 728 156 683 q 425 772 318 772 m 431 624 q 329 584 368 624 q 283 467 290 544 l 569 467 q 554 547 569 513 q 508 603 539 582 q 431 624 476 624 m 522 1064 q 573 994 542 1032 q 638 920 604 956 q 696 860 671 885 l 696 842 l 557 842 q 486 891 521 863 q 415 953 451 919 q 346 892 379 919 q 276 842 313 865 l 138 842 l 138 860 q 197 922 164 886 q 260 994 229 957 q 311 1064 292 1032 l 522 1064 z "},"ë":{"ha":829,"x_min":65,"x_max":765,"o":"m 425 772 q 607 733 531 772 q 724 616 683 693 q 765 428 765 539 l 765 326 l 278 326 q 331 191 281 240 q 474 142 381 142 q 603 156 544 142 q 722 197 661 169 l 722 40 q 605 -1 667 13 q 451 -14 543 -14 q 252 28 339 -14 q 115 156 165 69 q 65 374 65 243 q 110 595 65 507 q 237 728 156 683 q 425 772 318 772 m 431 624 q 329 584 368 624 q 283 467 290 544 l 569 467 q 554 547 569 513 q 508 603 539 582 q 431 624 476 624 m 171 953 q 199 1024 171 1001 q 267 1046 226 1046 q 334 1024 306 1046 q 363 953 363 1001 q 334 885 363 907 q 267 863 306 863 q 199 885 226 863 q 171 953 171 907 m 471 953 q 498 1024 471 1001 q 567 1046 525 1046 q 634 1024 606 1046 q 663 953 663 1001 q 634 885 663 907 q 567 863 606 863 q 498 885 525 863 q 471 953 471 907 z "},"ì":{"ha":415,"x_min":-6,"x_max":390,"o":"m 313 0 l 103 0 l 103 758 l 313 758 l 313 0 m 229 1064 q 278 996 250 1033 q 338 922 307 958 q 390 860 368 886 l 390 842 l 250 842 q 188 887 224 860 q 116 944 153 914 q 47 1002 79 974 q -6 1050 14 1031 l -6 1064 l 229 1064 z "},"í":{"ha":415,"x_min":96,"x_max":490,"o":"m 313 0 l 103 0 l 103 758 l 313 758 l 313 0 m 492 1050 q 439 1002 471 1031 q 369 944 407 974 q 297 887 332 914 q 235 842 261 860 l 96 842 l 96 860 q 148 922 118 886 q 208 996 178 958 q 257 1064 238 1033 l 492 1064 l 492 1050 z "},"î":{"ha":415,"x_min":-71,"x_max":488,"o":"m 313 0 l 103 0 l 103 758 l 313 758 l 313 0 m 314 1064 q 365 994 333 1032 q 429 920 396 956 q 488 860 463 885 l 488 842 l 349 842 q 278 891 313 863 q 207 953 243 919 q 138 892 171 919 q 68 842 104 865 l -71 842 l -71 860 q -12 922 -44 886 q 52 994 21 957 q 103 1064 83 1032 l 314 1064 z "},"ï":{"ha":415,"x_min":-37,"x_max":454,"o":"m 313 0 l 103 0 l 103 758 l 313 758 l 313 0 m -37 953 q -10 1024 -37 1001 q 58 1046 18 1046 q 126 1024 97 1046 q 154 953 154 1001 q 126 885 154 907 q 58 863 97 863 q -10 885 18 863 q -37 953 -37 907 m 263 953 q 290 1024 263 1001 q 358 1046 317 1046 q 426 1024 397 1046 q 454 953 454 1001 q 426 885 454 907 q 358 863 397 863 q 290 885 317 863 q 263 953 263 907 z "},"ð":{"ha":871,"x_min":67,"x_max":801,"o":"m 315 1065 q 410 1020 365 1043 q 493 969 456 997 l 642 1063 l 710 958 l 597 888 q 707 753 661 826 q 777 589 753 679 q 801 389 801 499 q 756 171 801 261 q 628 33 711 81 q 432 -14 546 -14 q 243 26 325 -14 q 114 144 161 67 q 67 332 67 222 q 108 519 67 443 q 224 635 150 596 q 392 675 297 675 q 475 668 439 675 q 536 647 511 661 q 576 610 561 632 l 582 613 q 531 713 563 665 q 456 801 499 760 l 310 711 l 242 818 l 361 890 q 308 924 338 907 q 251 957 279 942 l 315 1065 m 435 521 q 345 500 379 521 q 296 438 311 479 q 281 332 281 396 q 296 232 281 275 q 346 165 311 189 q 435 140 381 140 q 553 197 517 140 q 589 361 589 253 q 579 422 589 393 q 551 472 569 450 q 503 508 532 494 q 435 521 475 521 z "},"ñ":{"ha":903,"x_min":101,"x_max":804,"o":"m 535 772 q 732 707 660 772 q 804 494 804 642 l 804 0 l 596 0 l 596 442 q 566 565 596 524 q 474 606 536 606 q 345 541 379 606 q 311 356 311 476 l 311 0 l 101 0 l 101 758 l 263 758 l 292 657 l 300 657 q 360 720 325 694 q 440 759 396 746 q 535 772 483 772 m 178 840 q 198 934 182 894 q 239 999 214 974 q 295 1038 264 1025 q 363 1050 326 1050 q 417 1040 390 1050 q 470 1015 444 1029 q 521 990 496 1000 q 571 979 546 979 q 611 997 592 979 q 639 1051 631 1015 l 740 1051 q 679 893 732 944 q 556 842 626 842 q 501 852 528 842 q 449 877 475 863 q 397 902 422 892 q 347 913 372 913 q 307 894 326 913 q 279 840 288 876 l 178 840 z "},"ò":{"ha":868,"x_min":65,"x_max":801,"o":"m 801 381 q 776 213 801 286 q 702 89 750 139 q 586 13 654 39 q 432 -14 518 -14 q 285 13 351 -14 q 169 89 218 39 q 93 213 121 139 q 65 381 65 286 q 110 594 65 507 q 238 727 154 682 q 436 772 321 772 q 625 727 543 772 q 754 594 707 682 q 801 381 801 507 m 279 381 q 295 254 279 307 q 345 174 311 201 q 435 146 379 146 q 523 174 489 146 q 572 254 557 201 q 588 381 588 307 q 572 507 588 456 q 522 585 556 558 q 433 613 489 613 q 316 553 353 613 q 279 381 279 493 m 456 1064 q 505 996 476 1033 q 564 922 533 958 q 617 860 594 886 l 617 842 l 476 842 q 415 887 450 860 q 342 944 379 914 q 273 1002 306 974 q 221 1050 240 1031 l 221 1064 l 456 1064 z "},"ó":{"ha":868,"x_min":65,"x_max":801,"o":"m 801 381 q 776 213 801 286 q 702 89 750 139 q 586 13 654 39 q 432 -14 518 -14 q 285 13 351 -14 q 169 89 218 39 q 93 213 121 139 q 65 381 65 286 q 110 594 65 507 q 238 727 154 682 q 436 772 321 772 q 625 727 543 772 q 754 594 707 682 q 801 381 801 507 m 279 381 q 295 254 279 307 q 345 174 311 201 q 435 146 379 146 q 523 174 489 146 q 572 254 557 201 q 588 381 588 307 q 572 507 588 456 q 522 585 556 558 q 433 613 489 613 q 316 553 353 613 q 279 381 279 493 m 718 1050 q 665 1002 697 1031 q 596 944 633 974 q 523 887 558 914 q 461 842 488 860 l 322 842 l 322 860 q 374 922 344 886 q 434 996 404 958 q 483 1064 464 1033 l 718 1064 l 718 1050 z "},"ô":{"ha":868,"x_min":65,"x_max":801,"o":"m 801 381 q 776 213 801 286 q 702 89 750 139 q 586 13 654 39 q 432 -14 518 -14 q 285 13 351 -14 q 169 89 218 39 q 93 213 121 139 q 65 381 65 286 q 110 594 65 507 q 238 727 154 682 q 436 772 321 772 q 625 727 543 772 q 754 594 707 682 q 801 381 801 507 m 279 381 q 295 254 279 307 q 345 174 311 201 q 435 146 379 146 q 523 174 489 146 q 572 254 557 201 q 588 381 588 307 q 572 507 588 456 q 522 585 556 558 q 433 613 489 613 q 316 553 353 613 q 279 381 279 493 m 540 1064 q 591 994 560 1032 q 656 920 622 956 q 714 860 689 885 l 714 842 l 575 842 q 504 891 539 863 q 433 953 469 919 q 364 892 397 919 q 294 842 331 865 l 156 842 l 156 860 q 215 922 182 886 q 278 994 247 957 q 329 1064 310 1032 l 540 1064 z "},"õ":{"ha":868,"x_min":65,"x_max":801,"o":"m 801 381 q 776 213 801 286 q 702 89 750 139 q 586 13 654 39 q 432 -14 518 -14 q 285 13 351 -14 q 169 89 218 39 q 93 213 121 139 q 65 381 65 286 q 110 594 65 507 q 238 727 154 682 q 436 772 321 772 q 625 727 543 772 q 754 594 707 682 q 801 381 801 507 m 279 381 q 295 254 279 307 q 345 174 311 201 q 435 146 379 146 q 523 174 489 146 q 572 254 557 201 q 588 381 588 307 q 572 507 588 456 q 522 585 556 558 q 433 613 489 613 q 316 553 353 613 q 279 381 279 493 m 161 840 q 181 934 165 894 q 222 999 197 974 q 278 1038 247 1025 q 346 1050 310 1050 q 401 1040 374 1050 q 453 1015 428 1029 q 504 990 479 1000 q 554 979 529 979 q 594 997 575 979 q 622 1051 614 1015 l 724 1051 q 663 893 715 944 q 539 842 610 842 q 485 852 511 842 q 432 877 458 863 q 381 902 406 892 q 331 913 356 913 q 290 894 310 913 q 263 840 271 876 l 161 840 z "},"ö":{"ha":868,"x_min":65,"x_max":801,"o":"m 801 381 q 776 213 801 286 q 702 89 750 139 q 586 13 654 39 q 432 -14 518 -14 q 285 13 351 -14 q 169 89 218 39 q 93 213 121 139 q 65 381 65 286 q 110 594 65 507 q 238 727 154 682 q 436 772 321 772 q 625 727 543 772 q 754 594 707 682 q 801 381 801 507 m 279 381 q 295 254 279 307 q 345 174 311 201 q 435 146 379 146 q 523 174 489 146 q 572 254 557 201 q 588 381 588 307 q 572 507 588 456 q 522 585 556 558 q 433 613 489 613 q 316 553 353 613 q 279 381 279 493 m 189 953 q 217 1024 189 1001 q 285 1046 244 1046 q 352 1024 324 1046 q 381 953 381 1001 q 352 885 381 907 q 285 863 324 863 q 217 885 244 863 q 189 953 189 907 m 489 953 q 516 1024 489 1001 q 585 1046 543 1046 q 652 1024 624 1046 q 681 953 681 1001 q 652 885 681 907 q 585 863 624 863 q 516 885 543 863 q 489 953 489 907 z "},"÷":{"ha":794,"x_min":60,"x_max":733,"o":"m 60 415 l 60 564 l 733 564 l 733 415 l 60 415 m 396 150 q 329 174 357 150 q 301 253 301 199 q 329 333 301 310 q 396 356 357 356 q 462 333 433 356 q 490 253 490 310 q 462 174 490 199 q 396 150 433 150 m 396 624 q 329 648 357 624 q 301 726 301 672 q 329 806 301 783 q 396 829 357 829 q 462 806 433 829 q 490 726 490 783 q 462 648 490 672 q 396 624 433 624 z "},"ø":{"ha":860,"x_min":63,"x_max":797,"o":"m 797 381 q 752 166 797 254 q 624 32 707 78 q 428 -14 542 -14 q 345 -6 385 -14 q 269 17 306 3 l 224 -51 l 119 19 l 165 88 q 90 212 117 139 q 63 381 63 285 q 161 671 63 569 q 432 772 260 772 q 520 763 478 772 q 600 738 563 754 l 638 793 l 740 719 l 701 663 q 772 542 747 613 q 797 381 797 471 m 274 381 q 277 319 274 347 q 286 268 281 292 l 501 590 q 469 601 488 597 q 429 606 450 606 q 310 549 347 606 q 274 381 274 493 m 586 381 q 584 432 586 408 q 578 476 582 456 l 368 163 q 397 155 382 157 q 431 153 413 153 q 520 178 486 153 q 570 255 554 204 q 586 381 586 306 z "},"ù":{"ha":903,"x_min":97,"x_max":800,"o":"m 800 758 l 800 0 l 639 0 l 613 97 l 600 97 q 540 33 576 58 q 459 -3 503 8 q 367 -14 415 -14 q 226 15 286 -14 q 131 106 165 44 q 97 264 97 167 l 97 758 l 308 758 l 308 317 q 337 195 308 236 q 428 154 365 154 q 527 183 492 154 q 576 267 563 211 q 590 403 590 322 l 590 758 l 800 758 m 472 1064 q 522 996 493 1033 q 581 922 550 958 q 633 860 611 886 l 633 842 l 493 842 q 431 887 467 860 q 359 944 396 914 q 290 1002 322 974 q 238 1050 257 1031 l 238 1064 l 472 1064 z "},"ú":{"ha":903,"x_min":97,"x_max":800,"o":"m 800 758 l 800 0 l 639 0 l 613 97 l 600 97 q 540 33 576 58 q 459 -3 503 8 q 367 -14 415 -14 q 226 15 286 -14 q 131 106 165 44 q 97 264 97 167 l 97 758 l 308 758 l 308 317 q 337 195 308 236 q 428 154 365 154 q 527 183 492 154 q 576 267 563 211 q 590 403 590 322 l 590 758 l 800 758 m 735 1050 q 682 1002 714 1031 q 613 944 650 974 q 540 887 575 914 q 478 842 504 860 l 339 842 l 339 860 q 391 922 361 886 q 451 996 421 958 q 500 1064 481 1033 l 735 1064 l 735 1050 z "},"û":{"ha":903,"x_min":97,"x_max":800,"o":"m 800 758 l 800 0 l 639 0 l 613 97 l 600 97 q 540 33 576 58 q 459 -3 503 8 q 367 -14 415 -14 q 226 15 286 -14 q 131 106 165 44 q 97 264 97 167 l 97 758 l 308 758 l 308 317 q 337 195 308 236 q 428 154 365 154 q 527 183 492 154 q 576 267 563 211 q 590 403 590 322 l 590 758 l 800 758 m 557 1064 q 608 994 576 1032 q 672 920 639 956 q 731 860 706 885 l 731 842 l 592 842 q 521 891 556 863 q 450 953 486 919 q 381 892 414 919 q 311 842 347 865 l 172 842 l 172 860 q 231 922 199 886 q 295 994 264 957 q 346 1064 326 1032 l 557 1064 z "},"ü":{"ha":903,"x_min":97,"x_max":800,"o":"m 800 758 l 800 0 l 639 0 l 613 97 l 600 97 q 540 33 576 58 q 459 -3 503 8 q 367 -14 415 -14 q 226 15 286 -14 q 131 106 165 44 q 97 264 97 167 l 97 758 l 308 758 l 308 317 q 337 195 308 236 q 428 154 365 154 q 527 183 492 154 q 576 267 563 211 q 590 403 590 322 l 590 758 l 800 758 m 206 953 q 233 1024 206 1001 q 301 1046 261 1046 q 369 1024 340 1046 q 397 953 397 1001 q 369 885 397 907 q 301 863 340 863 q 233 885 261 863 q 206 953 206 907 m 506 953 q 533 1024 506 1001 q 601 1046 560 1046 q 669 1024 640 1046 q 697 953 697 1001 q 669 885 697 907 q 601 863 640 863 q 533 885 560 863 q 506 953 506 907 z "},"ý":{"ha":793,"x_min":0,"x_max":793,"o":"m 0 758 l 221 758 l 364 325 q 377 283 371 304 q 388 239 383 261 q 396 196 393 217 l 401 196 q 416 260 406 225 q 436 325 426 294 l 576 758 l 793 758 l 482 -69 q 409 -213 451 -154 q 306 -303 367 -272 q 154 -333 244 -333 q 93 -330 119 -333 q 49 -322 67 -326 l 49 -157 q 85 -162 64 -160 q 131 -165 107 -165 q 203 -148 174 -165 q 251 -102 232 -131 q 285 -37 271 -74 l 301 6 l 0 758 m 679 1050 q 626 1002 658 1031 q 557 944 594 974 q 484 887 519 914 q 422 842 449 860 l 283 842 l 283 860 q 335 922 306 886 q 395 996 365 958 q 444 1064 425 1033 l 679 1064 l 679 1050 z "},"þ":{"ha":878,"x_min":101,"x_max":811,"o":"m 811 381 q 774 164 811 253 q 672 31 738 75 q 521 -14 607 -14 q 430 -1 469 -14 q 361 35 390 13 q 311 82 332 57 l 303 82 q 306 49 304 69 q 310 9 308 29 q 311 -26 311 -11 l 311 -333 l 101 -333 l 101 1056 l 311 1056 l 311 792 q 308 715 311 750 q 303 660 306 679 l 313 660 q 361 717 332 692 q 431 757 390 742 q 526 772 472 772 q 732 673 653 772 q 811 381 811 574 m 599 383 q 566 549 599 493 q 458 606 533 606 q 347 556 379 606 q 311 404 314 506 l 311 382 q 344 214 311 272 q 461 156 376 156 q 540 182 510 156 q 585 260 571 208 q 599 383 599 311 z "},"ÿ":{"ha":793,"x_min":0,"x_max":793,"o":"m 0 758 l 221 758 l 364 325 q 377 283 371 304 q 388 239 383 261 q 396 196 393 217 l 401 196 q 416 260 406 225 q 436 325 426 294 l 576 758 l 793 758 l 482 -69 q 409 -213 451 -154 q 306 -303 367 -272 q 154 -333 244 -333 q 93 -330 119 -333 q 49 -322 67 -326 l 49 -157 q 85 -162 64 -160 q 131 -165 107 -165 q 203 -148 174 -165 q 251 -102 232 -131 q 285 -37 271 -74 l 301 6 l 0 758 m 151 953 q 179 1024 151 1001 q 247 1046 207 1046 q 315 1024 286 1046 q 343 953 343 1001 q 315 885 343 907 q 247 863 286 863 q 179 885 207 863 q 151 953 151 907 m 451 953 q 478 1024 451 1001 q 547 1046 506 1046 q 615 1024 586 1046 q 643 953 643 1001 q 615 885 643 907 q 547 863 586 863 q 478 885 506 863 q 451 953 451 907 z "},"Ā":{"ha":961,"x_min":0,"x_max":961,"o":"m 732 0 l 656 233 l 306 233 l 229 0 l 0 0 l 349 996 l 610 996 l 961 0 l 732 0 m 538 626 q 520 689 532 647 q 497 774 508 731 q 479 846 486 818 q 463 772 474 814 q 443 692 453 731 q 426 626 433 653 l 356 411 l 607 411 l 538 626 m 710 1211 l 710 1075 l 249 1075 l 249 1211 l 710 1211 z "},"ā":{"ha":832,"x_min":56,"x_max":733,"o":"m 440 772 q 658 705 583 772 q 733 506 733 638 l 733 0 l 588 0 l 547 103 l 542 103 q 476 36 510 63 q 397 -2 442 10 q 289 -14 353 -14 q 169 12 222 -14 q 86 90 117 38 q 56 224 56 143 q 142 403 56 343 q 399 469 228 463 l 525 474 l 525 497 q 494 592 525 565 q 408 619 464 619 q 303 603 357 619 q 196 563 249 586 l 135 706 q 272 754 194 736 q 440 772 349 772 m 446 347 q 308 315 347 344 q 269 233 269 286 q 297 162 269 185 q 369 139 324 139 q 480 178 435 139 q 525 289 525 217 l 525 351 l 446 347 m 647 978 l 647 842 l 186 842 l 186 978 l 647 978 z "},"Ă":{"ha":961,"x_min":0,"x_max":961,"o":"m 732 0 l 656 233 l 306 233 l 229 0 l 0 0 l 349 996 l 610 996 l 961 0 l 732 0 m 538 626 q 520 689 532 647 q 497 774 508 731 q 479 846 486 818 q 463 772 474 814 q 443 692 453 731 q 426 626 433 653 l 356 411 l 607 411 l 538 626 m 761 1304 q 722 1185 757 1238 q 628 1104 686 1133 q 492 1075 569 1075 q 303 1138 372 1075 q 228 1304 233 1200 l 343 1304 q 367 1247 347 1265 q 421 1224 388 1229 q 493 1219 454 1219 q 559 1226 526 1219 q 615 1250 592 1232 q 643 1304 639 1268 l 761 1304 z "},"ă":{"ha":832,"x_min":56,"x_max":733,"o":"m 440 772 q 658 705 583 772 q 733 506 733 638 l 733 0 l 588 0 l 547 103 l 542 103 q 476 36 510 63 q 397 -2 442 10 q 289 -14 353 -14 q 169 12 222 -14 q 86 90 117 38 q 56 224 56 143 q 142 403 56 343 q 399 469 228 463 l 525 474 l 525 497 q 494 592 525 565 q 408 619 464 619 q 303 603 357 619 q 196 563 249 586 l 135 706 q 272 754 194 736 q 440 772 349 772 m 446 347 q 308 315 347 344 q 269 233 269 286 q 297 162 269 185 q 369 139 324 139 q 480 178 435 139 q 525 289 525 217 l 525 351 l 446 347 m 697 1071 q 658 952 693 1004 q 564 871 622 900 q 428 842 506 842 q 239 904 308 842 q 164 1071 169 967 l 279 1071 q 303 1014 283 1032 q 357 991 324 996 q 429 986 390 986 q 495 992 463 986 q 551 1017 528 999 q 579 1071 575 1035 l 697 1071 z "},"Ą":{"ha":961,"x_min":0,"x_max":961,"o":"m 732 0 l 656 233 l 306 233 l 229 0 l 0 0 l 349 996 l 610 996 l 961 0 l 732 0 m 538 626 q 520 689 532 647 q 497 774 508 731 q 479 846 486 818 q 463 772 474 814 q 443 692 453 731 q 426 626 433 653 l 356 411 l 607 411 l 538 626 m 815 -144 q 831 -185 815 -172 q 871 -197 846 -197 q 913 -193 892 -197 q 947 -185 933 -189 l 947 -307 q 900 -317 925 -312 q 842 -322 875 -322 q 717 -283 764 -322 q 671 -176 671 -243 q 688 -106 671 -140 q 737 -38 704 -72 q 817 29 769 -4 l 907 0 q 838 -76 860 -44 q 815 -144 815 -108 z "},"ą":{"ha":832,"x_min":56,"x_max":750,"o":"m 440 772 q 658 705 583 772 q 733 506 733 638 l 733 0 l 588 0 l 547 103 l 542 103 q 476 36 510 63 q 397 -2 442 10 q 289 -14 353 -14 q 169 12 222 -14 q 86 90 117 38 q 56 224 56 143 q 142 403 56 343 q 399 469 228 463 l 525 474 l 525 497 q 494 592 525 565 q 408 619 464 619 q 303 603 357 619 q 196 563 249 586 l 135 706 q 272 754 194 736 q 440 772 349 772 m 446 347 q 308 315 347 344 q 269 233 269 286 q 297 162 269 185 q 369 139 324 139 q 480 178 435 139 q 525 289 525 217 l 525 351 l 446 347 m 618 -144 q 633 -185 618 -172 q 674 -197 649 -197 q 715 -193 694 -197 q 750 -185 736 -189 l 750 -307 q 703 -317 728 -312 q 644 -322 678 -322 q 520 -283 567 -322 q 474 -176 474 -243 q 490 -106 474 -140 q 540 -38 507 -72 q 619 29 572 -4 l 710 0 q 640 -76 663 -44 q 618 -144 618 -108 z "},"Ć":{"ha":892,"x_min":76,"x_max":849,"o":"m 553 829 q 445 806 493 829 q 364 740 397 783 q 313 634 331 696 q 296 493 296 572 q 325 315 296 389 q 413 201 354 240 q 561 163 472 163 q 687 178 626 163 q 808 217 747 193 l 808 36 q 681 -2 746 10 q 538 -14 617 -14 q 277 49 379 -14 q 126 228 175 113 q 76 494 76 343 q 108 701 76 607 q 200 863 139 794 q 350 968 261 931 q 556 1006 439 1006 q 705 990 629 1006 q 849 940 781 974 l 779 771 q 673 812 729 794 q 553 829 617 829 m 799 1283 q 746 1235 778 1264 q 676 1177 714 1207 q 603 1120 639 1147 q 542 1075 568 1093 l 403 1075 l 403 1093 q 455 1156 425 1119 q 515 1229 485 1192 q 564 1297 544 1267 l 799 1297 l 799 1283 z "},"ć":{"ha":717,"x_min":65,"x_max":685,"o":"m 432 -14 q 240 27 322 -14 q 111 155 157 68 q 65 375 65 242 q 115 603 65 515 q 251 731 165 690 q 447 772 338 772 q 573 758 514 772 q 678 721 632 744 l 615 563 q 531 592 574 581 q 447 604 489 604 q 356 579 393 604 q 299 503 318 554 q 279 376 279 453 q 299 253 279 301 q 356 180 318 204 q 444 156 393 156 q 557 172 504 156 q 657 214 610 188 l 657 43 q 560 1 614 17 q 432 -14 506 -14 m 685 1050 q 632 1002 664 1031 q 563 944 600 974 q 490 887 525 914 q 428 842 454 860 l 289 842 l 289 860 q 341 922 311 886 q 401 996 371 958 q 450 1064 431 1033 l 685 1064 l 685 1050 z "},"Ĉ":{"ha":892,"x_min":76,"x_max":849,"o":"m 553 829 q 445 806 493 829 q 364 740 397 783 q 313 634 331 696 q 296 493 296 572 q 325 315 296 389 q 413 201 354 240 q 561 163 472 163 q 687 178 626 163 q 808 217 747 193 l 808 36 q 681 -2 746 10 q 538 -14 617 -14 q 277 49 379 -14 q 126 228 175 113 q 76 494 76 343 q 108 701 76 607 q 200 863 139 794 q 350 968 261 931 q 556 1006 439 1006 q 705 990 629 1006 q 849 940 781 974 l 779 771 q 673 812 729 794 q 553 829 617 829 m 621 1297 q 672 1227 640 1265 q 736 1153 703 1189 q 794 1093 769 1118 l 794 1075 l 656 1075 q 585 1124 619 1096 q 514 1186 550 1153 q 444 1126 478 1153 q 375 1075 411 1099 l 236 1075 l 236 1093 q 295 1155 263 1119 q 359 1228 328 1190 q 410 1297 390 1265 l 621 1297 z "},"ĉ":{"ha":717,"x_min":65,"x_max":682,"o":"m 432 -14 q 240 27 322 -14 q 111 155 157 68 q 65 375 65 242 q 115 603 65 515 q 251 731 165 690 q 447 772 338 772 q 573 758 514 772 q 678 721 632 744 l 615 563 q 531 592 574 581 q 447 604 489 604 q 356 579 393 604 q 299 503 318 554 q 279 376 279 453 q 299 253 279 301 q 356 180 318 204 q 444 156 393 156 q 557 172 504 156 q 657 214 610 188 l 657 43 q 560 1 614 17 q 432 -14 506 -14 m 508 1064 q 559 994 528 1032 q 624 920 590 956 q 682 860 657 885 l 682 842 l 543 842 q 472 891 507 863 q 401 953 438 919 q 332 892 365 919 q 263 842 299 865 l 124 842 l 124 860 q 183 922 150 886 q 247 994 215 957 q 297 1064 278 1032 l 508 1064 z "},"Ċ":{"ha":892,"x_min":76,"x_max":849,"o":"m 553 829 q 445 806 493 829 q 364 740 397 783 q 313 634 331 696 q 296 493 296 572 q 325 315 296 389 q 413 201 354 240 q 561 163 472 163 q 687 178 626 163 q 808 217 747 193 l 808 36 q 681 -2 746 10 q 538 -14 617 -14 q 277 49 379 -14 q 126 228 175 113 q 76 494 76 343 q 108 701 76 607 q 200 863 139 794 q 350 968 261 931 q 556 1006 439 1006 q 705 990 629 1006 q 849 940 781 974 l 779 771 q 673 812 729 794 q 553 829 617 829 m 515 1290 q 595 1269 561 1290 q 629 1188 629 1247 q 595 1108 629 1131 q 515 1086 561 1086 q 435 1108 468 1086 q 401 1188 401 1131 q 435 1269 401 1247 q 515 1290 468 1290 z "},"ċ":{"ha":717,"x_min":65,"x_max":678,"o":"m 432 -14 q 240 27 322 -14 q 111 155 157 68 q 65 375 65 242 q 115 603 65 515 q 251 731 165 690 q 447 772 338 772 q 573 758 514 772 q 678 721 632 744 l 615 563 q 531 592 574 581 q 447 604 489 604 q 356 579 393 604 q 299 503 318 554 q 279 376 279 453 q 299 253 279 301 q 356 180 318 204 q 444 156 393 156 q 557 172 504 156 q 657 214 610 188 l 657 43 q 560 1 614 17 q 432 -14 506 -14 m 403 1057 q 483 1035 449 1057 q 517 954 517 1014 q 483 875 517 897 q 403 853 449 853 q 322 875 356 853 q 289 954 289 897 q 322 1035 289 1014 q 403 1057 356 1057 z "},"Č":{"ha":892,"x_min":76,"x_max":849,"o":"m 553 829 q 445 806 493 829 q 364 740 397 783 q 313 634 331 696 q 296 493 296 572 q 325 315 296 389 q 413 201 354 240 q 561 163 472 163 q 687 178 626 163 q 808 217 747 193 l 808 36 q 681 -2 746 10 q 538 -14 617 -14 q 277 49 379 -14 q 126 228 175 113 q 76 494 76 343 q 108 701 76 607 q 200 863 139 794 q 350 968 261 931 q 556 1006 439 1006 q 705 990 629 1006 q 849 940 781 974 l 779 771 q 673 812 729 794 q 553 829 617 829 m 410 1075 q 359 1144 390 1107 q 295 1218 328 1182 q 236 1279 263 1254 l 236 1297 l 374 1297 q 451 1245 410 1275 q 529 1178 493 1215 q 608 1245 565 1215 q 688 1297 651 1275 l 825 1297 l 825 1279 q 767 1218 800 1254 q 702 1144 733 1182 q 651 1075 671 1107 l 410 1075 z "},"č":{"ha":717,"x_min":65,"x_max":713,"o":"m 432 -14 q 240 27 322 -14 q 111 155 157 68 q 65 375 65 242 q 115 603 65 515 q 251 731 165 690 q 447 772 338 772 q 573 758 514 772 q 678 721 632 744 l 615 563 q 531 592 574 581 q 447 604 489 604 q 356 579 393 604 q 299 503 318 554 q 279 376 279 453 q 299 253 279 301 q 356 180 318 204 q 444 156 393 156 q 557 172 504 156 q 657 214 610 188 l 657 43 q 560 1 614 17 q 432 -14 506 -14 m 297 842 q 247 911 278 874 q 183 985 215 949 q 124 1046 150 1021 l 124 1064 l 261 1064 q 339 1012 297 1042 q 417 944 381 982 q 496 1012 453 982 q 575 1064 539 1042 l 713 1064 l 713 1046 q 654 985 688 1021 q 590 911 621 949 q 539 842 558 874 l 297 842 z "},"Ď":{"ha":1017,"x_min":118,"x_max":942,"o":"m 942 513 q 878 228 942 342 q 698 57 814 114 q 421 0 582 0 l 118 0 l 118 992 l 446 992 q 713 937 603 992 q 883 775 824 882 q 942 513 942 668 m 719 504 q 688 681 719 611 q 594 784 657 750 q 440 818 532 818 l 331 818 l 331 175 l 419 175 q 646 257 572 175 q 719 504 719 339 m 401 1075 q 351 1144 382 1107 q 287 1218 319 1182 q 228 1279 254 1254 l 228 1297 l 365 1297 q 443 1245 401 1275 q 521 1178 485 1215 q 600 1245 557 1215 q 679 1297 643 1275 l 817 1297 l 817 1279 q 758 1218 792 1254 q 694 1144 725 1182 q 643 1075 663 1107 l 401 1075 z "},"ď":{"ha":878,"x_min":65,"x_max":1074,"o":"m 1074 1042 q 1042 977 1060 1011 q 1005 907 1025 943 q 961 833 985 871 l 840 833 l 840 851 q 852 898 846 872 q 865 951 858 924 q 875 1006 871 979 q 882 1056 879 1033 l 1074 1056 l 1074 1042 m 350 -14 q 144 85 224 -14 q 65 378 65 185 q 146 673 65 574 q 357 772 226 772 q 451 758 411 772 q 519 718 490 743 q 569 661 549 693 l 576 661 q 569 731 572 686 q 565 814 565 776 l 565 1056 l 776 1056 l 776 0 l 615 0 l 574 99 l 565 99 q 517 42 546 67 q 447 1 488 17 q 350 -14 406 -14 m 424 154 q 543 203 508 154 q 579 354 578 253 l 579 376 q 546 544 579 486 q 422 603 513 603 q 316 544 354 603 q 278 375 278 486 q 316 209 278 264 q 424 154 354 154 z "},"Đ":{"ha":1017,"x_min":29,"x_max":942,"o":"m 446 992 q 712 937 601 992 q 882 775 822 882 q 942 513 942 668 q 878 228 942 342 q 697 57 814 114 q 421 0 581 0 l 122 0 l 122 403 l 29 403 l 29 578 l 122 578 l 122 992 l 446 992 m 440 818 l 333 818 l 333 578 l 518 578 l 518 403 l 333 403 l 333 175 l 419 175 q 646 257 572 175 q 719 504 719 339 q 688 681 719 611 q 594 784 656 750 q 440 818 532 818 z "},"đ":{"ha":896,"x_min":65,"x_max":882,"o":"m 344 -14 q 143 81 221 -14 q 65 356 65 175 q 147 638 65 546 q 360 729 229 729 q 454 715 414 729 q 524 675 494 700 q 575 619 554 650 l 582 619 q 572 681 578 636 q 565 774 565 726 l 565 811 l 354 811 l 354 946 l 565 946 l 565 1056 l 776 1056 l 776 946 l 882 946 l 882 811 l 776 811 l 776 0 l 604 0 l 561 99 l 553 99 q 504 42 533 67 q 436 1 475 17 q 344 -14 397 -14 m 433 154 q 547 199 514 154 q 579 336 579 244 l 579 356 q 543 508 579 456 q 429 560 507 560 q 330 509 365 560 q 294 354 294 458 q 328 210 294 267 q 433 154 361 154 z "},"Ē":{"ha":778,"x_min":125,"x_max":696,"o":"m 696 0 l 125 0 l 125 992 l 696 992 l 696 819 l 335 819 l 335 601 l 671 601 l 671 429 l 335 429 l 335 174 l 696 174 l 696 0 m 647 1211 l 647 1075 l 186 1075 l 186 1211 l 647 1211 z "},"ē":{"ha":829,"x_min":65,"x_max":765,"o":"m 425 772 q 607 733 531 772 q 724 616 683 693 q 765 428 765 539 l 765 326 l 278 326 q 331 191 281 240 q 474 142 381 142 q 603 156 544 142 q 722 197 661 169 l 722 40 q 605 -1 667 13 q 451 -14 543 -14 q 252 28 339 -14 q 115 156 165 69 q 65 374 65 243 q 110 595 65 507 q 237 728 156 683 q 425 772 318 772 m 431 624 q 329 584 368 624 q 283 467 290 544 l 569 467 q 554 547 569 513 q 508 603 539 582 q 431 624 476 624 m 647 978 l 647 842 l 186 842 l 186 978 l 647 978 z "},"Ĕ":{"ha":778,"x_min":125,"x_max":696,"o":"m 696 0 l 125 0 l 125 992 l 696 992 l 696 819 l 335 819 l 335 601 l 671 601 l 671 429 l 335 429 l 335 174 l 696 174 l 696 0 m 696 1304 q 656 1185 692 1238 q 563 1104 621 1133 q 426 1075 504 1075 q 238 1138 307 1075 q 163 1304 168 1200 l 278 1304 q 302 1247 282 1265 q 356 1224 322 1229 q 428 1219 389 1219 q 494 1226 461 1219 q 550 1250 526 1232 q 578 1304 574 1268 l 696 1304 z "},"ĕ":{"ha":829,"x_min":65,"x_max":765,"o":"m 425 772 q 607 733 531 772 q 724 616 683 693 q 765 428 765 539 l 765 326 l 278 326 q 331 191 281 240 q 474 142 381 142 q 603 156 544 142 q 722 197 661 169 l 722 40 q 605 -1 667 13 q 451 -14 543 -14 q 252 28 339 -14 q 115 156 165 69 q 65 374 65 243 q 110 595 65 507 q 237 728 156 683 q 425 772 318 772 m 431 624 q 329 584 368 624 q 283 467 290 544 l 569 467 q 554 547 569 513 q 508 603 539 582 q 431 624 476 624 m 697 1071 q 658 952 693 1004 q 564 871 622 900 q 428 842 506 842 q 239 904 308 842 q 164 1071 169 967 l 279 1071 q 303 1014 283 1032 q 357 991 324 996 q 429 986 390 986 q 495 992 463 986 q 551 1017 528 999 q 579 1071 575 1035 l 697 1071 z "},"Ė":{"ha":778,"x_min":125,"x_max":696,"o":"m 696 0 l 125 0 l 125 992 l 696 992 l 696 819 l 335 819 l 335 601 l 671 601 l 671 429 l 335 429 l 335 174 l 696 174 l 696 0 m 419 1290 q 499 1269 465 1290 q 533 1188 533 1247 q 499 1108 533 1131 q 419 1086 465 1086 q 339 1108 372 1086 q 306 1188 306 1131 q 339 1269 306 1247 q 419 1290 372 1290 z "},"ė":{"ha":829,"x_min":65,"x_max":765,"o":"m 425 772 q 607 733 531 772 q 724 616 683 693 q 765 428 765 539 l 765 326 l 278 326 q 331 191 281 240 q 474 142 381 142 q 603 156 544 142 q 722 197 661 169 l 722 40 q 605 -1 667 13 q 451 -14 543 -14 q 252 28 339 -14 q 115 156 165 69 q 65 374 65 243 q 110 595 65 507 q 237 728 156 683 q 425 772 318 772 m 431 624 q 329 584 368 624 q 283 467 290 544 l 569 467 q 554 547 569 513 q 508 603 539 582 q 431 624 476 624 m 417 1057 q 497 1035 463 1057 q 531 954 531 1014 q 497 875 531 897 q 417 853 463 853 q 336 875 369 853 q 303 954 303 897 q 336 1035 303 1014 q 417 1057 369 1057 z "},"Ę":{"ha":778,"x_min":125,"x_max":697,"o":"m 696 0 l 125 0 l 125 992 l 696 992 l 696 819 l 335 819 l 335 601 l 671 601 l 671 429 l 335 429 l 335 174 l 696 174 l 696 0 m 565 -144 q 581 -185 565 -172 q 621 -197 596 -197 q 663 -193 642 -197 q 697 -185 683 -189 l 697 -307 q 650 -317 675 -312 q 592 -322 625 -322 q 467 -283 514 -322 q 421 -176 421 -243 q 438 -106 421 -140 q 487 -38 454 -72 q 567 29 519 -4 l 657 0 q 588 -76 610 -44 q 565 -144 565 -108 z "},"ę":{"ha":821,"x_min":65,"x_max":765,"o":"m 574 -154 q 589 -196 574 -182 q 628 -210 604 -210 q 671 -206 650 -210 q 706 -197 692 -201 l 706 -318 q 658 -328 683 -324 q 600 -333 633 -333 q 476 -290 522 -333 q 431 -178 431 -246 q 451 -100 431 -137 q 507 -31 472 -62 q 583 24 542 0 l 718 40 q 631 -43 663 -8 q 587 -104 600 -78 q 574 -154 574 -131 m 425 772 q 607 733 531 772 q 724 616 683 693 q 765 428 765 539 l 765 326 l 278 326 q 331 191 282 240 q 474 142 381 142 q 603 156 544 142 q 722 197 661 169 l 722 40 q 604 -1 667 13 q 451 -14 542 -14 q 252 28 339 -14 q 115 157 165 71 q 65 374 65 243 q 110 595 65 507 q 237 728 156 683 q 425 772 318 772 m 431 624 q 328 584 368 624 q 283 467 289 544 l 569 467 q 553 547 569 511 q 507 603 538 583 q 431 624 476 624 z "},"Ě":{"ha":778,"x_min":125,"x_max":721,"o":"m 696 0 l 125 0 l 125 992 l 696 992 l 696 819 l 335 819 l 335 601 l 671 601 l 671 429 l 335 429 l 335 174 l 696 174 l 696 0 m 306 1075 q 255 1144 286 1107 q 191 1218 224 1182 q 132 1279 158 1254 l 132 1297 l 269 1297 q 347 1245 306 1275 q 425 1178 389 1215 q 504 1245 461 1215 q 583 1297 547 1275 l 721 1297 l 721 1279 q 663 1218 696 1254 q 598 1144 629 1182 q 547 1075 567 1107 l 306 1075 z "},"ě":{"ha":829,"x_min":65,"x_max":765,"o":"m 425 772 q 607 733 531 772 q 724 616 683 693 q 765 428 765 539 l 765 326 l 278 326 q 331 191 281 240 q 474 142 381 142 q 603 156 544 142 q 722 197 661 169 l 722 40 q 605 -1 667 13 q 451 -14 543 -14 q 252 28 339 -14 q 115 156 165 69 q 65 374 65 243 q 110 595 65 507 q 237 728 156 683 q 425 772 318 772 m 431 624 q 329 584 368 624 q 283 467 290 544 l 569 467 q 554 547 569 513 q 508 603 539 582 q 431 624 476 624 m 311 842 q 260 911 292 874 q 197 985 229 949 q 138 1046 164 1021 l 138 1064 l 275 1064 q 353 1012 311 1042 q 431 944 394 982 q 510 1012 467 982 q 589 1064 553 1042 l 726 1064 l 726 1046 q 668 985 701 1021 q 603 911 635 949 q 553 842 572 874 l 311 842 z "},"Ĝ":{"ha":1006,"x_min":81,"x_max":894,"o":"m 501 557 l 894 557 l 894 43 q 733 1 817 17 q 542 -14 649 -14 q 291 44 394 -14 q 134 217 188 103 q 81 497 81 331 q 141 767 81 653 q 317 943 201 881 q 599 1006 432 1006 q 754 989 678 1006 q 893 944 831 972 l 824 776 q 719 815 778 800 q 597 831 661 831 q 438 789 506 831 q 334 672 371 747 q 297 493 297 596 q 324 321 297 396 q 407 203 350 246 q 556 161 464 161 q 631 165 600 161 q 689 175 663 169 l 689 382 l 501 382 l 501 557 m 656 1297 q 706 1227 675 1265 q 771 1153 738 1189 q 829 1093 804 1118 l 829 1075 l 690 1075 q 619 1124 654 1096 q 549 1186 585 1153 q 479 1126 513 1153 q 410 1075 446 1099 l 271 1075 l 271 1093 q 330 1155 297 1119 q 394 1228 363 1190 q 444 1297 425 1265 l 656 1297 z "},"ĝ":{"ha":878,"x_min":65,"x_max":776,"o":"m 354 772 q 486 742 433 772 q 574 663 539 713 l 579 663 l 599 758 l 776 758 l 776 -6 q 735 -185 776 -112 q 609 -296 693 -258 q 396 -333 525 -333 q 239 -323 308 -333 q 108 -287 169 -312 l 108 -110 q 237 -153 171 -137 q 389 -168 303 -168 q 522 -128 476 -168 q 567 -17 567 -87 l 567 4 q 569 49 567 21 q 574 97 571 76 l 567 97 q 483 17 535 47 q 353 -14 431 -14 q 144 88 222 -14 q 65 378 65 189 q 144 669 65 567 q 354 772 224 772 m 422 607 q 344 581 376 607 q 295 503 311 554 q 279 375 279 451 q 316 206 279 261 q 426 150 353 150 q 497 163 468 150 q 544 199 526 175 q 572 261 563 224 q 581 350 581 299 l 581 381 q 565 507 581 457 q 515 582 550 557 q 422 607 481 607 m 533 1064 q 584 994 553 1032 q 649 920 615 956 q 707 860 682 885 l 707 842 l 568 842 q 497 891 532 863 q 426 953 463 919 q 357 892 390 919 q 288 842 324 865 l 149 842 l 149 860 q 208 922 175 886 q 272 994 240 957 q 322 1064 303 1032 l 533 1064 z "},"Ğ":{"ha":1006,"x_min":81,"x_max":894,"o":"m 501 557 l 894 557 l 894 43 q 733 1 817 17 q 542 -14 649 -14 q 291 44 394 -14 q 134 217 188 103 q 81 497 81 331 q 141 767 81 653 q 317 943 201 881 q 599 1006 432 1006 q 754 989 678 1006 q 893 944 831 972 l 824 776 q 719 815 778 800 q 597 831 661 831 q 438 789 506 831 q 334 672 371 747 q 297 493 297 596 q 324 321 297 396 q 407 203 350 246 q 556 161 464 161 q 631 165 600 161 q 689 175 663 169 l 689 382 l 501 382 l 501 557 m 833 1304 q 794 1185 829 1238 q 700 1104 758 1133 q 564 1075 642 1075 q 375 1138 444 1075 q 300 1304 306 1200 l 415 1304 q 440 1247 419 1265 q 493 1224 460 1229 q 565 1219 526 1219 q 631 1226 599 1219 q 688 1250 664 1232 q 715 1304 711 1268 l 833 1304 z "},"ğ":{"ha":878,"x_min":65,"x_max":776,"o":"m 354 772 q 486 742 433 772 q 574 663 539 713 l 579 663 l 599 758 l 776 758 l 776 -6 q 735 -185 776 -112 q 609 -296 693 -258 q 396 -333 525 -333 q 239 -323 308 -333 q 108 -287 169 -312 l 108 -110 q 237 -153 171 -137 q 389 -168 303 -168 q 522 -128 476 -168 q 567 -17 567 -87 l 567 4 q 569 49 567 21 q 574 97 571 76 l 567 97 q 483 17 535 47 q 353 -14 431 -14 q 144 88 222 -14 q 65 378 65 189 q 144 669 65 567 q 354 772 224 772 m 422 607 q 344 581 376 607 q 295 503 311 554 q 279 375 279 451 q 316 206 279 261 q 426 150 353 150 q 497 163 468 150 q 544 199 526 175 q 572 261 563 224 q 581 350 581 299 l 581 381 q 565 507 581 457 q 515 582 550 557 q 422 607 481 607 m 708 1071 q 669 952 704 1004 q 575 871 633 900 q 439 842 517 842 q 250 904 319 842 q 175 1071 181 967 l 290 1071 q 315 1014 294 1032 q 368 991 335 996 q 440 986 401 986 q 506 992 474 986 q 563 1017 539 999 q 590 1071 586 1035 l 708 1071 z "},"Ġ":{"ha":1006,"x_min":81,"x_max":894,"o":"m 501 557 l 894 557 l 894 43 q 733 1 817 17 q 542 -14 649 -14 q 291 44 394 -14 q 134 217 188 103 q 81 497 81 331 q 141 767 81 653 q 317 943 201 881 q 599 1006 432 1006 q 754 989 678 1006 q 893 944 831 972 l 824 776 q 719 815 778 800 q 597 831 661 831 q 438 789 506 831 q 334 672 371 747 q 297 493 297 596 q 324 321 297 396 q 407 203 350 246 q 556 161 464 161 q 631 165 600 161 q 689 175 663 169 l 689 382 l 501 382 l 501 557 m 557 1290 q 637 1269 603 1290 q 671 1188 671 1247 q 637 1108 671 1131 q 557 1086 603 1086 q 476 1108 510 1086 q 443 1188 443 1131 q 476 1269 443 1247 q 557 1290 510 1290 z "},"ġ":{"ha":878,"x_min":65,"x_max":776,"o":"m 354 772 q 486 742 433 772 q 574 663 539 713 l 579 663 l 599 758 l 776 758 l 776 -6 q 735 -185 776 -112 q 609 -296 693 -258 q 396 -333 525 -333 q 239 -323 308 -333 q 108 -287 169 -312 l 108 -110 q 237 -153 171 -137 q 389 -168 303 -168 q 522 -128 476 -168 q 567 -17 567 -87 l 567 4 q 569 49 567 21 q 574 97 571 76 l 567 97 q 483 17 535 47 q 353 -14 431 -14 q 144 88 222 -14 q 65 378 65 189 q 144 669 65 567 q 354 772 224 772 m 422 607 q 344 581 376 607 q 295 503 311 554 q 279 375 279 451 q 316 206 279 261 q 426 150 353 150 q 497 163 468 150 q 544 199 526 175 q 572 261 563 224 q 581 350 581 299 l 581 381 q 565 507 581 457 q 515 582 550 557 q 422 607 481 607 m 428 1057 q 508 1035 474 1057 q 542 954 542 1014 q 508 875 542 897 q 428 853 474 853 q 347 875 381 853 q 314 954 314 897 q 347 1035 314 1014 q 428 1057 381 1057 z "},"Ģ":{"ha":1006,"x_min":81,"x_max":894,"o":"m 501 557 l 894 557 l 894 43 q 733 1 817 17 q 542 -14 649 -14 q 291 44 394 -14 q 134 217 188 103 q 81 497 81 331 q 141 767 81 653 q 317 943 201 881 q 599 1006 432 1006 q 754 989 678 1006 q 893 944 831 972 l 824 776 q 719 815 778 800 q 597 831 661 831 q 438 789 506 831 q 334 672 371 747 q 297 493 297 596 q 324 321 297 396 q 407 203 350 246 q 556 161 464 161 q 631 165 600 161 q 689 175 663 169 l 689 382 l 501 382 l 501 557 m 663 -99 q 635 -167 651 -132 q 597 -237 618 -201 q 550 -307 576 -272 l 428 -307 l 428 -289 q 445 -224 436 -261 q 461 -150 454 -187 q 469 -85 468 -112 l 663 -85 l 663 -99 z "},"ģ":{"ha":878,"x_min":65,"x_max":776,"o":"m 558 1046 q 542 983 550 1019 q 526 909 533 946 q 517 842 519 872 l 325 842 l 325 856 q 356 920 339 886 q 394 991 374 954 q 438 1064 414 1028 l 558 1064 l 558 1046 m 354 772 q 485 742 432 772 q 574 663 539 713 l 581 663 l 599 758 l 776 758 l 776 -6 q 735 -187 776 -114 q 609 -297 693 -260 q 396 -333 525 -333 q 239 -323 308 -333 q 108 -287 169 -312 l 108 -110 q 238 -153 172 -137 q 389 -168 303 -168 q 521 -128 475 -168 q 567 -17 567 -87 l 567 4 q 569 49 567 21 q 574 97 571 76 l 567 97 q 483 17 535 47 q 353 -14 431 -14 q 143 88 221 -14 q 65 378 65 189 q 144 669 65 567 q 354 772 224 772 m 422 607 q 343 581 375 607 q 295 502 311 554 q 279 375 279 450 q 316 206 279 261 q 426 150 353 150 q 497 163 468 150 q 544 199 526 175 q 572 261 563 224 q 581 350 581 299 l 581 381 q 565 507 581 457 q 515 582 550 557 q 422 607 481 607 z "},"Ĥ":{"ha":1063,"x_min":125,"x_max":938,"o":"m 938 0 l 728 0 l 728 428 l 335 428 l 335 0 l 125 0 l 125 992 l 335 992 l 335 603 l 728 603 l 728 992 l 938 992 l 938 0 m 632 1297 q 683 1227 651 1265 q 747 1153 714 1189 q 806 1093 781 1118 l 806 1075 l 667 1075 q 596 1124 631 1096 q 525 1186 561 1153 q 456 1126 489 1153 q 386 1075 422 1099 l 247 1075 l 247 1093 q 306 1155 274 1119 q 370 1228 339 1190 q 421 1297 401 1265 l 632 1297 z "},"ĥ":{"ha":903,"x_min":-69,"x_max":804,"o":"m 311 843 q 308 735 311 782 q 301 661 304 689 l 313 661 q 371 725 338 701 q 445 760 404 749 q 532 772 486 772 q 675 743 614 772 q 770 653 736 714 q 804 494 804 593 l 804 0 l 594 0 l 594 442 q 565 565 594 524 q 474 606 536 606 q 377 576 413 606 q 326 492 342 547 q 311 356 311 436 l 311 0 l 101 0 l 101 1056 l 311 1056 l 311 843 m 315 1361 q 366 1291 335 1329 q 431 1217 397 1253 q 489 1157 464 1182 l 489 1139 l 350 1139 q 279 1188 314 1160 q 208 1250 244 1217 q 139 1190 172 1217 q 69 1139 106 1163 l -69 1139 l -69 1157 q -10 1219 -43 1183 q 53 1292 22 1254 q 104 1361 85 1329 l 315 1361 z "},"Ħ":{"ha":1064,"x_min":0,"x_max":1064,"o":"m 125 0 l 125 725 l 0 725 l 0 860 l 125 860 l 125 992 l 338 992 l 338 860 l 725 860 l 725 992 l 939 992 l 939 860 l 1064 860 l 1064 725 l 939 725 l 939 0 l 725 0 l 725 426 l 338 426 l 338 0 l 125 0 m 338 604 l 725 604 l 725 725 l 338 725 l 338 604 z "},"ħ":{"ha":913,"x_min":3,"x_max":808,"o":"m 315 1056 l 315 946 l 529 946 l 529 811 l 315 811 l 315 799 q 312 692 315 743 q 306 619 308 640 l 318 619 q 376 683 343 658 q 449 719 408 707 q 538 731 490 731 q 681 701 619 731 q 775 611 742 672 q 808 453 808 550 l 808 0 l 601 0 l 601 401 q 572 524 601 483 q 479 565 542 565 q 381 536 417 565 q 331 451 346 507 q 315 315 315 396 l 315 0 l 108 0 l 108 811 l 3 811 l 3 946 l 108 946 l 108 1056 l 315 1056 z "},"Ĩ":{"ha":540,"x_min":-47,"x_max":515,"o":"m 496 0 l 44 0 l 44 119 l 165 175 l 165 817 l 44 872 l 44 992 l 496 992 l 496 872 l 375 817 l 375 175 l 496 119 l 496 0 m -47 1074 q -27 1167 -43 1128 q 14 1233 -11 1207 q 70 1271 39 1258 q 138 1283 101 1283 q 192 1273 165 1283 q 245 1248 219 1263 q 296 1223 271 1233 q 346 1213 321 1213 q 386 1231 367 1213 q 414 1285 406 1249 l 515 1285 q 454 1126 507 1178 q 331 1075 401 1075 q 276 1085 303 1075 q 224 1110 250 1096 q 172 1135 197 1125 q 122 1146 147 1146 q 82 1128 101 1146 q 54 1074 63 1110 l -47 1074 z "},"ĩ":{"ha":415,"x_min":-65,"x_max":497,"o":"m 313 0 l 103 0 l 103 758 l 313 758 l 313 0 m -65 840 q -45 934 -61 894 q -4 999 -29 974 q 52 1038 21 1025 q 119 1050 83 1050 q 174 1040 147 1050 q 227 1015 201 1029 q 278 990 253 1000 q 328 979 303 979 q 368 997 349 979 q 396 1051 388 1015 l 497 1051 q 436 893 489 944 q 313 842 383 842 q 258 852 285 842 q 206 877 232 863 q 154 902 179 892 q 104 913 129 913 q 64 894 83 913 q 36 840 44 876 l -65 840 z "},"Ī":{"ha":540,"x_min":39,"x_max":500,"o":"m 496 0 l 44 0 l 44 119 l 165 175 l 165 817 l 44 872 l 44 992 l 496 992 l 496 872 l 375 817 l 375 175 l 496 119 l 496 0 m 500 1211 l 500 1075 l 39 1075 l 39 1211 l 500 1211 z "},"ī":{"ha":415,"x_min":-22,"x_max":439,"o":"m 313 0 l 103 0 l 103 758 l 313 758 l 313 0 m 439 978 l 439 842 l -22 842 l -22 978 l 439 978 z "},"Ĭ":{"ha":540,"x_min":15,"x_max":549,"o":"m 496 0 l 44 0 l 44 119 l 165 175 l 165 817 l 44 872 l 44 992 l 496 992 l 496 872 l 375 817 l 375 175 l 496 119 l 496 0 m 549 1304 q 509 1185 544 1238 q 415 1104 474 1133 q 279 1075 357 1075 q 90 1138 160 1075 q 15 1304 21 1200 l 131 1304 q 155 1247 135 1265 q 208 1224 175 1229 q 281 1219 242 1219 q 347 1226 314 1219 q 403 1250 379 1232 q 431 1304 426 1268 l 549 1304 z "},"ĭ":{"ha":415,"x_min":-44,"x_max":489,"o":"m 313 0 l 103 0 l 103 758 l 313 758 l 313 0 m 489 1071 q 449 952 485 1004 q 356 871 414 900 q 219 842 297 842 q 31 904 100 842 q -44 1071 -39 967 l 71 1071 q 95 1014 75 1032 q 149 991 115 996 q 221 986 182 986 q 287 992 254 986 q 343 1017 319 999 q 371 1071 367 1035 l 489 1071 z "},"Į":{"ha":540,"x_min":44,"x_max":496,"o":"m 496 0 l 44 0 l 44 119 l 165 175 l 165 817 l 44 872 l 44 992 l 496 992 l 496 872 l 375 817 l 375 175 l 496 119 l 496 0 m 357 -144 q 372 -185 357 -172 q 413 -197 388 -197 q 454 -193 433 -197 q 489 -185 475 -189 l 489 -307 q 442 -317 467 -312 q 383 -322 417 -322 q 259 -283 306 -322 q 213 -176 213 -243 q 229 -106 213 -140 q 278 -38 246 -72 q 358 29 311 -4 l 449 0 q 379 -76 401 -44 q 357 -144 357 -108 z "},"į":{"ha":415,"x_min":57,"x_max":333,"o":"m 313 758 l 313 0 l 103 0 l 103 758 l 313 758 m 208 1057 q 288 1035 254 1057 q 322 954 322 1014 q 288 875 322 897 q 208 853 254 853 q 128 875 161 853 q 94 954 94 897 q 128 1035 94 1014 q 208 1057 161 1057 m 201 -144 q 217 -185 201 -172 q 257 -197 232 -197 q 299 -193 278 -197 q 333 -185 319 -189 l 333 -307 q 286 -317 311 -312 q 228 -322 261 -322 q 103 -283 150 -322 q 57 -176 57 -243 q 74 -106 57 -140 q 123 -38 90 -72 q 203 29 156 -4 l 293 0 q 224 -76 246 -44 q 201 -144 201 -108 z "},"İ":{"ha":540,"x_min":44,"x_max":496,"o":"m 496 0 l 44 0 l 44 119 l 165 175 l 165 817 l 44 872 l 44 992 l 496 992 l 496 872 l 375 817 l 375 175 l 496 119 l 496 0 m 272 1290 q 352 1269 318 1290 q 386 1188 386 1247 q 352 1108 386 1131 q 272 1086 318 1086 q 192 1108 225 1086 q 158 1188 158 1131 q 192 1269 158 1247 q 272 1290 225 1290 z "},"Ĳ":{"ha":1003,"x_min":44,"x_max":892,"o":"m 496 0 l 44 0 l 44 119 l 165 175 l 165 817 l 44 872 l 44 992 l 496 992 l 496 872 l 375 817 l 375 175 l 496 119 l 496 0 m 578 -292 q 507 -287 538 -292 q 454 -276 476 -282 l 454 -101 q 501 -111 476 -107 q 553 -115 525 -115 q 619 -101 589 -115 q 665 -49 649 -87 q 682 63 682 -10 l 682 992 l 892 992 l 892 64 q 852 -142 892 -64 q 742 -256 813 -221 q 578 -292 671 -292 z "},"ĳ":{"ha":847,"x_min":94,"x_max":746,"o":"m 313 758 l 313 0 l 103 0 l 103 758 l 313 758 m 208 1057 q 288 1035 254 1057 q 322 954 322 1014 q 288 875 322 897 q 208 853 254 853 q 128 875 161 853 q 94 954 94 897 q 128 1035 94 1014 q 208 1057 161 1057 m 479 -333 q 411 -328 447 -333 q 350 -317 375 -324 l 350 -151 q 392 -161 372 -157 q 436 -165 413 -165 q 499 -142 474 -165 q 525 -49 525 -118 l 525 758 l 735 758 l 735 -82 q 710 -208 735 -151 q 628 -299 685 -265 q 479 -333 572 -333 m 518 954 q 551 1035 518 1014 q 632 1057 583 1057 q 711 1035 676 1057 q 746 954 746 1014 q 711 875 746 897 q 632 853 676 853 q 551 875 583 853 q 518 954 518 897 z "},"Ĵ":{"ha":460,"x_min":-103,"x_max":504,"o":"m 21 -292 q -50 -287 -19 -292 q -103 -276 -81 -282 l -103 -101 q -56 -111 -81 -107 q -4 -115 -32 -115 q 62 -101 32 -115 q 108 -49 92 -87 q 125 63 125 -10 l 125 992 l 335 992 l 335 64 q 295 -142 335 -64 q 185 -256 256 -221 q 21 -292 114 -292 m 331 1297 q 381 1227 350 1265 q 446 1153 413 1189 q 504 1093 479 1118 l 504 1075 l 365 1075 q 294 1124 329 1096 q 224 1186 260 1153 q 154 1126 188 1153 q 85 1075 121 1099 l -54 1075 l -54 1093 q 5 1155 -28 1119 q 69 1228 38 1190 q 119 1297 100 1265 l 331 1297 z "},"ĵ":{"ha":414,"x_min":-74,"x_max":486,"o":"m 56 -333 q -12 -328 24 -333 q -74 -317 -49 -324 l -74 -151 q -31 -161 -51 -157 q 13 -165 -11 -165 q 76 -142 50 -165 q 101 -49 101 -118 l 101 758 l 311 758 l 311 -82 q 286 -208 311 -151 q 205 -299 261 -265 q 56 -333 149 -333 m 313 1064 q 363 994 332 1032 q 428 920 394 956 q 486 860 461 885 l 486 842 l 347 842 q 276 891 311 863 q 206 953 242 919 q 136 892 169 919 q 67 842 103 865 l -72 842 l -72 860 q -13 922 -46 886 q 51 994 19 957 q 101 1064 82 1032 l 313 1064 z "},"Ķ":{"ha":917,"x_min":125,"x_max":922,"o":"m 922 0 l 683 0 l 424 418 l 335 354 l 335 0 l 125 0 l 125 992 l 335 992 l 335 538 q 376 596 356 567 q 418 654 397 625 l 686 992 l 919 992 l 574 553 l 922 0 m 601 -99 q 574 -167 590 -132 q 536 -237 557 -201 q 489 -307 515 -272 l 367 -307 l 367 -289 q 384 -224 375 -261 q 400 -150 393 -187 q 408 -85 407 -112 l 601 -85 l 601 -99 z "},"ķ":{"ha":861,"x_min":108,"x_max":861,"o":"m 315 583 q 312 498 315 540 q 304 413 308 456 l 307 413 q 335 451 321 432 q 365 490 350 471 q 397 528 381 510 l 610 758 l 843 758 l 542 429 l 861 0 l 622 0 l 404 307 l 315 236 l 315 0 l 108 0 l 108 1056 l 315 1056 l 315 583 m 551 -99 q 524 -167 540 -132 q 486 -237 507 -201 q 439 -307 465 -272 l 317 -307 l 317 -289 q 334 -224 325 -261 q 350 -150 343 -187 q 358 -85 357 -112 l 551 -85 l 551 -99 z "},"ĸ":{"ha":861,"x_min":108,"x_max":861,"o":"m 843 758 l 544 411 l 861 0 l 625 0 l 413 289 l 315 228 l 315 0 l 108 0 l 108 758 l 315 758 l 315 560 q 314 476 314 518 q 311 394 314 435 l 314 394 q 361 452 338 424 q 410 510 385 481 l 622 758 l 843 758 z "},"Ĺ":{"ha":776,"x_min":107,"x_max":732,"o":"m 118 0 l 118 992 l 331 992 l 331 175 l 732 175 l 732 0 l 118 0 m 503 1283 q 450 1235 482 1264 q 381 1177 418 1207 q 308 1120 343 1147 q 246 1075 272 1093 l 107 1075 l 107 1093 q 159 1156 129 1119 q 219 1229 189 1192 q 268 1297 249 1267 l 503 1297 l 503 1283 z "},"ĺ":{"ha":414,"x_min":94,"x_max":490,"o":"m 311 0 l 101 0 l 101 1056 l 311 1056 l 311 0 m 490 1347 q 438 1299 469 1328 q 368 1241 406 1271 q 295 1184 331 1211 q 233 1139 260 1157 l 94 1139 l 94 1157 q 147 1219 117 1183 q 206 1293 176 1256 q 256 1361 236 1331 l 490 1361 l 490 1347 z "},"Ļ":{"ha":776,"x_min":118,"x_max":732,"o":"m 118 0 l 118 992 l 331 992 l 331 175 l 732 175 l 732 0 l 118 0 m 542 -99 q 514 -167 531 -132 q 476 -237 497 -201 q 429 -307 456 -272 l 307 -307 l 307 -289 q 324 -224 315 -261 q 340 -150 333 -187 q 349 -85 347 -112 l 542 -85 l 542 -99 z "},"ļ":{"ha":414,"x_min":89,"x_max":325,"o":"m 311 0 l 101 0 l 101 1056 l 311 1056 l 311 0 m 325 -99 q 297 -167 314 -132 q 260 -237 281 -201 q 213 -307 239 -272 l 90 -307 l 90 -289 q 108 -224 99 -261 q 124 -150 117 -187 q 132 -85 131 -112 l 325 -85 l 325 -99 z "},"Ľ":{"ha":776,"x_min":118,"x_max":769,"o":"m 769 978 q 738 913 756 947 q 701 843 721 879 q 657 769 681 807 l 536 769 l 536 788 q 548 834 542 808 q 560 888 554 860 q 570 942 565 915 q 578 992 575 969 l 769 992 l 769 978 m 118 0 l 118 992 l 331 992 l 331 175 l 732 175 l 732 0 l 118 0 z "},"ľ":{"ha":414,"x_min":101,"x_max":608,"o":"m 608 1042 q 577 977 594 1011 q 540 907 560 943 q 496 833 519 871 l 375 833 l 375 851 q 387 898 381 872 q 399 951 393 924 q 409 1006 404 979 q 417 1056 414 1033 l 608 1056 l 608 1042 m 311 0 l 101 0 l 101 1056 l 311 1056 l 311 0 z "},"Ŀ":{"ha":776,"x_min":118,"x_max":732,"o":"m 118 0 l 118 992 l 331 992 l 331 175 l 732 175 l 732 0 l 118 0 m 586 632 q 666 610 632 632 q 700 529 700 589 q 666 450 700 472 q 586 428 632 428 q 506 450 539 428 q 472 529 472 472 q 506 610 472 589 q 586 632 539 632 z "},"ŀ":{"ha":513,"x_min":101,"x_max":576,"o":"m 311 0 l 101 0 l 101 1056 l 311 1056 l 311 0 m 463 629 q 542 608 508 629 q 576 526 576 586 q 542 447 576 469 q 463 425 508 425 q 382 447 415 425 q 349 526 349 469 q 382 608 349 586 q 463 629 415 629 z "},"Ł":{"ha":785,"x_min":1,"x_max":738,"o":"m 125 0 l 125 333 l 78 306 l 1 439 l 125 514 l 125 992 l 335 992 l 335 642 l 432 701 l 511 568 l 335 461 l 335 174 l 738 174 l 738 0 l 125 0 z "},"ł":{"ha":424,"x_min":-17,"x_max":442,"o":"m 108 0 l 108 324 l 60 294 l -17 428 l 108 504 l 108 1056 l 315 1056 l 315 631 l 363 660 l 442 526 l 315 450 l 315 0 l 108 0 z "},"Ń":{"ha":1118,"x_min":125,"x_max":1004,"o":"m 1004 0 l 738 0 l 306 750 l 300 750 q 305 656 303 703 q 309 561 307 608 q 313 467 311 514 l 313 0 l 125 0 l 125 992 l 390 992 l 821 249 l 825 249 q 822 340 824 294 q 819 431 821 386 q 815 522 817 476 l 815 992 l 1004 992 l 1004 0 m 843 1283 q 790 1235 822 1264 q 721 1177 758 1207 q 648 1120 683 1147 q 586 1075 613 1093 l 447 1075 l 447 1093 q 499 1156 469 1119 q 559 1229 529 1192 q 608 1297 589 1267 l 843 1297 l 843 1283 z "},"ń":{"ha":903,"x_min":101,"x_max":804,"o":"m 535 772 q 732 707 660 772 q 804 494 804 642 l 804 0 l 596 0 l 596 442 q 566 565 596 524 q 474 606 536 606 q 345 541 379 606 q 311 356 311 476 l 311 0 l 101 0 l 101 758 l 263 758 l 292 657 l 300 657 q 360 720 325 694 q 440 759 396 746 q 535 772 483 772 m 735 1050 q 682 1002 714 1031 q 613 944 650 974 q 540 887 575 914 q 478 842 504 860 l 339 842 l 339 860 q 391 922 361 886 q 451 996 421 958 q 500 1064 481 1033 l 735 1064 l 735 1050 z "},"Ņ":{"ha":1118,"x_min":125,"x_max":1004,"o":"m 1004 0 l 738 0 l 306 750 l 300 750 q 305 656 303 703 q 309 561 307 608 q 313 467 311 514 l 313 0 l 125 0 l 125 992 l 390 992 l 821 249 l 825 249 q 822 340 824 294 q 819 431 821 386 q 815 522 817 476 l 815 992 l 1004 992 l 1004 0 m 676 -99 q 649 -167 665 -132 q 611 -237 632 -201 q 564 -307 590 -272 l 442 -307 l 442 -289 q 459 -224 450 -261 q 475 -150 468 -187 q 483 -85 482 -112 l 676 -85 l 676 -99 z "},"ņ":{"ha":903,"x_min":101,"x_max":804,"o":"m 535 772 q 732 707 660 772 q 804 494 804 642 l 804 0 l 596 0 l 596 442 q 566 565 596 524 q 474 606 536 606 q 345 541 379 606 q 311 356 311 476 l 311 0 l 101 0 l 101 758 l 263 758 l 292 657 l 300 657 q 360 720 325 694 q 440 759 396 746 q 535 772 483 772 m 568 -99 q 540 -167 557 -132 q 503 -237 524 -201 q 456 -307 482 -272 l 333 -307 l 333 -289 q 351 -224 342 -261 q 367 -150 360 -187 q 375 -85 374 -112 l 568 -85 l 568 -99 z "},"Ň":{"ha":1118,"x_min":125,"x_max":1004,"o":"m 1004 0 l 738 0 l 306 750 l 300 750 q 305 656 303 703 q 309 561 307 608 q 313 467 311 514 l 313 0 l 125 0 l 125 992 l 390 992 l 821 249 l 825 249 q 822 340 824 294 q 819 431 821 386 q 815 522 817 476 l 815 992 l 1004 992 l 1004 0 m 454 1075 q 403 1144 435 1107 q 340 1218 372 1182 q 281 1279 307 1254 l 281 1297 l 418 1297 q 496 1245 454 1275 q 574 1178 538 1215 q 653 1245 610 1215 q 732 1297 696 1275 l 869 1297 l 869 1279 q 811 1218 844 1254 q 747 1144 778 1182 q 696 1075 715 1107 l 454 1075 z "},"ň":{"ha":903,"x_min":101,"x_max":804,"o":"m 535 772 q 732 707 660 772 q 804 494 804 642 l 804 0 l 596 0 l 596 442 q 566 565 596 524 q 474 606 536 606 q 345 541 379 606 q 311 356 311 476 l 311 0 l 101 0 l 101 758 l 263 758 l 292 657 l 300 657 q 360 720 325 694 q 440 759 396 746 q 535 772 483 772 m 346 842 q 295 911 326 874 q 231 985 264 949 q 172 1046 199 1021 l 172 1064 l 310 1064 q 388 1012 346 1042 q 465 944 429 982 q 544 1012 501 982 q 624 1064 588 1042 l 761 1064 l 761 1046 q 703 985 736 1021 q 638 911 669 949 q 588 842 607 874 l 346 842 z "},"ŉ":{"ha":1076,"x_min":-4,"x_max":978,"o":"m 708 772 q 906 707 833 772 q 978 494 978 642 l 978 0 l 769 0 l 769 442 q 740 565 769 524 q 647 606 710 606 q 519 541 553 606 q 485 356 485 476 l 485 0 l 275 0 l 275 758 l 436 758 l 465 657 l 474 657 q 534 720 499 694 q 613 759 569 746 q 708 772 657 772 m 264 976 q 232 872 251 928 q 190 759 213 815 q 144 651 168 703 l -4 651 q 15 738 6 693 q 34 827 25 782 q 51 914 43 872 q 64 992 58 956 l 254 992 l 264 976 z "},"Ŋ":{"ha":1129,"x_min":125,"x_max":1004,"o":"m 689 -292 q 613 -287 646 -292 q 556 -276 579 -282 l 556 -112 q 608 -122 581 -118 q 668 -126 636 -126 q 753 -113 719 -126 q 803 -72 786 -100 q 821 3 819 -43 l 306 750 l 300 750 q 306 659 303 711 q 310 556 308 607 q 313 467 313 504 l 313 0 l 125 0 l 125 992 l 390 992 l 821 381 l 825 381 q 821 470 824 419 q 817 571 818 521 q 815 654 815 621 l 815 992 l 1004 992 l 1004 0 q 965 -165 1004 -100 q 854 -260 925 -229 q 689 -292 783 -292 z "},"ŋ":{"ha":903,"x_min":101,"x_max":804,"o":"m 557 -333 q 490 -328 525 -333 q 431 -317 454 -324 l 431 -151 q 471 -161 453 -157 q 511 -165 489 -165 q 570 -142 546 -165 q 594 -49 594 -118 l 594 457 q 565 569 594 532 q 474 606 535 606 q 376 576 411 606 q 326 492 340 547 q 311 356 311 438 l 311 0 l 101 0 l 101 758 l 263 758 l 290 661 l 303 661 q 365 725 328 700 q 445 761 401 750 q 535 772 489 772 q 677 744 617 772 q 771 653 738 715 q 804 494 804 592 l 804 -82 q 780 -208 804 -151 q 701 -299 756 -265 q 557 -333 646 -333 z "},"Ō":{"ha":1099,"x_min":76,"x_max":1021,"o":"m 1021 497 q 992 288 1021 382 q 906 126 964 194 q 760 22 849 58 q 549 -14 671 -14 q 338 22 428 -14 q 191 126 249 58 q 105 288 133 194 q 76 499 76 382 q 127 767 76 653 q 283 944 178 881 q 550 1007 388 1007 q 816 944 711 1007 q 971 766 921 881 q 1021 497 1021 651 m 300 497 q 326 319 300 394 q 407 205 351 244 q 549 165 463 165 q 692 205 638 165 q 772 319 747 244 q 797 497 797 394 q 740 742 797 653 q 550 831 683 831 q 407 790 463 831 q 326 676 351 750 q 300 497 300 601 m 781 1211 l 781 1075 l 319 1075 l 319 1211 l 781 1211 z "},"ō":{"ha":868,"x_min":65,"x_max":801,"o":"m 801 381 q 776 213 801 286 q 702 89 750 139 q 586 13 654 39 q 432 -14 518 -14 q 285 13 351 -14 q 169 89 218 39 q 93 213 121 139 q 65 381 65 286 q 110 594 65 507 q 238 727 154 682 q 436 772 321 772 q 625 727 543 772 q 754 594 707 682 q 801 381 801 507 m 279 381 q 295 254 279 307 q 345 174 311 201 q 435 146 379 146 q 523 174 489 146 q 572 254 557 201 q 588 381 588 307 q 572 507 588 456 q 522 585 556 558 q 433 613 489 613 q 316 553 353 613 q 279 381 279 493 m 665 978 l 665 842 l 204 842 l 204 978 l 665 978 z "},"Ŏ":{"ha":1099,"x_min":76,"x_max":1021,"o":"m 1021 497 q 992 288 1021 382 q 906 126 964 194 q 760 22 849 58 q 549 -14 671 -14 q 338 22 428 -14 q 191 126 249 58 q 105 288 133 194 q 76 499 76 382 q 127 767 76 653 q 283 944 178 881 q 550 1007 388 1007 q 816 944 711 1007 q 971 766 921 881 q 1021 497 1021 651 m 300 497 q 326 319 300 394 q 407 205 351 244 q 549 165 463 165 q 692 205 638 165 q 772 319 747 244 q 797 497 797 394 q 740 742 797 653 q 550 831 683 831 q 407 790 463 831 q 326 676 351 750 q 300 497 300 601 m 831 1304 q 791 1185 826 1238 q 697 1104 756 1133 q 561 1075 639 1075 q 372 1138 442 1075 q 297 1304 303 1200 l 413 1304 q 437 1247 417 1265 q 490 1224 457 1229 q 563 1219 524 1219 q 628 1226 596 1219 q 685 1250 661 1232 q 713 1304 708 1268 l 831 1304 z "},"ŏ":{"ha":868,"x_min":65,"x_max":801,"o":"m 801 381 q 776 213 801 286 q 702 89 750 139 q 586 13 654 39 q 432 -14 518 -14 q 285 13 351 -14 q 169 89 218 39 q 93 213 121 139 q 65 381 65 286 q 110 594 65 507 q 238 727 154 682 q 436 772 321 772 q 625 727 543 772 q 754 594 707 682 q 801 381 801 507 m 279 381 q 295 254 279 307 q 345 174 311 201 q 435 146 379 146 q 523 174 489 146 q 572 254 557 201 q 588 381 588 307 q 572 507 588 456 q 522 585 556 558 q 433 613 489 613 q 316 553 353 613 q 279 381 279 493 m 715 1071 q 676 952 711 1004 q 582 871 640 900 q 446 842 524 842 q 257 904 326 842 q 182 1071 188 967 l 297 1071 q 322 1014 301 1032 q 375 991 342 996 q 447 986 408 986 q 513 992 481 986 q 569 1017 546 999 q 597 1071 593 1035 l 715 1071 z "},"Ő":{"ha":1099,"x_min":76,"x_max":1021,"o":"m 1021 497 q 992 288 1021 382 q 906 126 964 194 q 760 22 849 58 q 549 -14 671 -14 q 338 22 428 -14 q 191 126 249 58 q 105 288 133 194 q 76 499 76 382 q 127 767 76 653 q 283 944 178 881 q 550 1007 388 1007 q 816 944 711 1007 q 971 766 921 881 q 1021 497 1021 651 m 300 497 q 326 319 300 394 q 407 205 351 244 q 549 165 463 165 q 692 205 638 165 q 772 319 747 244 q 797 497 797 394 q 740 742 797 653 q 550 831 683 831 q 407 790 463 831 q 326 676 351 750 q 300 497 300 601 m 842 1283 q 804 1238 831 1265 q 743 1179 778 1210 q 674 1122 708 1149 q 615 1075 640 1094 l 506 1075 l 506 1093 q 550 1156 525 1119 q 599 1229 575 1192 q 638 1297 622 1267 l 842 1297 l 842 1283 m 572 1283 q 535 1238 561 1265 q 474 1179 508 1210 q 405 1122 439 1149 q 346 1075 371 1094 l 236 1075 l 236 1093 q 280 1156 256 1119 q 328 1229 304 1192 q 368 1297 351 1267 l 572 1297 l 572 1283 z "},"ő":{"ha":868,"x_min":65,"x_max":801,"o":"m 801 381 q 776 213 801 286 q 702 89 750 139 q 586 13 654 39 q 432 -14 518 -14 q 285 13 351 -14 q 169 89 218 39 q 93 213 121 139 q 65 381 65 286 q 110 594 65 507 q 238 727 154 682 q 436 772 321 772 q 625 727 543 772 q 754 594 707 682 q 801 381 801 507 m 279 381 q 295 254 279 307 q 345 174 311 201 q 435 146 379 146 q 523 174 489 146 q 572 254 557 201 q 588 381 588 307 q 572 507 588 456 q 522 585 556 558 q 433 613 489 613 q 316 553 353 613 q 279 381 279 493 m 726 1050 q 689 1004 715 1032 q 628 946 663 976 q 559 888 593 915 q 500 842 525 861 l 390 842 l 390 860 q 435 922 410 886 q 483 996 460 958 q 522 1064 507 1033 l 726 1064 l 726 1050 m 457 1050 q 419 1004 446 1032 q 358 946 393 976 q 290 888 324 915 q 231 842 256 861 l 121 842 l 121 860 q 165 922 140 886 q 213 996 189 958 q 253 1064 236 1033 l 457 1064 l 457 1050 z "},"Œ":{"ha":1351,"x_min":81,"x_max":1269,"o":"m 526 1007 q 606 1003 563 1007 q 681 992 650 999 l 1269 992 l 1269 819 l 888 819 l 888 601 l 1244 601 l 1244 429 l 888 429 l 888 174 l 1269 174 l 1269 0 l 678 0 q 604 -10 647 -6 q 525 -14 561 -14 q 275 50 374 -14 q 128 229 176 114 q 81 499 81 344 q 128 767 81 653 q 275 944 176 881 q 526 1007 374 1007 m 526 832 q 424 809 467 832 q 353 742 381 786 q 311 637 325 699 q 297 497 297 575 q 322 318 297 393 q 397 203 346 243 q 525 163 447 163 q 608 169 565 163 q 678 189 651 176 l 678 804 q 610 825 653 818 q 526 832 567 832 z "},"œ":{"ha":1358,"x_min":63,"x_max":1299,"o":"m 949 772 q 1135 732 1057 772 q 1256 615 1214 692 q 1299 428 1299 539 l 1299 328 l 793 328 q 849 190 797 239 q 989 140 900 140 q 1128 155 1065 140 q 1256 200 1190 169 l 1256 40 q 1134 -1 1197 13 q 981 -14 1071 -14 q 822 12 894 -14 q 696 92 749 38 q 581 13 649 39 q 431 -14 513 -14 q 240 32 322 -14 q 110 166 157 78 q 63 381 63 254 q 106 594 63 507 q 231 726 149 681 q 429 772 314 772 q 574 746 506 772 q 689 667 642 719 q 762 726 722 703 q 849 760 801 749 q 949 772 896 772 m 429 606 q 310 549 347 606 q 274 381 274 493 q 290 255 274 306 q 340 178 306 204 q 431 153 375 153 q 520 178 486 153 q 570 255 554 204 q 586 381 586 306 q 570 506 586 456 q 519 581 554 556 q 429 606 485 606 m 953 625 q 847 586 889 625 q 799 465 806 547 l 1104 465 q 1087 547 1104 511 q 1037 604 1069 583 q 953 625 1004 625 z "},"Ŕ":{"ha":911,"x_min":118,"x_max":913,"o":"m 422 992 q 639 959 553 992 q 767 863 725 926 q 810 703 810 799 q 786 585 810 636 q 722 497 763 533 q 631 438 682 461 l 913 0 l 669 0 l 449 381 l 331 381 l 331 0 l 118 0 l 118 992 l 422 992 m 418 826 l 331 826 l 331 544 l 418 544 q 549 579 503 544 q 594 693 594 614 q 576 767 594 738 q 518 811 557 796 q 418 826 479 826 m 739 1283 q 686 1235 718 1264 q 617 1177 654 1207 q 544 1120 579 1147 q 482 1075 508 1093 l 343 1075 l 343 1093 q 395 1156 365 1119 q 455 1229 425 1192 q 504 1297 485 1267 l 739 1297 l 739 1283 z "},"ŕ":{"ha":621,"x_min":101,"x_max":625,"o":"m 521 772 q 566 770 542 772 q 604 764 590 768 l 583 568 q 547 574 568 571 q 497 576 526 576 q 433 567 465 576 q 372 535 400 557 q 328 476 344 513 q 311 385 311 440 l 311 0 l 101 0 l 101 758 l 261 758 l 292 631 l 301 631 q 357 703 324 671 q 432 753 390 735 q 521 772 474 772 m 626 1050 q 574 1002 606 1031 q 504 944 542 974 q 431 887 467 914 q 369 842 396 860 l 231 842 l 231 860 q 283 922 253 886 q 342 996 313 958 q 392 1064 372 1033 l 626 1064 l 626 1050 z "},"Ŗ":{"ha":911,"x_min":118,"x_max":913,"o":"m 422 992 q 639 959 553 992 q 767 863 725 926 q 810 703 810 799 q 786 585 810 636 q 722 497 763 533 q 631 438 682 461 l 913 0 l 669 0 l 449 381 l 331 381 l 331 0 l 118 0 l 118 992 l 422 992 m 418 826 l 331 826 l 331 544 l 418 544 q 549 579 503 544 q 594 693 594 614 q 576 767 594 738 q 518 811 557 796 q 418 826 479 826 m 594 -99 q 567 -167 583 -132 q 529 -237 550 -201 q 482 -307 508 -272 l 360 -307 l 360 -289 q 377 -224 368 -261 q 393 -150 386 -187 q 401 -85 400 -112 l 594 -85 l 594 -99 z "},"ŗ":{"ha":621,"x_min":90,"x_max":604,"o":"m 521 772 q 566 770 542 772 q 604 764 590 768 l 583 568 q 547 574 568 571 q 497 576 526 576 q 433 567 465 576 q 372 535 400 557 q 328 476 344 513 q 311 385 311 440 l 311 0 l 101 0 l 101 758 l 261 758 l 292 631 l 301 631 q 357 703 324 671 q 432 753 390 735 q 521 772 474 772 m 325 -99 q 297 -167 314 -132 q 260 -237 281 -201 q 213 -307 239 -272 l 90 -307 l 90 -289 q 108 -224 99 -261 q 124 -150 117 -187 q 132 -85 131 -112 l 325 -85 l 325 -99 z "},"Ř":{"ha":911,"x_min":118,"x_max":913,"o":"m 422 992 q 639 959 553 992 q 767 863 725 926 q 810 703 810 799 q 786 585 810 636 q 722 497 763 533 q 631 438 682 461 l 913 0 l 669 0 l 449 381 l 331 381 l 331 0 l 118 0 l 118 992 l 422 992 m 418 826 l 331 826 l 331 544 l 418 544 q 549 579 503 544 q 594 693 594 614 q 576 767 594 738 q 518 811 557 796 q 418 826 479 826 m 350 1075 q 299 1144 331 1107 q 235 1218 268 1182 q 176 1279 203 1254 l 176 1297 l 314 1297 q 392 1245 350 1275 q 469 1178 433 1215 q 549 1245 506 1215 q 628 1297 592 1275 l 765 1297 l 765 1279 q 707 1218 740 1254 q 642 1144 674 1182 q 592 1075 611 1107 l 350 1075 z "},"ř":{"ha":621,"x_min":64,"x_max":653,"o":"m 521 772 q 566 770 542 772 q 604 764 590 768 l 583 568 q 547 574 568 571 q 497 576 526 576 q 433 567 465 576 q 372 535 400 557 q 328 476 344 513 q 311 385 311 440 l 311 0 l 101 0 l 101 758 l 261 758 l 292 631 l 301 631 q 357 703 324 671 q 432 753 390 735 q 521 772 474 772 m 238 842 q 187 911 218 874 q 123 985 156 949 q 64 1046 90 1021 l 64 1064 l 201 1064 q 279 1012 238 1042 q 357 944 321 982 q 436 1012 393 982 q 515 1064 479 1042 l 653 1064 l 653 1046 q 594 985 628 1021 q 530 911 561 949 q 479 842 499 874 l 238 842 z "},"Ś":{"ha":765,"x_min":64,"x_max":710,"o":"m 710 275 q 667 122 710 188 q 542 22 624 57 q 344 -14 461 -14 q 244 -7 293 -14 q 149 13 194 0 q 64 46 104 26 l 64 242 q 210 185 135 211 q 361 160 286 160 q 444 174 413 160 q 490 211 475 188 q 504 265 504 235 q 478 329 504 303 q 410 378 453 356 q 311 428 367 401 q 236 467 276 444 q 159 524 196 490 q 99 607 122 558 q 75 724 75 656 q 116 876 75 813 q 233 972 157 939 q 411 1006 308 1006 q 559 988 489 1006 q 706 936 629 969 l 638 772 q 515 815 569 800 q 404 831 461 831 q 338 818 365 831 q 295 783 310 806 q 281 731 281 761 q 301 672 281 696 q 364 625 322 647 q 468 572 406 603 q 598 497 544 536 q 681 406 651 458 q 710 275 710 353 m 643 1283 q 590 1235 622 1264 q 521 1177 558 1207 q 448 1120 483 1147 q 386 1075 413 1093 l 247 1075 l 247 1093 q 299 1156 269 1119 q 359 1229 329 1192 q 408 1297 389 1267 l 643 1297 l 643 1283 z "},"ś":{"ha":697,"x_min":64,"x_max":639,"o":"m 639 224 q 605 98 639 151 q 501 15 571 44 q 325 -14 432 -14 q 183 -3 244 -14 q 65 31 122 7 l 65 204 q 197 158 126 175 q 319 142 268 142 q 412 160 383 142 q 440 208 440 178 q 426 246 440 229 q 374 281 411 263 q 269 325 338 299 q 156 383 201 353 q 87 454 110 413 q 64 558 64 496 q 147 717 64 663 q 365 772 229 772 q 502 757 439 772 q 631 714 565 742 l 569 571 q 461 610 517 594 q 363 625 406 625 q 289 610 315 625 q 263 569 263 596 q 277 535 263 550 q 328 503 292 519 q 432 460 365 486 q 547 403 500 433 q 616 331 593 374 q 639 224 639 289 m 626 1050 q 574 1002 606 1031 q 504 944 542 974 q 431 887 467 914 q 369 842 396 860 l 231 842 l 231 860 q 283 922 253 886 q 342 996 313 958 q 392 1064 372 1033 l 626 1064 l 626 1050 z "},"Ŝ":{"ha":765,"x_min":64,"x_max":710,"o":"m 710 275 q 667 122 710 188 q 542 22 624 57 q 344 -14 461 -14 q 244 -7 293 -14 q 149 13 194 0 q 64 46 104 26 l 64 242 q 210 185 135 211 q 361 160 286 160 q 444 174 413 160 q 490 211 475 188 q 504 265 504 235 q 478 329 504 303 q 410 378 453 356 q 311 428 367 401 q 236 467 276 444 q 159 524 196 490 q 99 607 122 558 q 75 724 75 656 q 116 876 75 813 q 233 972 157 939 q 411 1006 308 1006 q 559 988 489 1006 q 706 936 629 969 l 638 772 q 515 815 569 800 q 404 831 461 831 q 338 818 365 831 q 295 783 310 806 q 281 731 281 761 q 301 672 281 696 q 364 625 322 647 q 468 572 406 603 q 598 497 544 536 q 681 406 651 458 q 710 275 710 353 m 494 1297 q 545 1227 514 1265 q 610 1153 576 1189 q 668 1093 643 1118 l 668 1075 l 529 1075 q 458 1124 493 1096 q 388 1186 424 1153 q 318 1126 351 1153 q 249 1075 285 1099 l 110 1075 l 110 1093 q 169 1155 136 1119 q 233 1228 201 1190 q 283 1297 264 1265 l 494 1297 z "},"ŝ":{"ha":697,"x_min":64,"x_max":639,"o":"m 639 224 q 605 98 639 151 q 501 15 571 44 q 325 -14 432 -14 q 183 -3 244 -14 q 65 31 122 7 l 65 204 q 197 158 126 175 q 319 142 268 142 q 412 160 383 142 q 440 208 440 178 q 426 246 440 229 q 374 281 411 263 q 269 325 338 299 q 156 383 201 353 q 87 454 110 413 q 64 558 64 496 q 147 717 64 663 q 365 772 229 772 q 502 757 439 772 q 631 714 565 742 l 569 571 q 461 610 517 594 q 363 625 406 625 q 289 610 315 625 q 263 569 263 596 q 277 535 263 550 q 328 503 292 519 q 432 460 365 486 q 547 403 500 433 q 616 331 593 374 q 639 224 639 289 m 449 1064 q 499 994 468 1032 q 564 920 531 956 q 622 860 597 885 l 622 842 l 483 842 q 413 891 447 863 q 342 953 378 919 q 272 892 306 919 q 203 842 239 865 l 64 842 l 64 860 q 123 922 90 886 q 187 994 156 957 q 238 1064 218 1032 l 449 1064 z "},"Ş":{"ha":765,"x_min":64,"x_max":710,"o":"m 710 275 q 667 122 710 188 q 542 22 624 57 q 344 -14 461 -14 q 244 -7 293 -14 q 149 13 194 0 q 64 46 104 26 l 64 242 q 210 185 135 211 q 361 160 286 160 q 444 174 413 160 q 490 211 475 188 q 504 265 504 235 q 478 329 504 303 q 410 378 453 356 q 311 428 367 401 q 236 467 276 444 q 159 524 196 490 q 99 607 122 558 q 75 724 75 656 q 116 876 75 813 q 233 972 157 939 q 411 1006 308 1006 q 559 988 489 1006 q 706 936 629 969 l 638 772 q 515 815 569 800 q 404 831 461 831 q 338 818 365 831 q 295 783 310 806 q 281 731 281 761 q 301 672 281 696 q 364 625 322 647 q 468 572 406 603 q 598 497 544 536 q 681 406 651 458 q 710 275 710 353 m 529 -179 q 478 -292 529 -250 q 335 -333 426 -333 q 267 -328 299 -333 q 217 -317 236 -324 l 217 -207 q 258 -216 236 -212 q 300 -219 279 -219 q 355 -208 336 -219 q 374 -171 374 -196 q 346 -128 374 -143 q 265 -104 318 -112 l 314 0 l 425 0 l 404 -54 q 463 -74 433 -60 q 510 -114 492 -89 q 529 -179 529 -139 z "},"ş":{"ha":697,"x_min":64,"x_max":639,"o":"m 639 224 q 605 98 639 151 q 501 15 571 44 q 325 -14 432 -14 q 183 -3 244 -14 q 65 31 122 7 l 65 204 q 197 158 126 175 q 319 142 268 142 q 412 160 383 142 q 440 208 440 178 q 426 246 440 229 q 374 281 411 263 q 269 325 338 299 q 156 383 201 353 q 87 454 110 413 q 64 558 64 496 q 147 717 64 663 q 365 772 229 772 q 502 757 439 772 q 631 714 565 742 l 569 571 q 461 610 517 594 q 363 625 406 625 q 289 610 315 625 q 263 569 263 596 q 277 535 263 550 q 328 503 292 519 q 432 460 365 486 q 547 403 500 433 q 616 331 593 374 q 639 224 639 289 m 499 -179 q 447 -292 499 -250 q 304 -333 396 -333 q 237 -328 268 -333 q 186 -317 206 -324 l 186 -207 q 227 -216 206 -212 q 269 -219 249 -219 q 324 -208 306 -219 q 343 -171 343 -196 q 315 -128 343 -143 q 235 -104 288 -112 l 283 0 l 394 0 l 374 -54 q 432 -74 403 -60 q 480 -114 461 -89 q 499 -179 499 -139 z "},"Š":{"ha":765,"x_min":64,"x_max":710,"o":"m 710 275 q 667 122 710 188 q 542 22 624 57 q 344 -14 461 -14 q 244 -7 293 -14 q 149 13 194 0 q 64 46 104 26 l 64 242 q 210 185 135 211 q 361 160 286 160 q 444 174 413 160 q 490 211 475 188 q 504 265 504 235 q 478 329 504 303 q 410 378 453 356 q 311 428 367 401 q 236 467 276 444 q 159 524 196 490 q 99 607 122 558 q 75 724 75 656 q 116 876 75 813 q 233 972 157 939 q 411 1006 308 1006 q 559 988 489 1006 q 706 936 629 969 l 638 772 q 515 815 569 800 q 404 831 461 831 q 338 818 365 831 q 295 783 310 806 q 281 731 281 761 q 301 672 281 696 q 364 625 322 647 q 468 572 406 603 q 598 497 544 536 q 681 406 651 458 q 710 275 710 353 m 282 1075 q 231 1144 263 1107 q 167 1218 200 1182 q 108 1279 135 1254 l 108 1297 l 246 1297 q 324 1245 282 1275 q 401 1178 365 1215 q 481 1245 438 1215 q 560 1297 524 1275 l 697 1297 l 697 1279 q 639 1218 672 1254 q 574 1144 606 1182 q 524 1075 543 1107 l 282 1075 z "},"š":{"ha":697,"x_min":64,"x_max":653,"o":"m 639 224 q 605 98 639 151 q 501 15 571 44 q 325 -14 432 -14 q 183 -3 244 -14 q 65 31 122 7 l 65 204 q 197 158 126 175 q 319 142 268 142 q 412 160 383 142 q 440 208 440 178 q 426 246 440 229 q 374 281 411 263 q 269 325 338 299 q 156 383 201 353 q 87 454 110 413 q 64 558 64 496 q 147 717 64 663 q 365 772 229 772 q 502 757 439 772 q 631 714 565 742 l 569 571 q 461 610 517 594 q 363 625 406 625 q 289 610 315 625 q 263 569 263 596 q 277 535 263 550 q 328 503 292 519 q 432 460 365 486 q 547 403 500 433 q 616 331 593 374 q 639 224 639 289 m 238 842 q 187 911 218 874 q 123 985 156 949 q 64 1046 90 1021 l 64 1064 l 201 1064 q 279 1012 238 1042 q 357 944 321 982 q 436 1012 393 982 q 515 1064 479 1042 l 653 1064 l 653 1046 q 594 985 628 1021 q 530 911 561 949 q 479 842 499 874 l 238 842 z "},"Ț":{"ha":801,"x_min":26,"x_max":775,"o":"m 507 0 l 294 0 l 294 815 l 26 815 l 26 992 l 775 992 l 775 815 l 507 815 l 507 0 m 519 -99 q 492 -167 508 -132 q 454 -237 475 -201 q 407 -307 433 -272 l 285 -307 l 285 -289 q 302 -224 293 -261 q 318 -150 311 -187 q 326 -85 325 -112 l 519 -85 l 519 -99 z "},"ț":{"ha":603,"x_min":32,"x_max":558,"o":"m 428 151 q 494 158 463 151 q 558 175 526 165 l 558 21 q 476 -3 525 7 q 368 -14 426 -14 q 247 8 300 -14 q 162 85 193 31 q 131 238 131 140 l 131 603 l 32 603 l 32 690 l 146 760 l 206 919 l 338 919 l 338 758 l 550 758 l 550 603 l 338 603 l 338 238 q 363 173 338 194 q 428 151 388 151 m 456 -99 q 428 -167 444 -132 q 390 -237 411 -201 q 343 -307 369 -272 l 221 -307 l 221 -289 q 238 -224 229 -261 q 254 -150 247 -187 q 263 -85 261 -112 l 456 -85 l 456 -99 z "},"Ť":{"ha":801,"x_min":26,"x_max":775,"o":"m 507 0 l 294 0 l 294 815 l 26 815 l 26 992 l 775 992 l 775 815 l 507 815 l 507 0 m 296 1075 q 245 1144 276 1107 q 181 1218 214 1182 q 122 1279 149 1254 l 122 1297 l 260 1297 q 338 1245 296 1275 q 415 1178 379 1215 q 494 1245 451 1215 q 574 1297 538 1275 l 711 1297 l 711 1279 q 653 1218 686 1254 q 588 1144 619 1182 q 538 1075 557 1107 l 296 1075 z "},"ť":{"ha":603,"x_min":32,"x_max":792,"o":"m 792 1042 q 760 977 778 1011 q 723 907 743 943 q 679 833 703 871 l 558 833 l 558 851 q 570 898 564 872 q 582 951 576 924 q 592 1006 588 979 q 600 1056 597 1033 l 792 1056 l 792 1042 m 428 151 q 494 158 463 151 q 558 175 526 165 l 558 21 q 476 -3 525 7 q 368 -14 426 -14 q 247 8 300 -14 q 162 85 193 31 q 131 238 131 140 l 131 603 l 32 603 l 32 690 l 146 760 l 206 919 l 338 919 l 338 758 l 550 758 l 550 603 l 338 603 l 338 238 q 363 173 338 194 q 428 151 388 151 z "},"Ŧ":{"ha":801,"x_min":26,"x_max":775,"o":"m 294 0 l 294 403 l 128 403 l 128 576 l 294 576 l 294 814 l 26 814 l 26 992 l 775 992 l 775 814 l 507 814 l 507 576 l 674 576 l 674 403 l 507 403 l 507 0 l 294 0 z "},"ŧ":{"ha":603,"x_min":32,"x_max":558,"o":"m 43 336 l 43 472 l 519 472 l 519 336 l 43 336 m 428 151 q 494 158 463 151 q 558 175 526 165 l 558 21 q 476 -3 525 7 q 368 -14 426 -14 q 247 8 300 -14 q 162 85 193 31 q 131 238 131 140 l 131 603 l 32 603 l 32 690 l 146 760 l 206 919 l 338 919 l 338 758 l 550 758 l 550 603 l 338 603 l 338 238 q 363 173 338 194 q 428 151 388 151 z "},"Ũ":{"ha":1050,"x_min":118,"x_max":932,"o":"m 932 350 q 887 165 932 247 q 751 34 842 82 q 521 -14 660 -14 q 221 87 324 -14 q 118 353 118 188 l 118 992 l 328 992 l 328 385 q 378 213 328 263 q 526 163 428 163 q 639 186 596 163 q 702 260 682 210 q 722 386 722 310 l 722 992 l 932 992 l 932 350 m 207 1074 q 227 1167 211 1128 q 268 1233 243 1207 q 324 1271 293 1258 q 392 1283 356 1283 q 447 1273 419 1283 q 499 1248 474 1263 q 550 1223 525 1233 q 600 1213 575 1213 q 640 1231 621 1213 q 668 1285 660 1249 l 769 1285 q 708 1126 761 1178 q 585 1075 656 1075 q 531 1085 557 1075 q 478 1110 504 1096 q 426 1135 451 1125 q 376 1146 401 1146 q 336 1128 356 1146 q 308 1074 317 1110 l 207 1074 z "},"ũ":{"ha":903,"x_min":97,"x_max":800,"o":"m 800 758 l 800 0 l 639 0 l 613 97 l 600 97 q 540 33 576 58 q 459 -3 503 8 q 367 -14 415 -14 q 226 15 286 -14 q 131 106 165 44 q 97 264 97 167 l 97 758 l 308 758 l 308 317 q 337 195 308 236 q 428 154 365 154 q 527 183 492 154 q 576 267 563 211 q 590 403 590 322 l 590 758 l 800 758 m 178 840 q 198 934 182 894 q 239 999 214 974 q 295 1038 264 1025 q 363 1050 326 1050 q 417 1040 390 1050 q 470 1015 444 1029 q 521 990 496 1000 q 571 979 546 979 q 611 997 592 979 q 639 1051 631 1015 l 740 1051 q 679 893 732 944 q 556 842 626 842 q 501 852 528 842 q 449 877 475 863 q 397 902 422 892 q 347 913 372 913 q 307 894 326 913 q 279 840 288 876 l 178 840 z "},"Ū":{"ha":1050,"x_min":118,"x_max":932,"o":"m 932 350 q 887 165 932 247 q 751 34 842 82 q 521 -14 660 -14 q 221 87 324 -14 q 118 353 118 188 l 118 992 l 328 992 l 328 385 q 378 213 328 263 q 526 163 428 163 q 639 186 596 163 q 702 260 682 210 q 722 386 722 310 l 722 992 l 932 992 l 932 350 m 754 1211 l 754 1075 l 293 1075 l 293 1211 l 754 1211 z "},"ū":{"ha":903,"x_min":97,"x_max":800,"o":"m 800 758 l 800 0 l 639 0 l 613 97 l 600 97 q 540 33 576 58 q 459 -3 503 8 q 367 -14 415 -14 q 226 15 286 -14 q 131 106 165 44 q 97 264 97 167 l 97 758 l 308 758 l 308 317 q 337 195 308 236 q 428 154 365 154 q 527 183 492 154 q 576 267 563 211 q 590 403 590 322 l 590 758 l 800 758 m 682 978 l 682 842 l 221 842 l 221 978 l 682 978 z "},"Ŭ":{"ha":1050,"x_min":118,"x_max":932,"o":"m 932 350 q 887 165 932 247 q 751 34 842 82 q 521 -14 660 -14 q 221 87 324 -14 q 118 353 118 188 l 118 992 l 328 992 l 328 385 q 378 213 328 263 q 526 163 428 163 q 639 186 596 163 q 702 260 682 210 q 722 386 722 310 l 722 992 l 932 992 l 932 350 m 803 1304 q 763 1185 799 1238 q 669 1104 728 1133 q 533 1075 611 1075 q 344 1138 414 1075 q 269 1304 275 1200 l 385 1304 q 409 1247 389 1265 q 463 1224 429 1229 q 535 1219 496 1219 q 601 1226 568 1219 q 657 1250 633 1232 q 685 1304 681 1268 l 803 1304 z "},"ŭ":{"ha":903,"x_min":97,"x_max":800,"o":"m 800 758 l 800 0 l 639 0 l 613 97 l 600 97 q 540 33 576 58 q 459 -3 503 8 q 367 -14 415 -14 q 226 15 286 -14 q 131 106 165 44 q 97 264 97 167 l 97 758 l 308 758 l 308 317 q 337 195 308 236 q 428 154 365 154 q 527 183 492 154 q 576 267 563 211 q 590 403 590 322 l 590 758 l 800 758 m 732 1071 q 692 952 728 1004 q 599 871 657 900 q 463 842 540 842 q 274 904 343 842 q 199 1071 204 967 l 314 1071 q 338 1014 318 1032 q 392 991 358 996 q 464 986 425 986 q 530 992 497 986 q 586 1017 563 999 q 614 1071 610 1035 l 732 1071 z "},"Ů":{"ha":1050,"x_min":118,"x_max":932,"o":"m 932 350 q 887 165 932 247 q 751 34 842 82 q 521 -14 660 -14 q 221 87 324 -14 q 118 353 118 188 l 118 992 l 328 992 l 328 385 q 378 213 328 263 q 526 163 428 163 q 639 186 596 163 q 702 260 682 210 q 722 386 722 310 l 722 992 l 932 992 l 932 350 m 506 1074 q 384 1117 431 1074 q 338 1235 338 1160 q 384 1354 338 1311 q 506 1397 431 1397 q 628 1354 578 1397 q 679 1236 679 1311 q 629 1117 679 1160 q 506 1074 579 1074 m 506 1169 q 552 1188 533 1169 q 571 1235 571 1206 q 552 1283 571 1265 q 506 1300 533 1300 q 459 1283 478 1300 q 440 1235 440 1265 q 457 1188 440 1206 q 506 1169 474 1169 z "},"ů":{"ha":903,"x_min":97,"x_max":800,"o":"m 800 758 l 800 0 l 639 0 l 613 97 l 600 97 q 540 33 576 58 q 459 -3 503 8 q 367 -14 415 -14 q 226 15 286 -14 q 131 106 165 44 q 97 264 97 167 l 97 758 l 308 758 l 308 317 q 337 195 308 236 q 428 154 365 154 q 527 183 492 154 q 576 267 563 211 q 590 403 590 322 l 590 758 l 800 758 m 449 840 q 327 883 374 840 q 281 1001 281 926 q 327 1121 281 1078 q 449 1164 374 1164 q 572 1121 521 1164 q 622 1003 622 1078 q 572 883 622 926 q 449 840 522 840 m 449 936 q 495 954 476 936 q 514 1001 514 972 q 495 1049 514 1032 q 449 1067 476 1067 q 402 1049 421 1067 q 383 1001 383 1032 q 400 954 383 972 q 449 936 417 936 z "},"Ű":{"ha":1050,"x_min":118,"x_max":932,"o":"m 932 350 q 887 165 932 247 q 751 34 842 82 q 521 -14 660 -14 q 221 87 324 -14 q 118 353 118 188 l 118 992 l 328 992 l 328 385 q 378 213 328 263 q 526 163 428 163 q 639 186 596 163 q 702 260 682 210 q 722 386 722 310 l 722 992 l 932 992 l 932 350 m 815 1283 q 778 1238 804 1265 q 717 1179 751 1210 q 648 1122 682 1149 q 589 1075 614 1094 l 479 1075 l 479 1093 q 524 1156 499 1119 q 572 1229 549 1192 q 611 1297 596 1267 l 815 1297 l 815 1283 m 546 1283 q 508 1238 535 1265 q 447 1179 482 1210 q 378 1122 413 1149 q 319 1075 344 1094 l 210 1075 l 210 1093 q 253 1156 229 1119 q 301 1229 278 1192 q 342 1297 325 1267 l 546 1297 l 546 1283 z "},"ű":{"ha":903,"x_min":97,"x_max":800,"o":"m 800 758 l 800 0 l 639 0 l 613 97 l 600 97 q 540 33 576 58 q 459 -3 503 8 q 367 -14 415 -14 q 226 15 286 -14 q 131 106 165 44 q 97 264 97 167 l 97 758 l 308 758 l 308 317 q 337 195 308 236 q 428 154 365 154 q 527 183 492 154 q 576 267 563 211 q 590 403 590 322 l 590 758 l 800 758 m 743 1050 q 706 1004 732 1032 q 644 946 679 976 q 576 888 610 915 q 517 842 542 861 l 407 842 l 407 860 q 451 922 426 886 q 500 996 476 958 q 539 1064 524 1033 l 743 1064 l 743 1050 m 474 1050 q 436 1004 463 1032 q 375 946 410 976 q 306 888 340 915 q 247 842 272 861 l 138 842 l 138 860 q 181 922 157 886 q 229 996 206 958 q 269 1064 253 1033 l 474 1064 l 474 1050 z "},"Ų":{"ha":1050,"x_min":118,"x_max":932,"o":"m 674 -139 q 690 -192 674 -174 q 731 -210 707 -210 q 772 -206 753 -210 q 806 -197 792 -201 l 806 -318 q 758 -328 783 -324 q 700 -333 733 -333 q 576 -289 622 -333 q 531 -168 531 -244 q 551 -78 531 -121 q 607 1 572 -35 q 683 60 642 36 l 814 79 q 734 -4 765 35 q 688 -76 703 -43 q 674 -139 674 -108 m 932 350 q 887 165 932 247 q 751 34 842 82 q 521 -14 660 -14 q 221 87 324 -14 q 118 353 118 188 l 118 992 l 328 992 l 328 385 q 378 213 328 263 q 526 163 428 163 q 639 186 596 163 q 702 260 682 210 q 722 386 722 310 l 722 992 l 932 992 l 932 350 z "},"ų":{"ha":903,"x_min":97,"x_max":800,"o":"m 800 758 l 800 0 l 639 0 l 613 97 l 600 97 q 540 33 576 58 q 459 -3 503 8 q 367 -14 415 -14 q 226 15 286 -14 q 131 106 165 44 q 97 264 97 167 l 97 758 l 308 758 l 308 317 q 337 195 308 236 q 428 154 365 154 q 527 183 492 154 q 576 267 563 211 q 590 403 590 322 l 590 758 l 800 758 m 668 -144 q 683 -185 668 -172 q 724 -197 699 -197 q 765 -193 744 -197 q 800 -185 786 -189 l 800 -307 q 753 -317 778 -312 q 694 -322 728 -322 q 570 -283 617 -322 q 524 -176 524 -243 q 540 -106 524 -140 q 590 -38 557 -72 q 669 29 622 -4 l 760 0 q 690 -76 713 -44 q 668 -144 668 -108 z "},"Ŵ":{"ha":1343,"x_min":0,"x_max":1343,"o":"m 1343 992 l 1090 0 l 851 0 l 717 521 q 706 567 713 536 q 692 633 700 597 q 679 702 685 669 q 671 753 674 735 q 663 702 669 735 q 650 634 657 669 q 636 567 643 599 q 625 519 629 536 l 492 0 l 253 0 l 0 992 l 207 992 l 333 450 q 346 392 339 426 q 360 322 353 358 q 373 250 367 285 q 382 190 379 215 q 390 251 385 217 q 403 320 396 285 q 416 387 410 356 q 428 436 422 418 l 572 992 l 771 992 l 915 436 q 926 387 919 418 q 940 319 933 356 q 953 249 947 283 q 961 190 958 215 q 974 273 965 225 q 992 369 982 321 q 1010 450 1003 418 l 1136 992 l 1343 992 m 772 1297 q 823 1227 792 1265 q 888 1153 854 1189 q 946 1093 921 1118 l 946 1075 l 807 1075 q 736 1124 771 1096 q 665 1186 701 1153 q 596 1126 629 1153 q 526 1075 563 1099 l 388 1075 l 388 1093 q 447 1155 414 1119 q 510 1228 479 1190 q 561 1297 542 1265 l 772 1297 z "},"ŵ":{"ha":1197,"x_min":14,"x_max":1175,"o":"m 674 265 q 658 335 668 289 q 635 435 647 382 q 611 534 622 489 q 596 600 600 579 l 590 600 q 576 534 586 579 q 553 435 565 489 q 529 335 540 382 q 513 263 518 288 l 451 0 l 229 0 l 14 758 l 219 758 l 307 422 q 324 339 317 388 q 339 245 332 290 q 349 174 346 200 l 354 174 q 360 226 356 193 q 370 293 364 258 q 381 356 376 328 q 389 394 386 385 l 482 758 l 710 758 l 799 394 q 812 332 804 375 q 826 244 819 289 q 832 174 832 200 l 838 174 q 847 242 840 197 q 863 338 854 288 q 882 422 872 388 l 972 758 l 1175 758 l 957 0 l 732 0 l 674 265 m 704 1064 q 755 994 724 1032 q 819 920 786 956 q 878 860 853 885 l 878 842 l 739 842 q 668 891 703 863 q 597 953 633 919 q 528 892 561 919 q 458 842 494 865 l 319 842 l 319 860 q 378 922 346 886 q 442 994 411 957 q 493 1064 474 1032 l 704 1064 z "},"Ŷ":{"ha":869,"x_min":0,"x_max":869,"o":"m 435 576 l 639 992 l 869 992 l 542 386 l 542 0 l 328 0 l 328 379 l 0 992 l 231 992 l 435 576 m 540 1297 q 591 1227 560 1265 q 656 1153 622 1189 q 714 1093 689 1118 l 714 1075 l 575 1075 q 504 1124 539 1096 q 433 1186 469 1153 q 364 1126 397 1153 q 294 1075 331 1099 l 156 1075 l 156 1093 q 215 1155 182 1119 q 278 1228 247 1190 q 329 1297 310 1265 l 540 1297 z "},"ŷ":{"ha":793,"x_min":0,"x_max":793,"o":"m 0 758 l 221 758 l 364 325 q 377 283 371 304 q 388 239 383 261 q 396 196 393 217 l 401 196 q 416 260 406 225 q 436 325 426 294 l 576 758 l 793 758 l 482 -69 q 409 -213 451 -154 q 306 -303 367 -272 q 154 -333 244 -333 q 93 -330 119 -333 q 49 -322 67 -326 l 49 -157 q 85 -162 64 -160 q 131 -165 107 -165 q 203 -148 174 -165 q 251 -102 232 -131 q 285 -37 271 -74 l 301 6 l 0 758 m 503 1064 q 553 994 522 1032 q 618 920 585 956 q 676 860 651 885 l 676 842 l 538 842 q 467 891 501 863 q 396 953 432 919 q 326 892 360 919 q 257 842 293 865 l 118 842 l 118 860 q 177 922 144 886 q 241 994 210 957 q 292 1064 272 1032 l 503 1064 z "},"Ÿ":{"ha":869,"x_min":0,"x_max":869,"o":"m 435 576 l 639 992 l 869 992 l 542 386 l 542 0 l 328 0 l 328 379 l 0 992 l 231 992 l 435 576 m 189 1186 q 217 1257 189 1235 q 285 1279 244 1279 q 352 1257 324 1279 q 381 1186 381 1235 q 352 1118 381 1140 q 285 1096 324 1096 q 217 1118 244 1096 q 189 1186 189 1140 m 489 1186 q 516 1257 489 1235 q 585 1279 543 1279 q 652 1257 624 1279 q 681 1186 681 1235 q 652 1118 681 1140 q 585 1096 624 1096 q 516 1118 543 1096 q 489 1186 489 1140 z "},"Ź":{"ha":804,"x_min":33,"x_max":771,"o":"m 771 0 l 33 0 l 33 136 l 508 818 l 46 818 l 46 992 l 758 992 l 758 856 l 283 174 l 771 174 l 771 0 m 658 1283 q 606 1235 638 1264 q 536 1177 574 1207 q 463 1120 499 1147 q 401 1075 428 1093 l 263 1075 l 263 1093 q 315 1156 285 1119 q 374 1229 344 1192 q 424 1297 404 1267 l 658 1297 l 658 1283 z "},"ź":{"ha":685,"x_min":42,"x_max":642,"o":"m 642 0 l 42 0 l 42 124 l 392 599 l 61 599 l 61 758 l 629 758 l 629 624 l 289 161 l 642 161 l 642 0 m 626 1050 q 574 1002 606 1031 q 504 944 542 974 q 431 887 467 914 q 369 842 396 860 l 231 842 l 231 860 q 283 922 253 886 q 342 996 313 958 q 392 1064 372 1033 l 626 1064 l 626 1050 z "},"Ż":{"ha":804,"x_min":33,"x_max":771,"o":"m 771 0 l 33 0 l 33 136 l 508 818 l 46 818 l 46 992 l 758 992 l 758 856 l 283 174 l 771 174 l 771 0 m 411 1290 q 491 1269 457 1290 q 525 1188 525 1247 q 491 1108 525 1131 q 411 1086 457 1086 q 331 1108 364 1086 q 297 1188 297 1131 q 331 1269 297 1247 q 411 1290 364 1290 z "},"ż":{"ha":685,"x_min":42,"x_max":642,"o":"m 642 0 l 42 0 l 42 124 l 392 599 l 61 599 l 61 758 l 629 758 l 629 624 l 289 161 l 642 161 l 642 0 m 343 1057 q 423 1035 389 1057 q 457 954 457 1014 q 423 875 457 897 q 343 853 389 853 q 263 875 296 853 q 229 954 229 897 q 263 1035 229 1014 q 343 1057 296 1057 z "},"Ž":{"ha":804,"x_min":33,"x_max":771,"o":"m 771 0 l 33 0 l 33 136 l 508 818 l 46 818 l 46 992 l 758 992 l 758 856 l 283 174 l 771 174 l 771 0 m 297 1075 q 247 1144 278 1107 q 183 1218 215 1182 q 124 1279 150 1254 l 124 1297 l 261 1297 q 339 1245 297 1275 q 417 1178 381 1215 q 496 1245 453 1215 q 575 1297 539 1275 l 713 1297 l 713 1279 q 654 1218 688 1254 q 590 1144 621 1182 q 539 1075 558 1107 l 297 1075 z "},"ž":{"ha":685,"x_min":42,"x_max":653,"o":"m 642 0 l 42 0 l 42 124 l 392 599 l 61 599 l 61 758 l 629 758 l 629 624 l 289 161 l 642 161 l 642 0 m 238 842 q 187 911 218 874 q 123 985 156 949 q 64 1046 90 1021 l 64 1064 l 201 1064 q 279 1012 238 1042 q 357 944 321 982 q 436 1012 393 982 q 515 1064 479 1042 l 653 1064 l 653 1046 q 594 985 628 1021 q 530 911 561 949 q 479 842 499 874 l 238 842 z "},"ſ":{"ha":532,"x_min":108,"x_max":564,"o":"m 401 899 q 335 872 354 899 q 315 806 315 846 l 315 0 l 108 0 l 108 814 q 141 965 108 911 q 234 1040 174 1018 q 375 1063 294 1063 q 488 1053 442 1063 q 564 1031 533 1043 l 515 879 q 465 892 492 886 q 401 899 438 899 z "},"ƒ":{"ha":718,"x_min":8,"x_max":781,"o":"m 260 -335 q 70 -269 132 -335 q 8 -101 8 -204 q 17 -31 8 -61 q 35 21 25 -1 l 200 -33 q 190 -69 193 -51 q 186 -106 186 -87 q 204 -162 186 -142 q 250 -182 222 -182 q 302 -157 282 -182 q 322 -83 322 -132 l 322 603 l 208 603 l 208 703 l 322 758 l 322 814 q 355 965 322 911 q 448 1040 388 1018 q 590 1063 508 1063 q 701 1053 651 1063 q 781 1031 750 1043 l 728 879 q 676 892 704 886 q 613 899 649 899 q 549 872 569 899 q 529 806 529 846 l 529 758 l 708 758 l 708 603 l 529 603 l 529 -67 q 496 -217 529 -157 q 402 -306 463 -276 q 260 -335 342 -335 z "},"Ǻ":{"ha":960,"x_min":0,"x_max":961,"o":"m 340 911 q 317 945 325 925 q 310 990 310 965 q 356 1110 310 1067 q 478 1153 403 1153 q 601 1110 550 1153 q 651 992 651 1068 q 643 945 651 967 q 621 910 635 924 l 961 0 l 732 0 l 656 218 l 303 218 l 229 0 l 0 0 l 340 911 m 356 396 l 608 396 l 536 594 q 518 651 529 618 q 497 722 507 685 q 481 789 488 758 q 454 688 469 743 q 426 594 439 633 l 356 396 m 478 925 q 524 943 506 925 q 543 990 543 961 q 524 1038 543 1021 q 478 1056 506 1056 q 432 1038 451 1056 q 413 990 413 1021 q 430 943 413 961 q 478 925 447 925 m 383 1204 q 424 1244 403 1222 q 467 1288 446 1265 q 501 1331 488 1311 l 736 1331 l 736 1318 q 700 1288 725 1306 q 642 1252 675 1271 q 578 1217 610 1233 q 522 1189 546 1200 l 383 1189 l 383 1204 z "},"ǻ":{"ha":832,"x_min":56,"x_max":733,"o":"m 440 772 q 658 705 583 772 q 733 506 733 638 l 733 0 l 588 0 l 547 103 l 542 103 q 476 36 510 63 q 397 -2 442 10 q 289 -14 353 -14 q 169 12 222 -14 q 86 91 117 38 q 56 226 56 144 q 140 406 56 347 q 399 469 225 464 l 525 474 l 525 497 q 494 592 525 565 q 408 619 464 619 q 303 603 357 619 q 196 563 249 586 l 135 706 q 272 754 194 736 q 440 772 349 772 m 446 347 q 308 313 347 344 q 269 229 269 282 q 297 160 269 181 q 369 139 324 139 q 480 178 435 139 q 525 289 525 217 l 525 351 l 446 347 m 425 1054 q 378 1037 397 1054 q 360 989 360 1019 q 376 942 360 960 q 425 924 393 924 q 472 942 453 924 q 490 989 490 960 q 471 1037 490 1019 q 425 1054 451 1054 m 425 1151 q 513 1132 474 1151 q 574 1076 551 1113 q 597 990 597 1040 q 548 871 597 914 q 425 828 499 828 q 303 871 349 828 q 257 989 257 914 q 303 1108 257 1065 q 425 1151 349 1151 m 668 1328 q 615 1287 654 1313 q 532 1236 576 1261 q 456 1194 488 1211 l 317 1194 l 317 1206 q 358 1246 336 1224 q 400 1292 379 1268 q 435 1336 421 1317 l 668 1336 l 668 1328 z "},"Ǽ":{"ha":1322,"x_min":0,"x_max":1240,"o":"m 1240 0 l 649 0 l 649 236 l 315 236 l 214 0 l 0 0 l 444 992 l 1240 992 l 1240 819 l 858 819 l 858 601 l 1215 601 l 1215 429 l 858 429 l 858 174 l 1240 174 l 1240 0 m 392 413 l 649 413 l 649 813 l 563 813 l 392 413 m 951 1283 q 899 1235 931 1264 q 829 1177 867 1207 q 756 1120 792 1147 q 694 1075 721 1093 l 556 1075 l 556 1093 q 608 1156 578 1119 q 667 1229 638 1192 q 717 1297 697 1267 l 951 1297 l 951 1283 z "},"ǽ":{"ha":1274,"x_min":58,"x_max":1214,"o":"m 890 772 q 1059 732 986 772 q 1173 615 1132 692 q 1214 428 1214 539 l 1214 328 l 724 328 q 776 190 726 240 q 913 140 825 140 q 1044 155 982 140 q 1171 200 1107 169 l 1171 40 q 1053 -1 1114 13 q 901 -14 992 -14 q 785 1 840 -14 q 685 48 729 17 q 607 126 640 79 q 526 47 567 78 q 432 1 485 15 q 300 -14 379 -14 q 180 12 235 -14 q 92 91 125 38 q 58 226 58 144 q 95 359 58 307 q 205 438 132 411 q 386 468 278 464 l 515 472 l 515 529 q 485 599 515 576 q 403 621 456 621 q 298 606 349 621 q 196 568 247 592 l 129 706 q 263 756 189 738 q 415 774 336 774 q 550 751 492 774 q 647 685 608 729 q 751 751 692 729 q 890 772 810 772 m 439 349 q 308 313 344 346 q 271 225 271 279 q 297 158 271 178 q 365 138 322 138 q 442 155 408 138 q 495 206 475 172 q 515 289 515 240 l 515 351 l 439 349 m 886 625 q 776 586 818 625 q 728 465 735 547 l 1019 465 q 1003 547 1019 511 q 958 604 988 583 q 886 625 929 625 m 896 1050 q 843 1002 875 1031 q 774 944 811 974 q 701 887 736 914 q 639 842 665 860 l 500 842 l 500 860 q 552 922 522 886 q 612 996 582 958 q 661 1064 642 1033 l 896 1064 l 896 1050 z "},"Ǿ":{"ha":1099,"x_min":76,"x_max":1021,"o":"m 1021 497 q 992 288 1021 382 q 906 126 964 194 q 760 22 849 58 q 549 -14 671 -14 q 425 -3 482 -14 q 322 29 368 8 l 261 -61 l 149 11 l 211 103 q 110 272 143 171 q 76 499 76 372 q 127 767 76 653 q 283 944 178 881 q 550 1007 388 1007 q 676 995 618 1007 q 783 960 735 983 l 839 1044 l 951 975 l 890 885 q 989 719 957 818 q 1021 497 1021 621 m 797 497 q 763 694 797 619 l 426 192 q 482 172 451 179 q 549 165 513 165 q 692 205 638 165 q 772 319 747 244 q 797 497 797 394 m 300 497 q 308 383 300 435 q 338 290 317 331 l 676 800 q 619 822 651 814 q 550 831 588 831 q 407 790 463 831 q 326 676 351 750 q 300 497 300 601 m 836 1283 q 783 1235 815 1264 q 714 1177 751 1207 q 641 1120 676 1147 q 579 1075 606 1093 l 440 1075 l 440 1093 q 492 1156 463 1119 q 552 1229 522 1192 q 601 1297 582 1267 l 836 1297 l 836 1283 z "},"ǿ":{"ha":860,"x_min":63,"x_max":797,"o":"m 797 381 q 752 166 797 254 q 624 32 707 78 q 428 -14 542 -14 q 345 -6 385 -14 q 269 17 306 3 l 224 -51 l 119 19 l 165 88 q 90 212 117 139 q 63 381 63 285 q 161 671 63 569 q 432 772 260 772 q 520 763 478 772 q 600 738 563 754 l 638 793 l 740 719 l 701 663 q 772 542 747 613 q 797 381 797 471 m 274 381 q 277 319 274 347 q 286 268 281 292 l 501 590 q 469 601 488 597 q 429 606 450 606 q 310 549 347 606 q 274 381 274 493 m 586 381 q 584 432 586 408 q 578 476 582 456 l 368 163 q 397 155 382 157 q 431 153 413 153 q 520 178 486 153 q 570 255 554 204 q 586 381 586 306 m 681 1050 q 628 1002 660 1031 q 558 944 596 974 q 485 887 521 914 q 424 842 450 860 l 285 842 l 285 860 q 337 922 307 886 q 397 996 367 958 q 446 1064 426 1033 l 681 1064 l 681 1050 z "},"Ș":{"ha":765,"x_min":64,"x_max":710,"o":"m 710 275 q 667 122 710 188 q 542 22 624 57 q 344 -14 461 -14 q 244 -7 293 -14 q 149 13 194 0 q 64 46 104 26 l 64 242 q 210 185 135 211 q 361 160 286 160 q 444 174 413 160 q 490 211 475 188 q 504 265 504 235 q 478 329 504 303 q 410 378 453 356 q 311 428 367 401 q 236 467 276 444 q 159 524 196 490 q 99 607 122 558 q 75 724 75 656 q 116 876 75 813 q 233 972 157 939 q 411 1006 308 1006 q 559 988 489 1006 q 706 936 629 969 l 638 772 q 515 815 569 800 q 404 831 461 831 q 338 818 365 831 q 295 783 310 806 q 281 731 281 761 q 301 672 281 696 q 364 625 322 647 q 468 572 406 603 q 598 497 544 536 q 681 406 651 458 q 710 275 710 353 m 493 -99 q 465 -167 482 -132 q 428 -237 449 -201 q 381 -307 407 -272 l 258 -307 l 258 -289 q 276 -224 267 -261 q 292 -150 285 -187 q 300 -85 299 -112 l 493 -85 l 493 -99 z "},"ș":{"ha":697,"x_min":64,"x_max":639,"o":"m 639 224 q 605 98 639 151 q 501 15 571 44 q 325 -14 432 -14 q 183 -3 244 -14 q 65 31 122 7 l 65 204 q 197 158 126 175 q 319 142 268 142 q 412 160 383 142 q 440 208 440 178 q 426 246 440 229 q 374 281 411 263 q 269 325 338 299 q 156 383 201 353 q 87 454 110 413 q 64 558 64 496 q 147 717 64 663 q 365 772 229 772 q 502 757 439 772 q 631 714 565 742 l 569 571 q 461 610 517 594 q 363 625 406 625 q 289 610 315 625 q 263 569 263 596 q 277 535 263 550 q 328 503 292 519 q 432 460 365 486 q 547 403 500 433 q 616 331 593 374 q 639 224 639 289 m 460 -99 q 432 -167 449 -132 q 394 -237 415 -201 q 347 -307 374 -272 l 225 -307 l 225 -289 q 242 -224 233 -261 q 258 -150 251 -187 q 267 -85 265 -112 l 460 -85 l 460 -99 z "},"ˆ":{"ha":669,"x_min":56,"x_max":614,"o":"m 440 1064 q 491 994 460 1032 q 556 920 522 956 q 614 860 589 885 l 614 842 l 475 842 q 404 891 439 863 q 333 953 369 919 q 264 892 297 919 q 194 842 231 865 l 56 842 l 56 860 q 115 922 82 886 q 178 994 147 957 q 229 1064 210 1032 l 440 1064 z "},"ˇ":{"ha":700,"x_min":56,"x_max":644,"o":"m 229 842 q 178 911 210 874 q 115 985 147 949 q 56 1046 82 1021 l 56 1064 l 193 1064 q 271 1012 229 1042 q 349 944 313 982 q 428 1012 385 982 q 507 1064 471 1042 l 644 1064 l 644 1046 q 586 985 619 1021 q 522 911 553 949 q 471 842 490 874 l 229 842 z "},"ˉ":{"ha":572,"x_min":56,"x_max":517,"o":"m 517 978 l 517 842 l 56 842 l 56 978 l 517 978 z "},"˘":{"ha":644,"x_min":56,"x_max":589,"o":"m 589 1071 q 549 952 585 1004 q 456 871 514 900 q 319 842 397 842 q 131 904 200 842 q 56 1071 61 967 l 171 1071 q 195 1014 175 1032 q 249 991 215 996 q 321 986 282 986 q 387 992 354 986 q 443 1017 419 999 q 471 1071 467 1035 l 589 1071 z "},"˙":{"ha":339,"x_min":56,"x_max":283,"o":"m 169 1057 q 249 1035 215 1057 q 283 954 283 1014 q 249 875 283 897 q 169 853 215 853 q 89 875 122 853 q 56 954 56 897 q 89 1035 56 1014 q 169 1057 122 1057 z "},"˚":{"ha":453,"x_min":56,"x_max":397,"o":"m 224 840 q 102 883 149 840 q 56 1001 56 926 q 102 1121 56 1078 q 224 1164 149 1164 q 347 1121 296 1164 q 397 1003 397 1078 q 347 883 397 926 q 224 840 297 840 m 224 936 q 270 954 251 936 q 289 1001 289 972 q 270 1049 289 1032 q 224 1067 251 1067 q 177 1049 196 1067 q 158 1001 158 1032 q 175 954 158 972 q 224 936 192 936 z "},"˛":{"ha":388,"x_min":56,"x_max":332,"o":"m 200 -144 q 215 -185 200 -172 q 256 -197 231 -197 q 297 -193 276 -197 q 332 -185 318 -189 l 332 -307 q 285 -317 310 -312 q 226 -322 260 -322 q 102 -283 149 -322 q 56 -176 56 -243 q 72 -106 56 -140 q 122 -38 89 -72 q 201 29 154 -4 l 292 0 q 222 -76 244 -44 q 200 -144 200 -108 z "},"˜":{"ha":674,"x_min":56,"x_max":618,"o":"m 56 840 q 76 934 60 894 q 117 999 92 974 q 173 1038 142 1025 q 240 1050 204 1050 q 295 1040 268 1050 q 348 1015 322 1029 q 399 990 374 1000 q 449 979 424 979 q 489 997 469 979 q 517 1051 508 1015 l 618 1051 q 557 893 610 944 q 433 842 504 842 q 379 852 406 842 q 326 877 353 863 q 275 902 300 892 q 225 913 250 913 q 185 894 204 913 q 157 840 165 876 l 56 840 z "},"˝":{"ha":717,"x_min":56,"x_max":661,"o":"m 661 1050 q 624 1004 650 1032 q 563 946 597 976 q 494 888 528 915 q 435 842 460 861 l 325 842 l 325 860 q 369 922 344 886 q 418 996 394 958 q 457 1064 442 1033 l 661 1064 l 661 1050 m 392 1050 q 354 1004 381 1032 q 293 946 328 976 q 224 888 258 915 q 165 842 190 861 l 56 842 l 56 860 q 99 922 75 886 q 147 996 124 958 q 188 1064 171 1033 l 392 1064 l 392 1050 z "},"΄":{"ha":403,"x_min":56,"x_max":347,"o":"m 56 842 l 56 860 l 121 1078 l 347 1078 l 347 1064 l 186 842 l 56 842 z "},"΅":{"ha":1097,"x_min":189,"x_max":908,"o":"m 424 842 l 424 860 l 475 1078 l 707 1078 l 707 1064 l 563 842 l 424 842 m 283 863 q 217 885 244 863 q 189 953 189 907 q 217 1023 189 1001 q 283 1044 244 1044 q 351 1023 322 1044 q 379 953 379 1001 q 351 885 379 907 q 283 863 322 863 m 813 863 q 745 885 774 863 q 717 953 717 907 q 744 1023 717 1001 q 813 1044 772 1044 q 880 1023 851 1044 q 908 953 908 1001 q 880 885 908 907 q 813 863 851 863 z "},"Ά":{"ha":1106,"x_min":14,"x_max":1106,"o":"m 876 0 l 800 233 l 450 233 l 374 0 l 144 0 l 493 996 l 754 996 l 1106 0 l 876 0 m 682 626 q 665 689 676 647 q 642 774 653 731 q 624 846 631 818 q 608 772 618 814 q 588 692 597 731 q 571 626 578 653 l 500 411 l 751 411 l 682 626 m 14 756 l 14 774 l 79 992 l 306 992 l 306 978 l 144 756 l 14 756 z "},"·":{"ha":390,"x_min":75,"x_max":315,"o":"m 75 656 q 110 747 75 721 q 196 772 146 772 q 280 747 244 772 q 315 656 315 721 q 280 567 315 594 q 196 540 244 540 q 110 567 146 540 q 75 656 75 594 z "},"Έ":{"ha":1089,"x_min":14,"x_max":1007,"o":"m 1007 0 l 436 0 l 436 992 l 1007 992 l 1007 819 l 646 819 l 646 601 l 982 601 l 982 429 l 646 429 l 646 174 l 1007 174 l 1007 0 m 14 756 l 14 774 l 79 992 l 306 992 l 306 978 l 144 756 l 14 756 z "},"Ή":{"ha":1374,"x_min":14,"x_max":1249,"o":"m 1249 0 l 1039 0 l 1039 428 l 646 428 l 646 0 l 436 0 l 436 992 l 646 992 l 646 603 l 1039 603 l 1039 992 l 1249 992 l 1249 0 m 14 756 l 14 774 l 79 992 l 306 992 l 306 978 l 144 756 l 14 756 z "},"Ί":{"ha":890,"x_min":14,"x_max":829,"o":"m 829 0 l 378 0 l 378 119 l 499 175 l 499 817 l 378 872 l 378 992 l 829 992 l 829 872 l 708 817 l 708 175 l 829 119 l 829 0 m 14 756 l 14 774 l 79 992 l 306 992 l 306 978 l 144 756 l 14 756 z "},"Ό":{"ha":1347,"x_min":14,"x_max":1263,"o":"m 1263 497 q 1234 288 1263 382 q 1148 126 1206 194 q 1001 22 1090 58 q 790 -14 913 -14 q 580 22 669 -14 q 433 126 490 58 q 347 288 375 194 q 318 499 318 382 q 369 767 318 653 q 524 944 419 881 q 792 1007 629 1007 q 1058 944 953 1007 q 1213 766 1163 881 q 1263 497 1263 651 m 542 497 q 567 319 542 394 q 649 205 593 244 q 790 165 704 165 q 934 205 879 165 q 1014 319 989 244 q 1039 497 1039 394 q 982 742 1039 653 q 792 831 925 831 q 649 790 704 831 q 567 676 593 750 q 542 497 542 601 m 14 756 l 14 774 l 79 992 l 306 992 l 306 978 l 144 756 l 14 756 z "},"Ύ":{"ha":1244,"x_min":14,"x_max":1244,"o":"m 810 576 l 1014 992 l 1244 992 l 917 386 l 917 0 l 703 0 l 703 379 l 375 992 l 606 992 l 810 576 m 14 756 l 14 774 l 79 992 l 306 992 l 306 978 l 144 756 l 14 756 z "},"Ώ":{"ha":1301,"x_min":14,"x_max":1256,"o":"m 294 0 l 294 176 l 501 176 q 396 270 440 214 q 327 397 351 326 q 303 549 303 468 q 360 785 303 682 q 524 948 418 889 q 775 1007 631 1007 q 1026 948 921 1007 q 1190 786 1132 889 q 1247 550 1247 683 q 1224 398 1247 468 q 1156 272 1200 328 q 1047 176 1111 217 l 1256 176 l 1256 0 l 847 0 l 847 190 q 955 290 915 236 q 1012 405 994 343 q 1029 538 1029 467 q 998 695 1029 629 q 910 796 967 761 q 775 831 854 831 q 640 796 697 831 q 553 695 583 761 q 522 536 522 629 q 538 408 522 471 q 592 290 553 344 q 701 190 631 235 l 701 0 l 294 0 m 14 756 l 14 774 l 79 992 l 306 992 l 306 978 l 144 756 l 14 756 z "},"ΐ":{"ha":557,"x_min":-71,"x_max":649,"o":"m 376 -14 q 220 20 279 -14 q 135 111 161 54 q 108 238 108 168 l 108 758 l 315 758 l 315 268 q 344 176 315 200 q 415 153 374 153 q 465 156 443 153 q 513 165 488 160 l 513 3 q 450 -9 488 -4 q 376 -14 413 -14 m 164 842 l 164 860 l 215 1078 l 447 1078 l 447 1064 l 303 842 l 164 842 m 24 863 q -43 885 -15 863 q -71 953 -71 907 q -43 1023 -71 1001 q 24 1044 -15 1044 q 91 1023 63 1044 q 119 953 119 1001 q 91 885 119 907 q 24 863 63 863 m 553 863 q 485 885 514 863 q 457 953 457 907 q 485 1023 457 1001 q 553 1044 513 1044 q 620 1023 592 1044 q 649 953 649 1001 q 620 885 649 907 q 553 863 592 863 z "},"Α":{"ha":961,"x_min":0,"x_max":961,"o":"m 732 0 l 656 233 l 306 233 l 229 0 l 0 0 l 349 996 l 610 996 l 961 0 l 732 0 m 538 626 q 520 689 532 647 q 497 774 508 731 q 479 846 486 818 q 463 772 474 814 q 443 692 453 731 q 426 626 433 653 l 356 411 l 607 411 l 538 626 z "},"Β":{"ha":924,"x_min":118,"x_max":854,"o":"m 439 992 q 736 931 643 992 q 829 744 829 871 q 806 637 829 682 q 745 564 783 592 q 661 526 707 536 l 661 519 q 754 485 710 510 q 826 413 799 460 q 854 288 854 365 q 810 133 854 197 q 684 34 765 68 q 489 0 603 0 l 118 0 l 118 992 l 439 992 m 450 594 q 576 628 542 594 q 611 715 611 661 q 570 799 611 772 q 440 826 529 826 l 331 826 l 331 594 l 450 594 m 331 435 l 331 168 l 465 168 q 597 206 560 168 q 633 304 633 244 q 617 371 633 342 q 563 417 601 400 q 458 435 525 435 l 331 435 z "},"Γ":{"ha":735,"x_min":125,"x_max":665,"o":"m 125 0 l 125 992 l 665 992 l 665 819 l 332 819 l 332 0 l 125 0 z "},"Δ":{"ha":932,"x_min":14,"x_max":918,"o":"m 14 0 l 14 114 l 336 996 l 593 996 l 918 110 l 918 0 l 14 0 m 256 176 l 675 176 l 526 643 q 508 703 519 667 q 484 776 496 739 q 465 842 472 814 q 446 773 458 814 q 422 695 433 732 q 406 643 411 658 l 256 176 z "},"Ε":{"ha":778,"x_min":125,"x_max":696,"o":"m 696 0 l 125 0 l 125 992 l 696 992 l 696 819 l 335 819 l 335 601 l 671 601 l 671 429 l 335 429 l 335 174 l 696 174 l 696 0 z "},"Ζ":{"ha":804,"x_min":33,"x_max":771,"o":"m 771 0 l 33 0 l 33 136 l 508 818 l 46 818 l 46 992 l 758 992 l 758 856 l 283 174 l 771 174 l 771 0 z "},"Η":{"ha":1063,"x_min":125,"x_max":938,"o":"m 938 0 l 728 0 l 728 428 l 335 428 l 335 0 l 125 0 l 125 992 l 335 992 l 335 603 l 728 603 l 728 992 l 938 992 l 938 0 z "},"Θ":{"ha":1099,"x_min":76,"x_max":1021,"o":"m 382 421 l 382 588 l 717 588 l 717 421 l 382 421 m 1021 497 q 992 288 1021 382 q 906 126 964 194 q 760 22 849 58 q 549 -14 671 -14 q 338 22 428 -14 q 191 126 249 58 q 105 288 133 194 q 76 499 76 382 q 127 767 76 653 q 283 944 178 881 q 550 1007 388 1007 q 816 944 711 1007 q 971 766 921 881 q 1021 497 1021 651 m 300 497 q 326 319 300 394 q 407 205 351 244 q 549 165 463 165 q 692 205 638 165 q 772 319 747 244 q 797 497 797 394 q 740 742 797 653 q 550 831 683 831 q 407 790 463 831 q 326 676 351 750 q 300 497 300 601 z "},"Ι":{"ha":540,"x_min":44,"x_max":496,"o":"m 496 0 l 44 0 l 44 119 l 165 175 l 165 817 l 44 872 l 44 992 l 496 992 l 496 872 l 375 817 l 375 175 l 496 119 l 496 0 z "},"Κ":{"ha":917,"x_min":125,"x_max":922,"o":"m 922 0 l 683 0 l 424 418 l 335 354 l 335 0 l 125 0 l 125 992 l 335 992 l 335 538 q 376 596 356 567 q 418 654 397 625 l 686 992 l 919 992 l 574 553 l 922 0 z "},"Λ":{"ha":928,"x_min":0,"x_max":928,"o":"m 0 0 l 332 996 l 593 996 l 928 0 l 699 0 l 518 626 q 501 689 513 647 q 480 774 490 731 q 464 846 469 818 q 448 772 457 814 q 429 692 439 731 q 411 626 419 653 l 229 0 l 0 0 z "},"Μ":{"ha":1311,"x_min":125,"x_max":1185,"o":"m 544 0 l 306 778 l 300 778 q 304 694 301 750 q 310 576 307 639 q 313 461 313 513 l 313 0 l 125 0 l 125 992 l 411 992 l 646 233 l 650 233 l 899 992 l 1185 992 l 1185 0 l 989 0 l 989 469 q 991 578 989 517 q 995 694 993 639 q 999 776 997 749 l 993 776 l 738 0 l 544 0 z "},"Ν":{"ha":1118,"x_min":125,"x_max":1004,"o":"m 1004 0 l 738 0 l 306 750 l 300 750 q 305 656 303 703 q 309 561 307 608 q 313 467 311 514 l 313 0 l 125 0 l 125 992 l 390 992 l 821 249 l 825 249 q 822 340 824 294 q 819 431 821 386 q 815 522 817 476 l 815 992 l 1004 992 l 1004 0 z "},"Ξ":{"ha":869,"x_min":82,"x_max":788,"o":"m 82 0 l 82 175 l 788 175 l 788 0 l 82 0 m 165 429 l 165 604 l 704 604 l 704 429 l 165 429 m 110 817 l 110 992 l 760 992 l 760 817 l 110 817 z "},"Ο":{"ha":1099,"x_min":76,"x_max":1021,"o":"m 1021 497 q 992 288 1021 382 q 906 126 964 194 q 760 22 849 58 q 549 -14 671 -14 q 338 22 428 -14 q 191 126 249 58 q 105 288 133 194 q 76 499 76 382 q 127 767 76 653 q 283 944 178 881 q 550 1007 388 1007 q 816 944 711 1007 q 971 766 921 881 q 1021 497 1021 651 m 300 497 q 326 319 300 394 q 407 205 351 244 q 549 165 463 165 q 692 205 638 165 q 772 319 747 244 q 797 497 797 394 q 740 742 797 653 q 550 831 683 831 q 407 790 463 831 q 326 676 351 750 q 300 497 300 601 z "},"Π":{"ha":1049,"x_min":125,"x_max":924,"o":"m 125 0 l 125 992 l 924 992 l 924 0 l 714 0 l 714 817 l 335 817 l 335 0 l 125 0 z "},"Ρ":{"ha":863,"x_min":118,"x_max":804,"o":"m 429 992 q 713 912 621 992 q 804 686 804 832 q 785 561 804 621 q 720 453 765 501 q 601 378 675 406 q 421 351 528 351 l 331 351 l 331 0 l 118 0 l 118 992 l 429 992 m 422 818 l 331 818 l 331 526 l 401 526 q 502 541 460 526 q 567 590 544 556 q 590 679 590 624 q 549 782 590 746 q 422 818 508 818 z "},"Σ":{"ha":804,"x_min":33,"x_max":771,"o":"m 33 0 l 33 165 l 339 519 l 46 836 l 46 992 l 758 992 l 758 819 l 432 819 q 370 821 404 819 q 297 826 336 822 l 546 551 l 546 499 l 256 165 q 345 172 304 169 q 433 174 386 174 l 771 174 l 771 0 l 33 0 z "},"Τ":{"ha":801,"x_min":26,"x_max":775,"o":"m 507 0 l 294 0 l 294 815 l 26 815 l 26 992 l 775 992 l 775 815 l 507 815 l 507 0 z "},"Υ":{"ha":869,"x_min":0,"x_max":869,"o":"m 435 576 l 639 992 l 869 992 l 542 386 l 542 0 l 328 0 l 328 379 l 0 992 l 231 992 l 435 576 z "},"Φ":{"ha":1256,"x_min":63,"x_max":1192,"o":"m 525 -8 l 525 125 q 301 159 390 126 q 159 247 211 192 q 85 372 107 303 q 63 514 63 440 q 85 653 63 585 q 160 776 108 721 q 302 864 213 831 q 525 897 392 897 l 525 1000 l 731 1000 l 731 897 q 948 865 860 897 q 1090 779 1036 833 q 1167 656 1143 725 q 1192 513 1192 588 q 1169 373 1192 442 q 1093 249 1146 304 q 951 160 1040 193 q 731 125 863 126 l 731 -8 l 525 -8 m 525 289 l 525 732 q 368 701 424 731 q 292 624 313 672 q 271 514 271 575 q 292 402 271 453 q 369 321 314 351 q 525 289 424 290 m 731 289 q 885 322 831 290 q 962 403 940 353 q 983 514 983 454 q 962 621 983 572 q 885 700 940 669 q 731 732 831 731 l 731 289 z "},"Χ":{"ha":931,"x_min":4,"x_max":925,"o":"m 925 0 l 681 0 l 461 357 l 240 0 l 4 0 l 333 511 l 24 992 l 260 992 l 464 653 l 664 992 l 901 992 l 590 499 l 925 0 z "},"Ψ":{"ha":1222,"x_min":118,"x_max":1104,"o":"m 517 0 l 517 254 q 340 283 415 254 q 216 363 265 311 q 142 488 167 415 q 118 650 118 561 l 118 992 l 315 992 l 315 639 q 340 511 315 558 q 410 444 364 464 q 517 424 456 424 l 517 992 l 706 992 l 706 424 q 806 443 760 424 q 879 509 851 463 q 907 636 907 556 l 907 992 l 1104 992 l 1104 653 q 1059 441 1104 531 q 925 303 1014 351 q 706 254 836 254 l 706 0 l 517 0 z "},"Ω":{"ha":1051,"x_min":44,"x_max":1006,"o":"m 44 0 l 44 176 l 251 176 q 146 270 190 214 q 77 397 101 326 q 53 549 53 468 q 110 785 53 682 q 274 948 168 889 q 525 1007 381 1007 q 776 948 671 1007 q 940 786 882 889 q 997 550 997 683 q 974 398 997 468 q 906 272 950 328 q 797 176 861 217 l 1006 176 l 1006 0 l 597 0 l 597 190 q 705 290 665 236 q 762 405 744 343 q 779 538 779 467 q 748 695 779 629 q 660 796 717 761 q 525 831 604 831 q 390 796 447 831 q 303 695 333 761 q 272 536 272 629 q 288 408 272 471 q 342 290 303 344 q 451 190 381 235 l 451 0 l 44 0 z "},"Ϊ":{"ha":540,"x_min":22,"x_max":514,"o":"m 496 0 l 44 0 l 44 119 l 165 175 l 165 817 l 44 872 l 44 992 l 496 992 l 496 872 l 375 817 l 375 175 l 496 119 l 496 0 m 22 1186 q 50 1257 22 1235 q 118 1279 78 1279 q 185 1257 157 1279 q 214 1186 214 1235 q 185 1118 214 1140 q 118 1096 157 1096 q 50 1118 78 1096 q 22 1186 22 1140 m 322 1186 q 349 1257 322 1235 q 418 1279 376 1279 q 485 1257 457 1279 q 514 1186 514 1235 q 485 1118 514 1140 q 418 1096 457 1096 q 349 1118 376 1096 q 322 1186 322 1140 z "},"Ϋ":{"ha":869,"x_min":0,"x_max":869,"o":"m 435 576 l 639 992 l 869 992 l 542 386 l 542 0 l 328 0 l 328 379 l 0 992 l 231 992 l 435 576 m 189 1186 q 217 1257 189 1235 q 285 1279 244 1279 q 352 1257 324 1279 q 381 1186 381 1235 q 352 1118 381 1140 q 285 1096 324 1096 q 217 1118 244 1096 q 189 1186 189 1140 m 489 1186 q 516 1257 489 1235 q 585 1279 543 1279 q 652 1257 624 1279 q 681 1186 681 1235 q 652 1118 681 1140 q 585 1096 624 1096 q 516 1118 543 1096 q 489 1186 489 1140 z "},"ά":{"ha":911,"x_min":65,"x_max":872,"o":"m 351 -14 q 203 31 268 -14 q 101 162 138 75 q 65 376 65 249 q 143 671 65 571 q 356 771 221 771 q 453 756 413 771 q 522 717 493 742 q 574 661 551 693 l 579 661 l 599 758 l 776 758 l 776 232 q 793 169 776 186 q 832 153 810 153 q 854 156 842 153 q 872 160 867 158 l 872 4 q 849 -4 865 0 q 813 -11 832 -8 q 778 -14 793 -14 q 665 11 708 -14 q 597 100 622 36 l 583 100 q 528 42 563 68 q 450 1 494 17 q 351 -14 406 -14 m 425 151 q 516 173 482 151 q 565 242 550 194 q 579 361 579 289 l 579 378 q 547 548 579 488 q 425 608 515 608 q 314 548 349 608 q 279 375 279 488 q 316 206 279 261 q 425 151 353 151 m 374 842 l 374 860 l 439 1078 l 665 1078 l 665 1064 l 504 842 l 374 842 z "},"έ":{"ha":703,"x_min":49,"x_max":657,"o":"m 385 -14 q 133 47 218 -14 q 49 210 49 108 q 94 335 49 293 q 217 392 140 376 l 217 399 q 117 457 150 415 q 85 560 85 499 q 117 672 85 624 q 217 746 150 719 q 385 772 283 772 q 531 758 457 772 q 657 711 604 743 l 600 565 q 497 608 543 596 q 400 619 450 619 q 308 598 338 619 q 279 536 279 576 q 309 478 279 496 q 399 461 339 461 l 511 461 l 511 313 l 400 313 q 318 303 349 313 q 274 276 288 294 q 260 228 260 257 q 298 161 260 182 q 410 140 336 140 q 524 155 474 140 q 633 206 575 169 l 633 43 q 526 0 583 14 q 385 -14 469 -14 m 331 842 l 331 860 l 396 1078 l 622 1078 l 622 1064 l 461 842 l 331 842 z "},"ή":{"ha":893,"x_min":101,"x_max":794,"o":"m 586 -333 l 586 453 q 558 565 586 525 q 468 606 529 606 q 374 576 408 606 q 326 492 340 547 q 311 356 311 436 l 311 0 l 101 0 l 101 758 l 263 758 l 290 661 l 301 661 q 362 725 326 700 q 440 761 397 750 q 529 772 483 772 q 668 744 608 772 q 761 653 728 715 q 794 494 794 592 l 794 -333 l 586 -333 m 331 842 l 331 860 l 396 1078 l 622 1078 l 622 1064 l 461 842 l 331 842 z "},"ί":{"ha":557,"x_min":108,"x_max":513,"o":"m 376 -14 q 220 20 279 -14 q 135 111 161 54 q 108 238 108 168 l 108 758 l 315 758 l 315 268 q 344 176 315 200 q 415 153 374 153 q 465 156 443 153 q 513 165 488 160 l 513 3 q 450 -9 488 -4 q 376 -14 413 -14 m 157 842 l 157 860 l 222 1078 l 449 1078 l 449 1064 l 288 842 l 157 842 z "},"ΰ":{"ha":885,"x_min":104,"x_max":867,"o":"m 432 -12 q 272 13 335 -12 q 172 84 208 38 q 119 194 135 131 q 104 332 104 257 l 104 758 l 311 758 l 311 325 q 324 222 311 260 q 366 168 338 183 q 439 153 394 153 q 528 178 493 153 q 578 263 563 204 q 594 417 594 321 q 581 587 594 507 q 546 758 568 667 l 754 758 q 780 644 769 699 q 796 533 790 589 q 801 411 801 476 q 710 90 801 193 q 432 -12 618 -12 m 382 842 l 382 860 l 433 1078 l 665 1078 l 665 1064 l 521 842 l 382 842 m 242 863 q 175 885 203 863 q 147 953 147 907 q 175 1023 147 1001 q 242 1044 203 1044 q 309 1023 281 1044 q 338 953 338 1001 q 309 885 338 907 q 242 863 281 863 m 771 863 q 703 885 732 863 q 675 953 675 907 q 703 1023 675 1001 q 771 1044 731 1044 q 838 1023 810 1044 q 867 953 867 1001 q 838 885 867 907 q 771 863 810 863 z "},"α":{"ha":911,"x_min":65,"x_max":872,"o":"m 351 -14 q 203 31 268 -14 q 101 162 138 75 q 65 376 65 249 q 143 671 65 571 q 356 771 221 771 q 453 756 413 771 q 522 717 493 742 q 574 661 551 693 l 579 661 l 599 758 l 776 758 l 776 232 q 793 169 776 186 q 832 153 810 153 q 854 156 842 153 q 872 160 867 158 l 872 4 q 849 -4 865 0 q 813 -11 832 -8 q 778 -14 793 -14 q 665 11 708 -14 q 597 100 622 36 l 583 100 q 528 42 563 68 q 450 1 494 17 q 351 -14 406 -14 m 425 151 q 516 173 482 151 q 565 242 550 194 q 579 361 579 289 l 579 378 q 547 548 579 488 q 425 608 515 608 q 314 548 349 608 q 279 375 279 488 q 316 206 279 261 q 425 151 353 151 z "},"β":{"ha":876,"x_min":101,"x_max":811,"o":"m 101 -333 l 101 732 q 147 924 101 851 q 270 1029 193 996 q 443 1063 347 1063 q 602 1035 532 1063 q 714 948 672 1007 q 756 796 756 889 q 729 681 756 729 q 659 604 703 633 q 563 564 615 575 l 563 558 q 692 518 636 549 q 780 433 749 488 q 811 294 811 379 q 769 128 811 197 q 656 22 728 58 q 494 -14 585 -14 q 392 -3 432 -14 q 311 29 353 8 l 311 -333 l 101 -333 m 451 153 q 558 194 517 153 q 599 313 599 235 q 576 403 599 369 q 519 453 554 438 q 447 469 485 469 l 379 469 l 379 628 l 435 628 q 496 646 471 628 q 533 697 521 664 q 546 769 546 729 q 517 869 546 835 q 433 903 488 903 q 371 888 399 903 q 327 838 343 872 q 311 746 311 804 l 311 196 q 374 165 342 178 q 451 153 407 153 z "},"γ":{"ha":782,"x_min":0,"x_max":740,"o":"m 264 -292 l 264 18 l 0 758 l 213 758 l 346 338 q 362 288 353 317 q 379 231 371 258 q 393 183 388 203 l 399 183 q 474 336 444 253 q 518 523 504 419 q 532 758 532 626 l 740 758 q 717 485 740 611 q 634 244 693 358 q 471 14 575 129 l 471 -292 l 264 -292 z "},"δ":{"ha":846,"x_min":49,"x_max":783,"o":"m 413 -14 q 225 25 307 -14 q 96 136 143 64 q 49 310 49 208 q 83 468 49 404 q 171 573 117 532 q 285 638 225 614 q 220 685 250 657 q 173 751 190 713 q 156 842 156 790 q 194 959 156 910 q 299 1035 232 1008 q 454 1063 367 1063 q 568 1052 514 1063 q 669 1019 622 1042 q 754 958 717 996 l 676 819 q 572 890 628 867 q 464 913 517 913 q 399 901 424 913 q 365 871 375 889 q 356 835 356 853 q 374 785 356 806 q 426 746 393 764 q 506 704 460 728 q 668 597 607 653 q 756 477 729 542 q 783 333 783 413 q 738 140 783 217 q 608 24 692 63 q 413 -14 525 -14 m 418 153 q 503 176 468 153 q 557 242 539 200 q 575 336 575 283 q 557 428 575 388 q 505 499 539 468 q 425 553 471 531 q 355 518 386 539 q 302 471 324 497 q 269 410 281 444 q 257 332 257 375 q 276 236 257 276 q 333 174 296 196 q 418 153 369 153 z "},"ε":{"ha":700,"x_min":49,"x_max":657,"o":"m 385 -14 q 133 47 218 -14 q 49 210 49 108 q 94 335 49 293 q 217 392 140 376 l 217 399 q 117 457 150 415 q 85 560 85 499 q 117 672 85 624 q 217 746 150 719 q 385 772 283 772 q 531 758 457 772 q 657 711 604 743 l 600 565 q 497 608 543 596 q 400 619 450 619 q 308 598 338 619 q 279 536 279 576 q 309 478 279 496 q 399 461 339 461 l 511 461 l 511 313 l 400 313 q 318 303 349 313 q 274 276 288 294 q 260 228 260 257 q 298 161 260 182 q 410 140 336 140 q 524 155 474 140 q 633 206 575 169 l 633 43 q 526 0 583 14 q 385 -14 469 -14 z "},"ζ":{"ha":674,"x_min":63,"x_max":672,"o":"m 401 -281 q 449 -182 432 -228 q 465 -106 465 -136 q 456 -60 465 -76 q 418 -33 446 -44 q 336 -8 390 -21 q 183 52 243 15 q 92 144 122 89 q 63 278 63 200 q 103 457 63 372 q 209 625 143 542 q 349 797 275 708 l 443 911 q 396 904 425 907 q 338 901 367 901 q 290 900 308 900 l 93 900 l 93 1056 l 672 1056 l 672 925 l 492 700 q 372 544 421 611 q 299 421 324 476 q 274 313 274 365 q 290 244 274 274 q 343 194 306 215 q 447 157 381 174 q 580 112 532 138 q 647 48 628 86 q 667 -49 667 10 q 658 -126 667 -89 q 635 -202 650 -164 q 597 -281 619 -240 l 401 -281 z "},"η":{"ha":893,"x_min":101,"x_max":794,"o":"m 586 -333 l 586 453 q 558 565 586 525 q 468 606 529 606 q 374 576 408 606 q 326 492 340 547 q 311 356 311 436 l 311 0 l 101 0 l 101 758 l 263 758 l 290 661 l 301 661 q 362 725 326 700 q 440 761 397 750 q 529 772 483 772 q 668 744 608 772 q 761 653 728 715 q 794 494 794 592 l 794 -333 l 586 -333 z "},"θ":{"ha":853,"x_min":65,"x_max":788,"o":"m 425 -14 q 223 51 303 -14 q 104 237 143 115 q 65 526 65 358 q 101 815 65 694 q 215 999 136 935 q 425 1063 294 1063 q 628 999 547 1063 q 748 815 708 935 q 788 526 788 696 q 751 237 788 358 q 635 51 715 115 q 425 -14 556 -14 m 425 138 q 510 168 476 138 q 560 268 543 199 q 579 453 576 338 l 274 453 q 291 269 275 339 q 340 169 307 200 q 425 138 374 138 m 275 611 l 579 611 q 559 784 576 718 q 509 881 542 850 q 426 911 476 911 q 344 881 376 911 q 294 784 311 850 q 275 611 278 718 z "},"ι":{"ha":557,"x_min":108,"x_max":513,"o":"m 376 -14 q 220 20 279 -14 q 135 111 161 54 q 108 238 108 168 l 108 758 l 315 758 l 315 268 q 344 176 315 200 q 415 153 374 153 q 465 156 443 153 q 513 165 488 160 l 513 3 q 450 -9 488 -4 q 376 -14 413 -14 z "},"κ":{"ha":861,"x_min":108,"x_max":861,"o":"m 843 758 l 544 411 l 861 0 l 625 0 l 413 289 l 315 228 l 315 0 l 108 0 l 108 758 l 315 758 l 315 560 q 314 476 314 518 q 311 394 314 435 l 314 394 q 361 452 338 424 q 410 510 385 481 l 622 758 l 843 758 z "},"λ":{"ha":797,"x_min":0,"x_max":797,"o":"m 678 -14 q 587 6 622 -14 q 531 60 551 25 q 494 140 510 94 l 435 325 q 416 381 426 353 q 396 440 406 410 q 380 499 386 469 q 371 558 374 529 l 367 558 q 351 447 363 497 q 319 329 339 396 l 226 0 l 0 0 l 274 753 l 258 797 q 195 879 236 863 q 100 896 154 896 q 57 893 76 896 q 24 888 38 890 l 24 1051 q 53 1057 36 1054 q 92 1061 71 1060 q 136 1063 113 1063 q 272 1044 215 1063 q 370 981 329 1026 q 443 850 411 935 l 650 297 q 687 210 672 240 q 716 170 701 181 q 750 160 731 160 q 775 162 765 160 q 797 167 785 164 l 797 7 q 765 -3 786 1 q 719 -11 743 -8 q 678 -14 696 -14 z "},"μ":{"ha":933,"x_min":101,"x_max":894,"o":"m 101 -333 l 101 758 l 311 758 l 311 317 q 342 195 311 236 q 438 154 374 154 q 554 218 521 154 q 588 403 588 282 l 588 758 l 797 758 l 797 232 q 814 169 797 186 q 854 153 831 153 q 876 156 864 153 q 894 160 889 158 l 894 4 q 871 -4 888 0 q 835 -11 854 -8 q 800 -14 815 -14 q 687 12 731 -14 q 615 101 643 38 l 604 101 q 560 38 586 64 q 503 -1 535 11 q 432 -14 471 -14 q 359 1 388 -14 q 307 46 331 17 l 304 46 q 309 -26 307 18 q 311 -117 311 -71 l 311 -333 l 101 -333 z "},"ν":{"ha":782,"x_min":0,"x_max":740,"o":"m 271 0 l 0 758 l 213 758 l 346 338 q 362 288 353 317 q 379 231 371 258 q 393 183 388 203 l 399 183 q 474 336 444 253 q 518 523 504 419 q 532 758 532 626 l 740 758 q 715 480 740 608 q 628 234 690 351 q 457 0 567 117 l 271 0 z "},"ξ":{"ha":729,"x_min":63,"x_max":686,"o":"m 415 -281 q 462 -184 444 -228 q 479 -106 479 -140 q 469 -59 479 -75 q 431 -32 458 -43 q 351 -8 403 -21 q 200 49 265 13 q 99 142 135 85 q 63 283 63 199 q 85 403 63 351 q 153 492 107 456 q 268 549 199 528 l 268 556 q 178 590 214 567 q 124 647 142 613 q 106 728 106 682 q 126 812 106 778 q 190 869 147 846 q 301 908 233 893 q 232 905 269 907 q 165 901 194 903 q 122 900 135 900 l 107 900 l 107 1056 l 686 1056 l 686 908 l 635 908 q 500 903 560 908 q 397 882 440 897 q 332 835 354 867 q 310 754 310 804 q 326 687 310 715 q 385 642 343 658 q 499 626 426 626 l 650 626 l 650 471 l 497 471 q 369 454 419 471 q 297 402 319 438 q 274 311 274 367 q 297 222 274 251 q 364 181 321 193 q 465 156 407 168 q 601 108 556 138 q 664 42 647 79 q 681 -37 681 4 q 674 -119 681 -79 q 651 -198 667 -158 q 611 -281 636 -237 l 415 -281 z "},"ο":{"ha":868,"x_min":65,"x_max":801,"o":"m 801 381 q 776 213 801 286 q 702 89 750 139 q 586 13 654 39 q 432 -14 518 -14 q 285 13 351 -14 q 169 89 218 39 q 93 213 121 139 q 65 381 65 286 q 110 594 65 507 q 238 727 154 682 q 436 772 321 772 q 625 727 543 772 q 754 594 707 682 q 801 381 801 507 m 279 381 q 295 254 279 307 q 345 174 311 201 q 435 146 379 146 q 523 174 489 146 q 572 254 557 201 q 588 381 588 307 q 572 507 588 456 q 522 585 556 558 q 433 613 489 613 q 316 553 353 613 q 279 381 279 493 z "},"π":{"ha":1033,"x_min":31,"x_max":994,"o":"m 826 -14 q 674 43 721 -14 q 626 210 626 100 l 626 601 l 399 601 l 399 0 l 190 0 l 190 601 l 31 601 l 31 758 l 994 758 l 994 601 l 835 601 l 835 231 q 853 170 835 188 q 899 153 872 153 q 945 158 921 153 q 988 172 969 164 l 988 24 q 919 -2 963 10 q 826 -14 875 -14 z "},"ρ":{"ha":858,"x_min":81,"x_max":792,"o":"m 81 -333 l 81 381 q 123 593 81 506 q 244 726 165 681 q 429 772 322 772 q 626 726 544 772 q 750 590 708 679 q 792 374 792 501 q 751 166 792 253 q 640 33 711 79 q 475 -14 568 -14 q 376 0 422 -14 q 293 39 329 14 l 279 39 q 287 -41 283 10 q 290 -143 290 -92 l 290 -333 l 81 -333 m 433 146 q 510 169 478 146 q 560 241 543 192 q 578 372 578 290 q 538 558 578 503 q 426 613 497 613 q 325 560 358 613 q 292 401 292 508 l 292 208 q 356 163 319 181 q 433 146 393 146 z "},"σ":{"ha":910,"x_min":63,"x_max":851,"o":"m 421 -14 q 231 36 311 -14 q 106 173 150 86 q 63 369 63 260 q 112 595 63 510 q 250 720 161 681 q 457 760 339 760 l 851 760 l 851 603 l 678 603 q 738 529 715 568 q 772 447 761 490 q 782 350 782 403 q 761 225 782 289 q 697 107 740 161 q 584 19 653 53 q 421 -14 515 -14 m 424 153 q 510 181 478 153 q 558 259 543 210 q 572 368 572 308 q 565 469 572 425 q 541 547 557 514 q 500 603 525 581 l 463 603 q 363 582 406 603 q 297 510 319 561 q 274 369 274 460 q 288 256 274 304 q 335 180 303 207 q 424 153 368 153 z "},"τ":{"ha":757,"x_min":32,"x_max":699,"o":"m 472 -14 q 345 8 401 -14 q 256 85 289 31 q 222 238 222 140 l 222 603 l 32 603 l 32 758 l 699 758 l 699 603 l 429 603 l 429 238 q 440 189 429 208 q 472 160 451 169 q 519 151 493 151 q 586 158 554 151 q 650 175 618 165 l 650 21 q 573 -3 619 7 q 472 -14 526 -14 z "},"υ":{"ha":885,"x_min":104,"x_max":801,"o":"m 432 -12 q 272 13 335 -12 q 172 84 208 38 q 119 194 135 131 q 104 332 104 257 l 104 758 l 311 758 l 311 325 q 324 222 311 260 q 366 168 338 183 q 439 153 394 153 q 528 178 493 153 q 578 263 563 204 q 594 417 594 321 q 581 587 594 507 q 546 758 568 667 l 754 758 q 780 644 769 699 q 796 533 790 589 q 801 411 801 476 q 710 90 801 193 q 432 -12 618 -12 z "},"φ":{"ha":1131,"x_min":63,"x_max":1068,"o":"m 471 -333 l 471 -6 q 249 58 340 7 q 110 191 158 108 q 63 379 63 274 q 106 571 63 488 q 241 704 150 654 q 471 763 332 754 l 471 1056 l 663 1056 l 663 763 q 885 701 794 751 q 1022 568 975 650 q 1068 379 1068 486 q 1023 190 1068 274 q 888 56 978 107 q 663 -6 799 6 l 663 -333 l 471 -333 m 471 144 l 471 614 q 367 574 411 606 q 299 493 322 543 q 275 379 275 443 q 298 264 275 314 q 365 183 321 214 q 471 144 408 153 m 663 144 q 768 183 725 153 q 833 264 811 214 q 856 379 856 314 q 804 538 856 475 q 663 611 753 600 l 663 144 z "},"χ":{"ha":864,"x_min":7,"x_max":871,"o":"m 739 -333 q 641 -314 678 -333 q 576 -251 604 -294 q 511 -135 549 -207 l 188 506 q 140 575 163 556 q 85 594 117 594 q 51 592 71 594 q 7 582 31 589 l 7 747 q 59 762 33 756 q 126 768 85 768 q 218 750 181 768 q 286 695 256 732 q 347 599 317 658 l 694 -81 q 725 -127 710 -110 q 759 -152 740 -144 q 803 -160 778 -160 q 833 -158 818 -160 q 871 -151 849 -157 l 871 -312 q 832 -324 851 -319 q 790 -331 813 -329 q 739 -333 768 -333 m 15 -335 l 364 243 l 446 63 l 224 -335 l 15 -335 m 511 133 l 429 314 l 663 758 l 871 758 l 511 133 z "},"ψ":{"ha":1156,"x_min":97,"x_max":1069,"o":"m 476 -333 l 476 -11 q 276 28 361 -7 q 144 144 190 64 q 97 363 97 225 l 97 758 l 299 758 l 299 357 q 320 234 299 276 q 382 176 342 192 q 476 156 422 160 l 476 1056 l 676 1056 l 676 156 q 782 185 740 161 q 844 260 824 210 q 865 392 865 310 q 851 572 865 483 q 810 758 838 661 l 1014 758 q 1056 570 1043 658 q 1069 390 1069 482 q 1018 162 1069 249 q 878 35 967 75 q 676 -11 790 -4 l 676 -333 l 476 -333 z "},"ω":{"ha":1204,"x_min":76,"x_max":1128,"o":"m 382 -14 q 213 35 281 -14 q 110 170 144 83 q 76 368 76 257 q 115 604 76 507 q 208 758 153 701 l 393 758 q 330 665 358 721 q 284 537 301 610 q 267 375 267 464 q 298 210 267 274 q 399 147 329 147 q 464 167 440 147 q 497 225 488 188 q 507 317 507 263 l 507 517 l 697 517 l 697 317 q 707 225 697 263 q 740 167 717 188 q 806 147 764 147 q 881 176 853 147 q 924 256 910 204 q 938 372 938 307 q 922 530 938 458 q 879 659 907 601 q 811 758 851 717 l 996 758 q 1067 658 1038 715 q 1113 530 1097 601 q 1128 368 1128 458 q 1094 170 1128 257 q 992 35 1060 83 q 822 -14 924 -14 q 683 26 733 -14 q 606 143 632 67 l 599 143 q 553 58 582 93 q 483 4 525 22 q 382 -14 442 -14 z "},"ϊ":{"ha":557,"x_min":-35,"x_max":513,"o":"m 376 -14 q 220 20 279 -14 q 135 111 161 54 q 108 238 108 168 l 108 758 l 315 758 l 315 268 q 344 176 315 200 q 415 153 374 153 q 465 156 443 153 q 513 165 488 160 l 513 3 q 450 -9 488 -4 q 376 -14 413 -14 m -35 953 q -7 1024 -35 1001 q 61 1046 21 1046 q 128 1024 100 1046 q 157 953 157 1001 q 128 885 157 907 q 61 863 100 863 q -7 885 21 863 q -35 953 -35 907 m 265 953 q 292 1024 265 1001 q 361 1046 319 1046 q 428 1024 400 1046 q 457 953 457 1001 q 428 885 457 907 q 361 863 400 863 q 292 885 319 863 q 265 953 265 907 z "},"ϋ":{"ha":885,"x_min":104,"x_max":801,"o":"m 432 -12 q 272 13 335 -12 q 172 84 208 38 q 119 194 135 131 q 104 332 104 257 l 104 758 l 311 758 l 311 325 q 324 222 311 260 q 366 168 338 183 q 439 153 394 153 q 528 178 493 153 q 578 263 563 204 q 594 417 594 321 q 581 587 594 507 q 546 758 568 667 l 754 758 q 780 644 769 699 q 796 533 790 589 q 801 411 801 476 q 710 90 801 193 q 432 -12 618 -12 m 183 953 q 211 1024 183 1001 q 279 1046 239 1046 q 347 1024 318 1046 q 375 953 375 1001 q 347 885 375 907 q 279 863 318 863 q 211 885 239 863 q 183 953 183 907 m 483 953 q 510 1024 483 1001 q 579 1046 538 1046 q 647 1024 618 1046 q 675 953 675 1001 q 647 885 675 907 q 579 863 618 863 q 510 885 538 863 q 483 953 483 907 z "},"ό":{"ha":868,"x_min":65,"x_max":801,"o":"m 801 381 q 776 213 801 286 q 702 89 750 139 q 586 13 654 39 q 432 -14 518 -14 q 285 13 351 -14 q 169 89 218 39 q 93 213 121 139 q 65 381 65 286 q 110 594 65 507 q 238 727 154 682 q 436 772 321 772 q 625 727 543 772 q 754 594 707 682 q 801 381 801 507 m 279 381 q 295 254 279 307 q 345 174 311 201 q 435 146 379 146 q 523 174 489 146 q 572 254 557 201 q 588 381 588 307 q 572 507 588 456 q 522 585 556 558 q 433 613 489 613 q 316 553 353 613 q 279 381 279 493 m 383 842 l 383 860 l 449 1078 l 675 1078 l 675 1064 l 514 842 l 383 842 z "},"ύ":{"ha":885,"x_min":104,"x_max":801,"o":"m 432 -12 q 272 13 335 -12 q 172 84 208 38 q 119 194 135 131 q 104 332 104 257 l 104 758 l 311 758 l 311 325 q 324 222 311 260 q 366 168 338 183 q 439 153 394 153 q 528 178 493 153 q 578 263 563 204 q 594 417 594 321 q 581 587 594 507 q 546 758 568 667 l 754 758 q 780 644 769 699 q 796 533 790 589 q 801 411 801 476 q 710 90 801 193 q 432 -12 618 -12 m 375 842 l 375 860 l 440 1078 l 667 1078 l 667 1064 l 506 842 l 375 842 z "},"ώ":{"ha":1215,"x_min":76,"x_max":1128,"o":"m 382 -14 q 213 35 281 -14 q 110 170 144 83 q 76 368 76 257 q 115 604 76 507 q 208 758 153 701 l 393 758 q 330 665 358 721 q 284 537 301 610 q 267 375 267 464 q 298 210 267 274 q 399 147 329 147 q 464 167 440 147 q 497 225 488 188 q 507 317 507 263 l 507 517 l 697 517 l 697 317 q 707 225 697 263 q 740 167 717 188 q 806 147 764 147 q 881 176 853 147 q 924 256 910 204 q 938 372 938 307 q 922 530 938 458 q 879 659 907 601 q 811 758 851 717 l 996 758 q 1067 658 1038 715 q 1113 530 1097 601 q 1128 368 1128 458 q 1094 170 1128 257 q 992 35 1060 83 q 822 -14 924 -14 q 683 26 733 -14 q 606 143 632 67 l 599 143 q 553 58 582 93 q 483 4 525 22 q 382 -14 442 -14 m 556 842 l 556 860 l 621 1078 l 847 1078 l 847 1064 l 686 842 l 556 842 z "},"Ё":{"ha":779,"x_min":118,"x_max":701,"o":"m 118 0 l 118 992 l 701 992 l 701 818 l 331 818 l 331 601 l 678 601 l 678 428 l 331 428 l 331 176 l 701 176 l 701 0 l 118 0 m 268 1085 q 199 1110 226 1085 q 171 1183 171 1135 q 199 1259 171 1235 q 268 1283 226 1283 q 338 1259 310 1283 q 365 1183 365 1235 q 338 1110 365 1135 q 268 1085 310 1085 m 560 1085 q 488 1110 515 1085 q 461 1183 461 1135 q 488 1259 461 1235 q 560 1283 515 1283 q 629 1259 601 1283 q 657 1183 657 1235 q 628 1110 657 1135 q 560 1085 600 1085 z "},"Ђ":{"ha":1063,"x_min":28,"x_max":1001,"o":"m 703 -18 q 638 -14 668 -18 q 581 -3 608 -10 l 581 163 q 623 155 606 157 q 657 153 640 153 q 755 189 721 153 q 788 293 789 225 l 788 293 q 747 405 788 367 q 624 443 706 443 q 515 428 571 443 q 417 390 460 414 l 471 501 l 471 -1 l 261 -1 l 261 815 l 28 815 l 28 990 l 768 990 l 768 815 l 471 815 l 471 482 l 414 564 q 534 602 471 589 q 665 615 597 615 q 913 530 826 615 q 1000 292 1000 444 l 1000 292 q 966 125 1001 194 q 864 19 931 56 q 703 -18 797 -18 z "},"Ѓ":{"ha":782,"x_min":125,"x_max":738,"o":"m 125 0 l 125 992 l 738 992 l 738 818 l 335 818 l 335 0 l 125 0 m 342 1075 l 342 1093 l 485 1297 l 718 1297 l 718 1283 l 481 1075 l 342 1075 z "},"Є":{"ha":904,"x_min":72,"x_max":857,"o":"m 543 -14 q 284 47 389 -14 q 126 222 179 108 q 72 492 72 336 q 131 767 72 653 q 297 944 189 882 q 551 1006 404 1006 q 711 989 636 1006 q 857 936 786 972 l 782 772 q 669 816 721 803 q 564 829 617 829 q 417 792 478 829 q 324 684 356 756 q 292 508 292 613 l 203 590 l 722 590 l 722 422 l 199 422 l 296 506 q 317 316 288 392 q 413 202 347 240 q 576 164 479 164 q 698 177 638 164 q 821 218 758 190 l 821 43 q 691 1 764 15 q 543 -14 618 -14 z "},"Ѕ":{"ha":760,"x_min":58,"x_max":704,"o":"m 338 -14 q 238 -7 288 -14 q 144 13 189 0 q 58 46 99 26 l 58 242 q 210 179 143 199 q 342 160 278 160 q 433 174 399 160 q 483 211 467 188 q 499 265 499 235 q 473 329 499 303 q 404 378 447 356 q 306 428 361 401 q 231 467 271 444 q 153 524 190 490 q 93 607 117 558 q 69 724 69 656 q 110 876 69 813 q 227 972 151 939 q 406 1006 303 1006 q 553 988 483 1006 q 700 936 624 969 l 632 772 q 510 815 564 800 q 399 831 456 831 q 332 818 360 831 q 290 783 304 806 q 275 731 275 761 q 296 672 275 696 q 358 625 317 647 q 463 572 400 603 q 592 497 539 536 q 675 406 646 458 q 704 275 704 353 q 661 122 704 188 q 537 22 618 57 q 338 -14 456 -14 z "},"І":{"ha":449,"x_min":118,"x_max":331,"o":"m 118 0 l 118 992 l 331 992 l 331 0 l 118 0 z "},"Ї":{"ha":460,"x_min":25,"x_max":435,"o":"m 125 0 l 125 992 l 335 992 l 335 0 l 125 0 m 115 1094 q 49 1120 72 1094 q 25 1193 25 1146 q 49 1268 25 1242 q 115 1294 72 1294 q 183 1269 160 1294 q 207 1193 207 1243 q 184 1119 207 1144 q 115 1094 161 1094 m 344 1094 q 276 1119 300 1094 q 253 1193 253 1144 q 276 1268 253 1242 q 344 1294 300 1294 q 412 1268 389 1294 q 435 1193 435 1242 q 412 1120 435 1146 q 344 1094 389 1094 z "},"Ј":{"ha":460,"x_min":-103,"x_max":335,"o":"m 21 -292 q -50 -287 -19 -292 q -103 -276 -81 -282 l -103 -101 q -56 -111 -81 -107 q -4 -115 -32 -115 q 62 -101 32 -115 q 108 -49 92 -87 q 125 63 125 -10 l 125 992 l 335 992 l 335 64 q 295 -142 335 -64 q 185 -256 256 -221 q 21 -292 114 -292 z "},"Љ":{"ha":1436,"x_min":7,"x_max":1374,"o":"m 132 -15 q 68 -11 103 -15 q 7 0 33 -7 l 7 178 q 44 169 26 172 q 79 167 61 167 q 139 183 115 167 q 176 237 163 200 q 194 333 190 274 q 203 453 199 388 q 213 598 208 518 q 222 775 217 678 q 232 992 226 872 l 882 992 l 882 650 l 989 650 q 1276 568 1179 650 q 1374 325 1374 486 q 1277 83 1374 165 q 990 0 1181 0 l 672 0 l 672 817 l 415 817 q 408 672 411 742 q 401 538 404 603 q 393 413 397 474 q 383 296 389 353 q 344 120 374 189 q 262 18 314 51 q 132 -15 210 -15 m 882 174 l 975 174 q 1113 212 1068 174 q 1158 328 1158 250 q 1113 441 1158 406 q 972 476 1068 476 l 882 476 l 882 174 z "},"Њ":{"ha":1476,"x_min":125,"x_max":1414,"o":"m 125 0 l 125 992 l 335 992 l 335 619 l 707 619 l 707 992 l 917 992 l 917 618 l 1026 618 q 1315 539 1215 618 q 1414 307 1414 460 q 1316 78 1414 157 q 1029 0 1218 0 l 707 0 l 707 444 l 335 444 l 335 0 l 125 0 m 917 174 l 1013 174 q 1153 208 1107 174 q 1199 313 1199 243 q 1152 413 1199 381 q 1011 444 1106 444 l 917 444 l 917 174 z "},"Ћ":{"ha":1081,"x_min":28,"x_max":992,"o":"m 261 0 l 261 817 l 28 817 l 28 992 l 764 992 l 764 817 l 471 817 l 471 485 l 410 560 q 541 597 475 583 q 675 610 607 610 q 910 533 828 610 q 990 294 992 457 l 989 0 l 779 0 l 781 294 q 742 402 781 367 q 625 438 704 438 q 517 423 571 438 q 410 388 463 408 l 471 504 l 471 0 l 261 0 z "},"Ќ":{"ha":950,"x_min":125,"x_max":956,"o":"m 713 0 l 383 500 l 383 524 l 699 992 l 921 992 l 585 499 l 588 549 l 956 0 l 713 0 m 125 0 l 125 992 l 333 992 l 333 0 l 125 0 m 222 428 l 222 603 l 465 603 l 465 428 l 222 428 m 376 1075 l 376 1093 l 519 1297 l 753 1297 l 753 1283 l 515 1075 l 376 1075 z "},"Ў":{"ha":896,"x_min":11,"x_max":896,"o":"m 219 -14 q 155 -10 189 -14 q 90 4 121 -6 l 90 181 q 139 171 114 175 q 192 167 164 167 q 288 186 253 167 q 342 241 322 206 q 376 322 361 276 l 393 175 l 11 992 l 239 992 l 413 563 q 428 526 418 549 q 449 481 439 504 q 464 439 458 457 l 471 439 q 486 480 476 456 q 506 530 496 504 q 524 575 517 556 l 685 992 l 896 992 l 603 303 q 498 114 551 183 q 378 15 444 44 q 219 -14 311 -14 m 471 1068 q 277 1122 347 1068 q 193 1292 207 1176 l 371 1292 q 403 1214 378 1240 q 471 1188 428 1188 q 539 1213 514 1188 q 571 1292 564 1239 l 749 1292 q 665 1122 735 1176 q 471 1068 594 1068 z "},"Џ":{"ha":1064,"x_min":125,"x_max":939,"o":"m 431 -206 l 431 0 l 125 0 l 125 992 l 335 992 l 335 175 l 729 175 l 729 992 l 939 992 l 939 0 l 633 0 l 633 -206 l 431 -206 z "}}}
